<svg width="332" height="323" viewBox="0 0 332 323" fill="none" xmlns="http://www.w3.org/2000/svg">
<path d="M236.843 155.469C227.64 191.421 191.71 214.179 156.591 206.302C121.472 198.424 100.464 162.893 109.668 126.942C118.871 90.99 154.801 68.2315 189.92 76.109C225.038 83.9866 246.047 119.517 236.843 155.469Z" fill="#383D6D"/>
<path d="M50.4099 198.744L168.831 136.926L175.707 151.314L57.2857 213.132L50.4099 198.744Z" fill="#383D6D"/>
<ellipse cx="55.0671" cy="56.866" rx="55.0671" ry="56.866" transform="matrix(0.975753 0.218874 -0.248 0.96876 134.336 73.6948)" fill="#31355B"/>
<path fill-rule="evenodd" clip-rule="evenodd" d="M203.233 163.145C194.202 170.25 191.039 179.267 182.679 181.986C173.954 184.823 165.603 180.265 157.518 176.804C149.074 173.188 133.779 165.57 132.344 155.334C130.91 145.097 129.574 141.741 133.859 132.604C138.057 123.653 147.146 122.749 154.593 116.22C161.069 110.544 164.114 98.5235 176.335 99.1009C188.555 99.6783 191.219 100.769 196.745 106.358C202.27 111.947 203.215 116.224 206.568 122.859C209.986 129.627 217.583 137.894 216.227 145.674C214.863 153.496 214.229 156.432 203.233 163.145Z" fill="url(#paint0_radial_16_370)"/>
<ellipse cx="174.921" cy="141.189" rx="14.9052" ry="14.2643" transform="rotate(125 174.921 141.189)" fill="url(#paint1_radial_16_370)" fill-opacity="0.87"/>
<mask id="path-5-outside-1_16_370" maskUnits="userSpaceOnUse" x="111.226" y="223.406" width="96.6758" height="35.9893" fill="black">
<rect fill="white" x="111.226" y="223.406" width="96.6758" height="35.9893"/>
<path d="M116.788 257.161C115.562 257.186 114.557 256.834 113.772 256.104C112.988 255.374 112.607 254.436 112.631 253.29L113.064 232.134C113.088 230.961 113.495 229.98 114.284 229.191C115.073 228.375 116.094 227.954 117.347 227.928C118.681 227.9 119.712 228.278 120.442 229.062C121.173 229.82 121.527 230.759 121.504 231.879L121.352 239.277L128.791 239.122L128.941 231.804C128.965 230.631 129.371 229.65 130.16 228.86C130.95 228.044 131.998 227.623 133.304 227.596C134.61 227.568 135.629 227.947 136.359 228.731C137.089 229.489 137.443 230.428 137.42 231.547L136.985 252.783C136.962 253.929 136.542 254.884 135.727 255.647C134.939 256.41 133.958 256.803 132.785 256.828C131.505 256.854 130.46 256.503 129.649 255.774C128.864 255.044 128.484 254.106 128.507 252.959L128.67 245.001L121.232 245.156L121.069 253.114C121.045 254.261 120.626 255.215 119.811 255.978C119.022 256.741 118.015 257.135 116.788 257.161ZM146.735 256.658C144.762 256.699 143.226 256.198 142.128 255.154C141.057 254.111 140.541 252.629 140.58 250.709C140.62 248.79 141.288 247.39 142.585 246.51C143.883 245.604 145.532 245.13 147.531 245.088C148.704 245.064 149.769 245.122 150.726 245.262C151.682 245.402 152.544 245.61 153.311 245.888L153.431 245.885L153.443 245.285C153.456 244.672 153.239 244.197 152.793 243.86C152.347 243.496 151.778 243.334 151.084 243.376C150.418 243.389 149.844 243.441 149.362 243.531C148.907 243.621 148.331 243.766 147.634 243.967C146.348 244.314 145.242 244.31 144.317 243.956C143.391 243.602 142.766 242.882 142.442 241.796C142.146 240.657 142.232 239.695 142.701 238.913C143.197 238.13 143.929 237.515 144.897 237.068C145.732 236.651 146.659 236.299 147.677 236.011C148.722 235.723 149.845 235.566 151.045 235.541C154.537 235.469 157.079 236.269 158.671 237.941C160.289 239.586 161.058 242.395 160.976 246.368L160.849 252.566C160.827 253.66 160.475 254.573 159.794 255.307C159.113 256.04 158.185 256.419 157.012 256.444C155.733 256.47 154.78 256.131 154.155 255.424C153.557 254.717 153.268 253.843 153.289 252.804L153.308 251.884L152.508 251.9C152.494 252.594 152.346 253.303 152.065 254.028C151.81 254.753 151.278 255.364 150.468 255.86C149.685 256.356 148.441 256.622 146.735 256.658ZM147.314 247.891C147.305 248.344 147.458 248.661 147.774 248.841C148.117 249.02 148.848 249.098 149.968 249.075C150.981 249.054 151.689 248.946 152.093 248.751C152.497 248.556 152.703 248.232 152.713 247.779C152.721 247.352 152.528 247.063 152.131 246.912C151.735 246.733 151.03 246.655 150.017 246.676C148.897 246.699 148.162 246.808 147.812 247.001C147.489 247.168 147.323 247.465 147.314 247.891ZM168.401 256.207C167.148 256.233 166.182 255.893 165.504 255.188C164.825 254.482 164.497 253.583 164.52 252.49L164.789 239.373C164.812 238.226 165.178 237.273 165.887 236.512C166.596 235.724 167.577 235.317 168.83 235.291C170.083 235.265 171.035 235.632 171.685 236.391C172.336 237.124 172.651 238.037 172.629 239.13L172.611 239.97L173.371 239.954C173.507 238.539 174.064 237.368 175.042 236.441C176.02 235.515 177.163 235.038 178.469 235.011C179.776 234.984 180.794 235.362 181.524 236.147C182.281 236.93 182.645 237.989 182.618 239.322C182.592 240.575 182.211 241.622 181.474 242.464C180.738 243.305 179.809 243.737 178.69 243.761C177.757 243.78 176.974 243.583 176.343 243.17C175.739 242.729 175.297 242.219 175.016 241.639C174.165 241.55 173.536 241.656 173.13 241.958C172.751 242.232 172.554 242.782 172.537 243.609L172.358 252.327C172.336 253.42 171.984 254.334 171.303 255.067C170.621 255.801 169.654 256.181 168.401 256.207ZM191.75 255.721C186.898 255.822 184.545 252.3 184.691 245.155C184.754 242.062 185.405 239.584 186.642 237.719C187.88 235.828 189.699 234.857 192.098 234.807C193.405 234.78 194.452 235.025 195.241 235.541C196.057 236.057 196.682 236.777 197.116 237.701C197.577 238.598 197.902 239.643 198.091 240.839L198.212 240.796L198.46 228.679C198.482 227.586 198.821 226.659 199.476 225.899C200.159 225.112 201.126 224.706 202.379 224.68C203.606 224.654 204.504 225.022 205.075 225.783C205.673 226.517 205.96 227.457 205.937 228.603L205.568 246.599C205.549 247.506 205.599 248.344 205.716 249.115C205.861 249.858 205.966 250.602 206.03 251.347C206.09 252.358 205.858 253.243 205.336 254C204.842 254.729 203.966 255.214 202.708 255.453C201.076 255.754 199.869 255.499 199.086 254.689C198.33 253.879 197.969 252.66 198.002 251.034L198.032 249.554L197.272 249.57C197.232 251.517 196.709 253.02 195.701 254.08C194.72 255.14 193.403 255.687 191.75 255.721ZM191.377 244.656C191.36 245.483 191.601 246.091 192.099 246.48C192.597 246.869 193.5 247.05 194.806 247.023C196.139 246.995 197.063 246.776 197.578 246.366C198.093 245.955 198.358 245.337 198.375 244.511C198.393 243.657 198.152 243.049 197.653 242.687C197.182 242.297 196.279 242.116 194.946 242.143C193.613 242.171 192.689 242.39 192.174 242.801C191.66 243.184 191.394 243.803 191.377 244.656Z"/>
</mask>
<path d="M116.788 257.161C115.562 257.186 114.557 256.834 113.772 256.104C112.988 255.374 112.607 254.436 112.631 253.29L113.064 232.134C113.088 230.961 113.495 229.98 114.284 229.191C115.073 228.375 116.094 227.954 117.347 227.928C118.681 227.9 119.712 228.278 120.442 229.062C121.173 229.82 121.527 230.759 121.504 231.879L121.352 239.277L128.791 239.122L128.941 231.804C128.965 230.631 129.371 229.65 130.16 228.86C130.95 228.044 131.998 227.623 133.304 227.596C134.61 227.568 135.629 227.947 136.359 228.731C137.089 229.489 137.443 230.428 137.42 231.547L136.985 252.783C136.962 253.929 136.542 254.884 135.727 255.647C134.939 256.41 133.958 256.803 132.785 256.828C131.505 256.854 130.46 256.503 129.649 255.774C128.864 255.044 128.484 254.106 128.507 252.959L128.67 245.001L121.232 245.156L121.069 253.114C121.045 254.261 120.626 255.215 119.811 255.978C119.022 256.741 118.015 257.135 116.788 257.161ZM146.735 256.658C144.762 256.699 143.226 256.198 142.128 255.154C141.057 254.111 140.541 252.629 140.58 250.709C140.62 248.79 141.288 247.39 142.585 246.51C143.883 245.604 145.532 245.13 147.531 245.088C148.704 245.064 149.769 245.122 150.726 245.262C151.682 245.402 152.544 245.61 153.311 245.888L153.431 245.885L153.443 245.285C153.456 244.672 153.239 244.197 152.793 243.86C152.347 243.496 151.778 243.334 151.084 243.376C150.418 243.389 149.844 243.441 149.362 243.531C148.907 243.621 148.331 243.766 147.634 243.967C146.348 244.314 145.242 244.31 144.317 243.956C143.391 243.602 142.766 242.882 142.442 241.796C142.146 240.657 142.232 239.695 142.701 238.913C143.197 238.13 143.929 237.515 144.897 237.068C145.732 236.651 146.659 236.299 147.677 236.011C148.722 235.723 149.845 235.566 151.045 235.541C154.537 235.469 157.079 236.269 158.671 237.941C160.289 239.586 161.058 242.395 160.976 246.368L160.849 252.566C160.827 253.66 160.475 254.573 159.794 255.307C159.113 256.04 158.185 256.419 157.012 256.444C155.733 256.47 154.78 256.131 154.155 255.424C153.557 254.717 153.268 253.843 153.289 252.804L153.308 251.884L152.508 251.9C152.494 252.594 152.346 253.303 152.065 254.028C151.81 254.753 151.278 255.364 150.468 255.86C149.685 256.356 148.441 256.622 146.735 256.658ZM147.314 247.891C147.305 248.344 147.458 248.661 147.774 248.841C148.117 249.02 148.848 249.098 149.968 249.075C150.981 249.054 151.689 248.946 152.093 248.751C152.497 248.556 152.703 248.232 152.713 247.779C152.721 247.352 152.528 247.063 152.131 246.912C151.735 246.733 151.03 246.655 150.017 246.676C148.897 246.699 148.162 246.808 147.812 247.001C147.489 247.168 147.323 247.465 147.314 247.891ZM168.401 256.207C167.148 256.233 166.182 255.893 165.504 255.188C164.825 254.482 164.497 253.583 164.52 252.49L164.789 239.373C164.812 238.226 165.178 237.273 165.887 236.512C166.596 235.724 167.577 235.317 168.83 235.291C170.083 235.265 171.035 235.632 171.685 236.391C172.336 237.124 172.651 238.037 172.629 239.13L172.611 239.97L173.371 239.954C173.507 238.539 174.064 237.368 175.042 236.441C176.02 235.515 177.163 235.038 178.469 235.011C179.776 234.984 180.794 235.362 181.524 236.147C182.281 236.93 182.645 237.989 182.618 239.322C182.592 240.575 182.211 241.622 181.474 242.464C180.738 243.305 179.809 243.737 178.69 243.761C177.757 243.78 176.974 243.583 176.343 243.17C175.739 242.729 175.297 242.219 175.016 241.639C174.165 241.55 173.536 241.656 173.13 241.958C172.751 242.232 172.554 242.782 172.537 243.609L172.358 252.327C172.336 253.42 171.984 254.334 171.303 255.067C170.621 255.801 169.654 256.181 168.401 256.207ZM191.75 255.721C186.898 255.822 184.545 252.3 184.691 245.155C184.754 242.062 185.405 239.584 186.642 237.719C187.88 235.828 189.699 234.857 192.098 234.807C193.405 234.78 194.452 235.025 195.241 235.541C196.057 236.057 196.682 236.777 197.116 237.701C197.577 238.598 197.902 239.643 198.091 240.839L198.212 240.796L198.46 228.679C198.482 227.586 198.821 226.659 199.476 225.899C200.159 225.112 201.126 224.706 202.379 224.68C203.606 224.654 204.504 225.022 205.075 225.783C205.673 226.517 205.96 227.457 205.937 228.603L205.568 246.599C205.549 247.506 205.599 248.344 205.716 249.115C205.861 249.858 205.966 250.602 206.03 251.347C206.09 252.358 205.858 253.243 205.336 254C204.842 254.729 203.966 255.214 202.708 255.453C201.076 255.754 199.869 255.499 199.086 254.689C198.33 253.879 197.969 252.66 198.002 251.034L198.032 249.554L197.272 249.57C197.232 251.517 196.709 253.02 195.701 254.08C194.72 255.14 193.403 255.687 191.75 255.721ZM191.377 244.656C191.36 245.483 191.601 246.091 192.099 246.48C192.597 246.869 193.5 247.05 194.806 247.023C196.139 246.995 197.063 246.776 197.578 246.366C198.093 245.955 198.358 245.337 198.375 244.511C198.393 243.657 198.152 243.049 197.653 242.687C197.182 242.297 196.279 242.116 194.946 242.143C193.613 242.171 192.689 242.39 192.174 242.801C191.66 243.184 191.394 243.803 191.377 244.656Z" fill="white"/>
<path d="M113.772 256.104L113.075 256.849L113.075 256.849L113.772 256.104ZM114.284 229.191L114.976 229.883L114.982 229.877L114.988 229.87L114.284 229.191ZM120.442 229.062L119.697 229.76L119.703 229.766L119.709 229.772L120.442 229.062ZM121.352 239.277L120.352 239.298L120.332 240.298L121.332 240.277L121.352 239.277ZM128.791 239.122L128.77 240.122L129.77 240.101L129.79 239.101L128.791 239.122ZM130.16 228.86L130.853 229.553L130.859 229.546L130.865 229.54L130.16 228.86ZM136.359 228.731L135.614 229.429L135.62 229.435L135.625 229.441L136.359 228.731ZM135.727 255.647L135.06 254.931L135.054 254.937L135.048 254.943L135.727 255.647ZM129.649 255.774L128.951 256.519L128.957 256.524L128.963 256.53L129.649 255.774ZM128.67 245.001L129.67 244.98L129.69 243.98L128.691 244.001L128.67 245.001ZM121.232 245.156L121.252 244.156L120.252 244.177L120.232 245.177L121.232 245.156ZM119.811 255.978L119.144 255.262L119.137 255.268L119.131 255.274L119.811 255.978ZM116.809 256.161C115.803 256.182 115.05 255.899 114.469 255.359L113.075 256.849C114.063 257.769 115.321 258.19 116.768 258.16L116.809 256.161ZM114.469 255.359C113.894 254.824 113.612 254.153 113.63 253.269L111.631 253.31C111.602 254.719 112.081 255.925 113.075 256.849L114.469 255.359ZM113.63 253.269L114.064 232.113L112.064 232.155L111.631 253.31L113.63 253.269ZM114.064 232.113C114.083 231.184 114.393 230.466 114.976 229.883L113.591 228.498C112.596 229.494 112.093 230.738 112.064 232.155L114.064 232.113ZM114.988 229.87C115.56 229.279 116.307 228.949 117.327 228.927L117.368 226.928C115.881 226.959 114.586 227.47 113.579 228.511L114.988 229.87ZM117.327 228.927C118.448 228.904 119.192 229.217 119.697 229.76L121.187 228.365C120.233 227.34 118.913 226.896 117.368 226.928L117.327 228.927ZM119.709 229.772C120.255 230.339 120.522 231.027 120.504 231.899L122.504 231.858C122.532 230.491 122.091 229.302 121.176 228.353L119.709 229.772ZM120.504 231.899L120.352 239.298L122.352 239.256L122.504 231.858L120.504 231.899ZM121.332 240.277L128.77 240.122L128.811 238.122L121.373 238.277L121.332 240.277ZM129.79 239.101L129.94 231.783L127.941 231.825L127.791 239.143L129.79 239.101ZM129.94 231.783C129.959 230.854 130.27 230.136 130.853 229.553L129.468 228.168C128.472 229.164 127.97 230.408 127.941 231.825L129.94 231.783ZM130.865 229.54C131.428 228.958 132.197 228.618 133.284 228.595L133.325 226.596C131.798 226.628 130.471 227.131 129.456 228.18L130.865 229.54ZM133.284 228.595C134.371 228.573 135.104 228.881 135.614 229.429L137.104 228.034C136.153 227.013 134.85 226.564 133.325 226.596L133.284 228.595ZM135.625 229.441C136.172 230.007 136.438 230.696 136.421 231.568L138.42 231.527C138.448 230.16 138.007 228.971 137.092 228.022L135.625 229.441ZM136.421 231.568L135.985 252.804L137.985 252.762L138.42 231.527L136.421 231.568ZM135.985 252.804C135.967 253.688 135.658 254.371 135.06 254.931L136.395 256.364C137.427 255.397 137.956 254.171 137.985 252.762L135.985 252.804ZM135.048 254.943C134.467 255.504 133.745 255.809 132.805 255.828L132.765 257.828C134.171 257.798 135.41 257.316 136.407 256.352L135.048 254.943ZM132.805 255.828C131.734 255.85 130.938 255.561 130.334 255.018L128.963 256.53C129.982 257.445 131.277 257.859 132.765 257.828L132.805 255.828ZM130.346 255.029C129.77 254.493 129.489 253.823 129.507 252.939L127.507 252.98C127.478 254.389 127.958 255.594 128.951 256.519L130.346 255.029ZM129.507 252.939L129.67 244.98L127.67 245.022L127.507 252.98L129.507 252.939ZM128.691 244.001L121.252 244.156L121.211 246.156L128.65 246.001L128.691 244.001ZM120.232 245.177L120.069 253.135L122.068 253.093L122.232 245.135L120.232 245.177ZM120.069 253.135C120.051 254.019 119.741 254.702 119.144 255.262L120.478 256.695C121.51 255.729 122.04 254.502 122.068 253.093L120.069 253.135ZM119.131 255.274C118.56 255.826 117.816 256.14 116.809 256.161L116.768 258.16C118.214 258.13 119.485 257.656 120.49 256.683L119.131 255.274ZM142.128 255.154L141.415 255.885L141.424 255.893L142.128 255.154ZM142.585 246.51L143.123 247.331L143.129 247.327L143.135 247.323L142.585 246.51ZM150.726 245.262L150.91 244.272L150.726 245.262ZM153.311 245.888L152.937 246.83L153.107 246.891L153.291 246.887L153.311 245.888ZM153.431 245.885L153.411 246.885L154.41 246.864L154.431 245.864L153.431 245.885ZM152.793 243.86L152.142 244.645L152.155 244.656L152.169 244.666L152.793 243.86ZM151.084 243.376L151.064 244.375L151.083 244.375L151.102 244.374L151.084 243.376ZM149.362 243.531L149.218 242.548L149.208 242.55L149.362 243.531ZM147.634 243.967L147.857 244.932L147.866 244.93L147.874 244.927L147.634 243.967ZM144.317 243.956L143.926 244.892L144.317 243.956ZM142.442 241.796L141.473 242.085L141.478 242.102L141.483 242.118L142.442 241.796ZM142.701 238.913L141.862 238.403L141.855 238.414L141.849 238.425L142.701 238.913ZM144.897 237.068L145.285 237.974L145.3 237.967L145.314 237.959L144.897 237.068ZM147.677 236.011L147.449 235.048L147.443 235.05L147.677 236.011ZM158.671 237.941L157.933 238.646L157.938 238.652L157.944 238.657L158.671 237.941ZM159.794 255.307L160.514 255.971L159.794 255.307ZM154.155 255.424L153.381 256.088L153.387 256.096L153.394 256.104L154.155 255.424ZM153.308 251.884L154.308 251.863L154.328 250.863L153.329 250.884L153.308 251.884ZM152.508 251.9L152.529 250.901L151.529 250.921L151.509 251.921L152.508 251.9ZM152.065 254.028L151.135 253.701L151.129 253.716L151.123 253.732L152.065 254.028ZM150.468 255.86L149.972 255.014L149.965 255.018L149.959 255.022L150.468 255.86ZM147.774 248.841L147.253 249.715L147.267 249.723L147.282 249.731L147.774 248.841ZM152.093 248.751L151.689 247.854L151.689 247.854L152.093 248.751ZM152.131 246.912L151.69 247.826L151.715 247.838L151.741 247.848L152.131 246.912ZM147.812 247.001L148.241 247.886L148.254 247.879L148.268 247.872L147.812 247.001ZM146.755 255.658C144.965 255.695 143.702 255.242 142.833 254.416L141.424 255.893C142.751 257.153 144.558 257.702 146.714 257.657L146.755 255.658ZM142.841 254.424C142.005 253.609 141.545 252.412 141.58 250.689L139.581 250.73C139.537 252.846 140.109 254.612 141.415 255.885L142.841 254.424ZM141.58 250.689C141.615 249.009 142.179 247.971 143.123 247.331L142.048 245.69C140.398 246.809 139.625 248.57 139.581 250.73L141.58 250.689ZM143.135 247.323C144.221 246.564 145.656 246.127 147.511 246.088L147.552 244.089C145.408 244.133 143.545 244.644 142.036 245.698L143.135 247.323ZM147.511 246.088C148.64 246.065 149.648 246.121 150.541 246.251L150.91 244.272C149.89 244.123 148.769 244.063 147.552 244.089L147.511 246.088ZM150.541 246.251C151.444 246.384 152.241 246.578 152.937 246.83L153.685 244.945C152.847 244.643 151.92 244.42 150.91 244.272L150.541 246.251ZM153.291 246.887L153.411 246.885L153.452 244.885L153.332 244.888L153.291 246.887ZM154.431 245.864L154.443 245.264L152.444 245.306L152.431 245.906L154.431 245.864ZM154.443 245.264C154.462 244.367 154.127 243.589 153.417 243.053L152.169 244.666C152.352 244.804 152.45 244.977 152.444 245.306L154.443 245.264ZM153.444 243.075C152.78 242.532 151.958 242.324 151.066 242.377L151.102 244.374C151.598 244.344 151.915 244.46 152.142 244.645L153.444 243.075ZM151.105 242.376C150.402 242.39 149.77 242.445 149.218 242.549L149.506 244.514C149.917 244.437 150.433 244.388 151.064 244.375L151.105 242.376ZM149.208 242.55C148.713 242.648 148.106 242.802 147.394 243.007L147.874 244.927C148.557 244.73 149.101 244.594 149.516 244.512L149.208 242.55ZM147.412 243.002C146.267 243.311 145.386 243.28 144.707 243.02L143.926 244.892C145.098 245.34 146.429 245.316 147.857 244.932L147.412 243.002ZM144.707 243.02C144.098 242.787 143.654 242.322 143.401 241.474L141.483 242.118C141.878 243.443 142.684 244.417 143.926 244.892L144.707 243.02ZM143.41 241.508C143.159 240.539 143.268 239.876 143.553 239.401L141.849 238.425C141.196 239.515 141.133 240.774 141.473 242.085L143.41 241.508ZM143.54 239.422C143.91 238.837 144.472 238.348 145.285 237.974L144.51 236.163C143.386 236.681 142.483 237.422 141.862 238.403L143.54 239.422ZM145.314 237.959C146.083 237.575 146.947 237.245 147.912 236.973L147.443 235.05C146.37 235.353 145.381 235.727 144.48 236.177L145.314 237.959ZM147.906 236.974C148.86 236.711 149.899 236.565 151.024 236.541L151.065 234.542C149.791 234.568 148.584 234.735 147.449 235.048L147.906 236.974ZM151.024 236.541C154.375 236.471 156.599 237.245 157.933 238.646L159.408 237.236C157.559 235.293 154.699 234.466 151.065 234.542L151.024 236.541ZM157.944 238.657C159.292 240.028 160.056 242.51 159.977 246.389L161.976 246.347C162.059 242.281 161.286 239.145 159.398 237.225L157.944 238.657ZM159.977 246.389L159.85 252.587L161.849 252.546L161.976 246.347L159.977 246.389ZM159.85 252.587C159.832 253.46 159.56 254.119 159.074 254.643L160.514 255.971C161.39 255.027 161.822 253.86 161.849 252.546L159.85 252.587ZM159.074 254.643C158.624 255.128 157.987 255.424 157.033 255.444L156.992 257.444C158.384 257.415 159.601 256.953 160.514 255.971L159.074 254.643ZM157.033 255.444C155.94 255.467 155.3 255.178 154.916 254.744L153.394 256.104C154.26 257.083 155.525 257.474 156.992 257.444L157.033 255.444ZM154.929 254.76C154.497 254.248 154.272 253.61 154.289 252.783L152.29 252.824C152.264 254.076 152.617 255.185 153.381 256.088L154.929 254.76ZM154.289 252.783L154.308 251.863L152.308 251.905L152.29 252.824L154.289 252.783ZM153.329 250.884L152.529 250.901L152.488 252.9L153.288 252.884L153.329 250.884ZM151.509 251.921C151.497 252.484 151.377 253.075 151.135 253.701L152.995 254.356C153.316 253.531 153.491 252.703 153.508 251.88L151.509 251.921ZM151.123 253.732C150.966 254.18 150.623 254.614 149.972 255.014L150.965 256.707C151.933 256.114 152.655 255.327 153.007 254.325L151.123 253.732ZM149.959 255.022C149.423 255.361 148.413 255.623 146.755 255.658L146.714 257.657C148.469 257.621 149.948 257.352 150.978 256.699L149.959 255.022ZM146.314 247.912C146.299 248.628 146.561 249.321 147.253 249.715L148.296 247.967C148.293 247.965 148.298 247.968 148.307 247.978C148.317 247.987 148.323 247.997 148.325 248.003C148.331 248.014 148.311 247.982 148.314 247.87L146.314 247.912ZM147.282 249.731C147.617 249.906 148.033 249.986 148.433 250.028C148.856 250.074 149.364 250.087 149.947 250.075L149.988 248.075C149.452 248.087 149.035 248.073 148.726 248.04C148.573 248.023 148.458 248.003 148.375 247.984C148.288 247.963 148.26 247.947 148.266 247.951L147.282 249.731ZM149.947 250.075C150.965 250.054 151.873 249.95 152.497 249.648L151.689 247.854C151.506 247.942 150.997 248.054 149.988 248.075L149.947 250.075ZM152.497 249.648C152.845 249.48 153.162 249.229 153.388 248.874C153.613 248.521 153.705 248.134 153.713 247.758L151.713 247.8C151.712 247.84 151.707 247.86 151.706 247.864C151.705 247.868 151.707 247.861 151.714 247.85C151.717 247.844 151.721 247.84 151.724 247.836C151.726 247.834 151.727 247.833 151.728 247.832C151.729 247.831 151.73 247.83 151.73 247.83C151.73 247.83 151.729 247.831 151.728 247.832C151.726 247.833 151.724 247.835 151.721 247.837C151.714 247.841 151.704 247.847 151.689 247.854L152.497 249.648ZM153.713 247.758C153.72 247.385 153.639 247.001 153.411 246.662C153.185 246.324 152.863 246.106 152.521 245.976L151.741 247.848C151.769 247.859 151.777 247.865 151.771 247.861C151.765 247.856 151.751 247.844 151.736 247.822C151.722 247.801 151.715 247.782 151.712 247.772C151.71 247.764 151.714 247.771 151.713 247.8L153.713 247.758ZM152.572 245.997C151.959 245.721 151.055 245.655 150.038 245.676L149.997 247.675C151.006 247.654 151.51 247.746 151.69 247.826L152.572 245.997ZM150.038 245.676C149.455 245.688 148.945 245.723 148.52 245.785C148.118 245.845 147.698 245.942 147.356 246.131L148.268 247.872C148.261 247.875 148.291 247.859 148.378 247.835C148.462 247.811 148.578 247.786 148.732 247.764C149.042 247.718 149.46 247.687 149.997 247.675L150.038 245.676ZM147.383 246.116C147.051 246.288 146.769 246.546 146.577 246.888C146.391 247.221 146.321 247.577 146.314 247.912L148.314 247.87C148.316 247.779 148.333 247.773 148.313 247.809C148.303 247.827 148.288 247.847 148.27 247.863C148.262 247.871 148.255 247.877 148.249 247.881C148.244 247.885 148.24 247.886 148.241 247.886L147.383 246.116ZM165.504 255.188L166.238 254.479L165.504 255.188ZM165.887 236.512L166.605 237.177L166.611 237.17L166.617 237.164L165.887 236.512ZM171.685 236.391L170.915 237.06L170.92 237.066L170.926 237.073L171.685 236.391ZM172.611 239.97L171.612 239.99L171.591 240.99L172.591 240.969L172.611 239.97ZM173.371 239.954L173.351 240.954L174.278 240.934L174.367 240.008L173.371 239.954ZM175.042 236.441L174.37 235.729L175.042 236.441ZM181.524 236.147L180.779 236.844L180.785 236.85L180.791 236.856L181.524 236.147ZM181.474 242.464L180.734 241.823L181.474 242.464ZM176.343 243.17L175.733 243.986L175.752 244L175.772 244.013L176.343 243.17ZM175.016 241.639L175.919 241.173L175.689 240.699L175.16 240.644L175.016 241.639ZM173.13 241.958L173.695 242.759L173.705 242.752L173.13 241.958ZM171.303 255.067L172.022 255.731L171.303 255.067ZM168.422 255.207C167.367 255.229 166.688 254.947 166.238 254.479L164.769 255.896C165.677 256.84 166.929 257.237 168.381 257.207L168.422 255.207ZM166.238 254.479C165.753 253.974 165.502 253.33 165.52 252.469L163.52 252.511C163.493 253.836 163.898 254.99 164.769 255.896L166.238 254.479ZM165.52 252.469L165.788 239.352L163.789 239.394L163.52 252.511L165.52 252.469ZM165.788 239.352C165.807 238.424 166.095 237.725 166.605 237.177L165.168 235.847C164.261 236.82 163.817 238.029 163.789 239.394L165.788 239.352ZM166.617 237.164C167.093 236.636 167.776 236.313 168.809 236.291L168.85 234.292C167.377 234.322 166.098 234.813 165.156 235.86L166.617 237.164ZM168.809 236.291C169.843 236.27 170.491 236.565 170.915 237.06L172.456 235.723C171.578 234.699 170.322 234.261 168.85 234.292L168.809 236.291ZM170.926 237.073C171.402 237.608 171.647 238.279 171.629 239.151L173.628 239.109C173.655 237.795 173.271 236.639 172.445 235.71L170.926 237.073ZM171.629 239.151L171.612 239.99L173.611 239.949L173.628 239.109L171.629 239.151ZM172.591 240.969L173.351 240.954L173.392 238.954L172.632 238.97L172.591 240.969ZM174.367 240.008C174.48 238.822 174.934 237.892 175.714 237.154L174.37 235.729C173.193 236.843 172.533 238.255 172.376 239.899L174.367 240.008ZM175.714 237.154C176.505 236.404 177.401 236.032 178.449 236.011L178.49 234.011C176.925 234.044 175.536 234.625 174.37 235.729L175.714 237.154ZM178.449 236.011C179.536 235.988 180.27 236.297 180.779 236.844L182.269 235.449C181.318 234.428 180.015 233.979 178.49 234.011L178.449 236.011ZM180.791 236.856C181.337 237.422 181.641 238.214 181.618 239.343L183.618 239.301C183.649 237.763 183.224 236.438 182.257 235.437L180.791 236.856ZM181.618 239.343C181.597 240.391 181.285 241.193 180.734 241.823L182.215 243.105C183.137 242.051 183.588 240.759 183.618 239.301L181.618 239.343ZM180.734 241.823C180.196 242.437 179.548 242.744 178.71 242.761L178.669 244.761C180.071 244.731 181.279 244.173 182.215 243.105L180.734 241.823ZM178.71 242.761C177.932 242.777 177.352 242.613 176.915 242.327L175.772 244.013C176.597 244.553 177.581 244.783 178.669 244.761L178.71 242.761ZM176.954 242.354C176.455 241.989 176.122 241.593 175.919 241.173L174.112 242.104C174.471 242.845 175.024 243.47 175.733 243.986L176.954 242.354ZM175.16 240.644C174.227 240.546 173.278 240.627 172.555 241.164L173.705 242.752C173.794 242.685 174.102 242.553 174.871 242.633L175.16 240.644ZM172.566 241.156C171.766 241.736 171.555 242.73 171.537 243.63L173.537 243.588C173.544 243.241 173.588 243.016 173.637 242.88C173.683 242.751 173.718 242.742 173.695 242.759L172.566 241.156ZM171.537 243.63L171.358 252.348L173.358 252.306L173.537 243.588L171.537 243.63ZM171.358 252.348C171.34 253.22 171.069 253.88 170.583 254.403L172.022 255.731C172.899 254.787 173.331 253.62 173.358 252.306L171.358 252.348ZM170.583 254.403C170.145 254.874 169.478 255.185 168.422 255.207L168.381 257.207C169.83 257.177 171.097 256.728 172.022 255.731L170.583 254.403ZM186.642 237.719L187.468 238.248L187.472 238.242L186.642 237.719ZM195.241 235.541L194.67 236.385L194.676 236.389L194.682 236.393L195.241 235.541ZM197.116 237.701L196.208 238.157L196.215 238.172L196.223 238.187L197.116 237.701ZM198.091 240.839L197.103 241.034L197.282 242.17L198.388 241.781L198.091 240.839ZM198.212 240.796L198.508 241.738L199.197 241.496L199.211 240.776L198.212 240.796ZM199.476 225.899L198.732 225.262L198.731 225.265L199.476 225.899ZM205.075 225.783L204.266 226.404L204.278 226.419L204.289 226.434L205.075 225.783ZM205.716 249.115L204.728 249.305L204.731 249.325L204.734 249.345L205.716 249.115ZM206.03 251.347L207.029 251.247L207.028 251.234L207.027 251.22L206.03 251.347ZM205.336 254L204.521 253.455L204.516 253.462L205.336 254ZM202.708 255.453L202.85 256.437L202.856 256.436L202.708 255.453ZM199.086 254.689L198.342 255.387L198.348 255.394L198.354 255.399L199.086 254.689ZM198.032 249.554L199.032 249.534L199.052 248.534L198.053 248.555L198.032 249.554ZM197.272 249.57L197.293 248.57L196.293 248.591L196.273 249.591L197.272 249.57ZM195.701 254.08L194.99 253.407L194.98 253.417L195.701 254.08ZM192.099 246.48L191.463 247.278L192.099 246.48ZM197.653 242.687L196.997 243.468L197.02 243.487L197.044 243.504L197.653 242.687ZM192.174 242.801L192.751 243.593L192.765 243.583L192.778 243.573L192.174 242.801ZM191.77 254.722C189.628 254.766 188.156 254.031 187.184 252.577C186.168 251.054 185.619 248.625 185.691 245.134L183.691 245.176C183.616 248.83 184.171 251.734 185.507 253.734C186.889 255.802 189.02 256.777 191.729 256.721L191.77 254.722ZM185.691 245.134C185.752 242.159 186.376 239.893 187.468 238.248L185.816 237.19C184.433 239.274 183.757 241.965 183.691 245.176L185.691 245.134ZM187.472 238.242C188.502 236.668 189.985 235.851 192.078 235.807L192.119 233.808C189.412 233.864 187.258 234.988 185.812 237.196L187.472 238.242ZM192.078 235.807C193.256 235.783 194.091 236.006 194.67 236.385L195.813 234.698C194.813 234.044 193.554 233.778 192.119 233.808L192.078 235.807ZM194.682 236.393C195.337 236.808 195.846 237.387 196.208 238.157L198.024 237.246C197.518 236.168 196.776 235.307 195.801 234.69L194.682 236.393ZM196.223 238.187C196.629 238.978 196.927 239.922 197.103 241.034L199.079 240.643C198.877 239.365 198.525 238.217 198.009 237.215L196.223 238.187ZM198.388 241.781L198.508 241.738L197.915 239.854L197.794 239.897L198.388 241.781ZM199.211 240.776L199.46 228.658L197.46 228.7L197.212 240.817L199.211 240.776ZM199.46 228.658C199.478 227.775 199.744 227.089 200.222 226.534L198.731 225.265C197.898 226.23 197.487 227.396 197.46 228.7L199.46 228.658ZM200.22 226.537C200.665 226.024 201.325 225.701 202.359 225.68L202.4 223.68C200.928 223.711 199.653 224.201 198.732 225.262L200.22 226.537ZM202.359 225.68C203.364 225.659 203.927 225.952 204.266 226.404L205.884 225.162C205.082 224.092 203.848 223.65 202.4 223.68L202.359 225.68ZM204.289 226.434C204.719 226.96 204.957 227.664 204.937 228.624L206.936 228.582C206.964 227.25 206.627 226.073 205.861 225.132L204.289 226.434ZM204.937 228.624L204.568 246.62L206.568 246.579L206.936 228.582L204.937 228.624ZM204.568 246.62C204.549 247.575 204.6 248.471 204.728 249.305L206.705 248.924C206.597 248.218 206.55 247.437 206.568 246.579L204.568 246.62ZM204.734 249.345C204.873 250.055 204.972 250.764 205.034 251.474L207.027 251.22C206.959 250.44 206.849 249.661 206.698 248.885L204.734 249.345ZM205.032 251.446C205.08 252.262 204.895 252.913 204.521 253.455L206.152 254.544C206.822 253.572 207.099 252.455 207.029 251.247L205.032 251.446ZM204.516 253.462C204.24 253.87 203.674 254.259 202.561 254.471L202.856 256.436C204.257 256.169 205.444 255.589 206.157 254.537L204.516 253.462ZM202.567 254.47C201.109 254.739 200.292 254.469 199.819 253.979L198.354 255.399C199.446 256.53 201.044 256.769 202.85 256.437L202.567 254.47ZM199.83 253.991C199.305 253.428 198.971 252.496 199.002 251.013L197.002 251.055C196.966 252.825 197.355 254.329 198.342 255.387L199.83 253.991ZM199.002 251.013L199.032 249.534L197.032 249.575L197.002 251.055L199.002 251.013ZM198.053 248.555L197.293 248.57L197.252 250.57L198.012 250.554L198.053 248.555ZM196.273 249.591C196.236 251.375 195.761 252.596 194.99 253.407L196.412 254.753C197.656 253.444 198.229 251.658 198.272 249.549L196.273 249.591ZM194.98 253.417C194.225 254.232 193.196 254.692 191.77 254.722L191.729 256.721C193.61 256.682 195.214 256.047 196.422 254.743L194.98 253.417ZM190.377 244.677C190.356 245.716 190.665 246.654 191.463 247.278L192.735 245.682C192.536 245.527 192.364 245.249 192.377 244.635L190.377 244.677ZM191.463 247.278C192.241 247.885 193.447 248.051 194.786 248.023L194.827 246.023C193.553 246.05 192.954 245.853 192.735 245.682L191.463 247.278ZM194.786 248.023C196.145 247.995 197.376 247.78 198.181 247.138L196.974 245.594C196.75 245.773 196.133 245.996 194.827 246.023L194.786 248.023ZM198.181 247.138C199.006 246.48 199.354 245.529 199.375 244.49L197.376 244.531C197.363 245.145 197.179 245.431 196.974 245.594L198.181 247.138ZM199.375 244.49C199.397 243.441 199.097 242.476 198.263 241.869L197.044 243.504C197.207 243.623 197.389 243.874 197.376 244.531L199.375 244.49ZM198.309 241.905C197.908 241.574 197.395 241.385 196.858 241.278C196.313 241.168 195.677 241.129 194.967 241.144L194.926 243.143C195.548 243.13 196.03 243.167 196.387 243.239C196.753 243.313 196.927 243.41 196.997 243.468L198.309 241.905ZM194.967 241.144C193.607 241.172 192.377 241.387 191.571 242.029L192.778 243.573C193.002 243.394 193.619 243.17 194.926 243.143L194.967 241.144ZM191.598 242.008C190.738 242.65 190.399 243.628 190.377 244.677L192.377 244.635C192.39 243.978 192.582 243.719 192.751 243.593L191.598 242.008Z" fill="black" mask="url(#path-5-outside-1_16_370)"/>
<defs>
<radialGradient id="paint0_radial_16_370" cx="0" cy="0" r="1" gradientUnits="userSpaceOnUse" gradientTransform="translate(174.191 142.586) rotate(-134.672) scale(36.7656 41.5088)">
<stop stop-color="#ECE7E2"/>
<stop offset="0.770833" stop-color="#F3F2F2"/>
</radialGradient>
<radialGradient id="paint1_radial_16_370" cx="0" cy="0" r="1" gradientUnits="userSpaceOnUse" gradientTransform="translate(171.082 136.866) rotate(45.5606) scale(19.6756 19.051)">
<stop offset="2.18516e-09" stop-color="#FFDC60"/>
<stop offset="1" stop-color="#F8B60C"/>
</radialGradient>
</defs>
</svg>
