<svg width="150" height="200" viewBox="0 0 150 200" fill="none" xmlns="http://www.w3.org/2000/svg">
<path d="M134.513 79.3879C134.513 120.848 110.502 152.656 78.6614 152.656C46.8202 152.656 13.2007 124.451 13.2007 82.9913C13.2007 41.5315 46.8202 1.91611 78.6614 1.91611C110.502 1.91611 134.513 37.9281 134.513 79.3879Z" fill="white"/>
<g style="mix-blend-mode:darken" opacity="0.42">
<path d="M133.986 71.1426C133.95 70.0376 133.782 69.1007 133.686 68.2719L133.097 64.7767L132.617 62.1222L131.872 58.7591L131.415 56.8373L130.983 54.4591L130.719 53.246L129.902 50.5915L128.809 47.4446L128.341 46.1354C127.944 45.0784 127.536 44.2256 127.164 43.541L125.758 41.0066L125.158 39.6614C124.629 38.5444 124.005 37.7156 123.596 37.1751L123.056 36.4784L122.479 35.1572L122.107 34.2324C121.554 32.8871 120.99 31.7701 120.485 30.7371L119.356 28.431L118.672 27.1818C118.672 27.1818 118.672 27.1818 118.672 27.1698L118.455 26.4491L117.963 25.1159C117.711 24.5514 117.422 24.143 117.23 23.8668L116.762 23.3143L116.534 22.7737L116.293 22.2933L115.837 21.5246C115.837 21.5246 115.897 21.4045 115.2 20.5877C114.9 20.2274 114.396 19.3266 112.438 19.1464C112.318 19.1464 112.21 19.1464 112.09 19.1464C111.981 18.9782 111.861 18.7981 111.729 18.6179L110.492 17.1525C109.747 16.2517 108.919 15.3388 107.874 14.402L106.048 12.7324C105.183 11.9037 104.234 11.0389 103.117 10.2701L102.276 9.66959L101.76 9.30927L101.003 8.80478L100.511 8.49252C100.415 8.42045 100.415 8.43245 100.427 8.44446L100.102 8.16819L99.4778 7.73581L98.8173 7.25537L97.5321 6.47462L95.4061 5.30958L94.7575 4.99727L94.6013 4.92521L94.3131 4.76906L93.7125 4.42073L93.0879 4.00033L92.091 3.35175C91.3703 2.87131 90.6016 2.30679 89.6047 1.7783L88.86 1.39393C88.3555 1.18974 87.779 1.0456 87.3106 0.973536L86.0974 0.925482H85.569C85.4969 0.925482 86.2776 0.31294 83.9715 1.17774C83.443 1.38193 81.8936 1.7903 81.4371 4.20453C81.281 5.00928 81.3651 5.42966 81.3891 5.6939L81.6173 6.6668C81.7855 7.13524 81.9536 8.02408 83.5151 8.86486C84.2718 9.27324 85.3407 9.35732 86.2656 9.20117L87.6109 10.078L88.6678 10.7626L89.3645 11.2311L90.4815 11.8796L90.7938 12.0478L91.3583 12.3241L91.7547 12.5042L93.4963 13.4531L94.3251 13.9455L94.7214 14.2458L95.1779 14.5581C95.1779 14.5581 95.1779 14.5581 95.2019 14.5821L95.8024 15.0386L96.6913 15.6151L97.2558 15.9995L97.6281 16.2517L98.553 16.9123C99.1055 17.2967 99.7661 17.8732 100.487 18.5579L102.469 20.3835C103.201 21.0562 103.682 21.5846 104.282 22.2933L105.255 23.4344L105.844 24.4673C106.817 26.2329 107.826 27.8785 108.762 29.3559L110.288 31.638L111.657 33.86L112.222 34.929L113.243 36.6466L114.336 38.8687C115.152 40.7064 116.053 42.0877 116.69 43.2047C117.134 43.9974 117.459 44.7782 117.867 45.7991L118.672 47.9251L119.452 50.1711L120.029 51.7086L120.293 52.4653C120.678 53.6664 120.93 54.9756 121.134 56.501L121.35 58.0625L121.662 60.9211L121.831 62.975L121.915 64.092L122.023 65.5214L122.299 68.4641L122.431 70.542L122.479 71.4669V74.2895L122.035 76.6557L121.807 78.4934L121.626 80.4032L121.542 82.1448L121.446 83.1777L121.278 84.4509L121.098 85.7001L120.798 87.0213L120.389 88.2825L119.765 90.3844L119.488 91.6816L119.248 92.7626L118.792 94.8045L118.107 96.5581L117.639 97.5671L117.218 98.4799L116.414 100.426L115.429 102.864L113.867 106.455L113.399 107.668L112.774 109.002L111.921 110.719L110.588 113.542L110.084 114.527L109.687 115.067L108.33 116.449C107.585 117.217 106.925 118.07 106.288 118.959L104.811 120.965L103.538 122.694L101.532 125.361L100.018 127.511L99.1776 128.34C98.3728 129.156 97.8443 129.877 97.3159 130.466L95.5742 132.315L94.1449 133.781L93.3282 134.597L92.6075 135.486L92.115 136.123L91.7667 136.603L91.6586 136.735L91.4904 136.988L91.3583 137.12L90.974 137.504L89.3885 139.102L87.803 140.831L87.4667 141.143L87.1785 141.36L86.6019 141.804L86.4097 141.96L86.0734 142.237C85.0885 143.065 84.548 143.834 84.1516 144.29L83.467 145.083L83.1667 145.467L82.8424 145.78C82.6983 145.912 82.8064 145.828 82.7463 145.876C82.5061 146.056 82.7824 145.852 82.6262 145.948L82.41 146.104C82.41 146.104 82.386 146.104 82.2419 146.188C82.1578 146.236 82.1578 146.236 82.1818 146.236L81.5813 146.524L80.7765 147.005L80.2841 147.341C80.2841 147.341 79.9237 147.377 79.2871 147.714C79.0709 147.81 78.6505 148.014 78.1461 148.518C77.9539 148.71 78.1941 148.158 77.4254 149.371C77.0771 149.936 76.5366 150.836 76.8248 152.41C77.2813 154.932 78.7587 155.209 79.2391 155.413L80.0078 155.653L80.4642 155.713H81.4371C83.7673 155.761 84.9564 154.944 86.2896 154.368L88.3675 153.431L89.6287 152.866C90.1692 152.638 91.01 152.398 92.139 151.881C93.8206 151.101 95.0457 149.96 96.0907 148.783L97.2798 147.341L97.7122 146.921C97.9885 146.669 98.2647 146.536 98.9854 146.272L100.559 145.636C101.292 145.299 102.216 144.819 103.177 144.086L104.354 143.101L105.279 142.309L106.348 141.468L108.054 140.171L108.414 139.846C108.414 139.846 108.498 139.858 108.546 139.87C108.678 139.894 108.811 139.918 108.943 139.942C109.063 139.954 109.183 139.966 109.315 139.966C109.447 139.966 109.579 139.966 109.711 139.966C109.735 139.966 109.759 139.966 109.771 139.966C109.795 139.966 109.819 139.966 109.843 139.966C109.88 139.966 109.904 139.966 109.94 139.966C109.988 139.966 110.024 139.942 110.06 139.942C110.144 139.93 110.24 139.918 110.312 139.906C111.453 139.69 111.993 139.21 112.318 138.801C112.63 138.525 112.858 138.273 113.014 138.033C113.147 137.913 113.327 137.744 113.603 137.456L114.612 136.315L116.546 133.841L117.206 132.892C117.987 132.123 118.744 131.174 119.464 130.009L120.678 127.859L121.122 126.934L122.215 125.253L123.152 123.98C123.536 123.439 123.969 122.79 124.305 121.902C124.677 120.905 124.773 120.136 124.857 119.656L125.182 118.454L125.59 116.749L125.962 115.091L126.167 114.106L126.659 112.137L127.14 110.779L128.413 107.452L129.506 104.209L130.503 100.366L130.959 98.1917L131.187 97.0386L131.439 95.8134L131.548 95.0808L132.052 93.147L132.677 90.3124L132.965 88.3185L133.085 87.3336L133.469 83.3339L133.818 80.3311L133.89 79.118L133.974 75.911V74.9261L134.034 71.9113V71.2026L133.986 71.1426ZM82.0737 3.08751C82.0257 3.17159 81.9656 3.25565 81.9176 3.33973C81.9656 3.25565 82.0137 3.17157 82.0377 3.11152L82.0737 3.07548V3.08751Z" fill="#3ED2FA" fill-opacity="0.5"/>
</g>
<g style="mix-blend-mode:darken" opacity="0.42">
<path d="M91.8982 116.989C91.7901 117.169 91.598 117.494 91.4418 118.022C91.2737 118.587 91.2376 119.043 91.2256 119.199V119.367C91.1776 119.704 91.1055 120.556 91.586 121.649C92.1865 122.983 94.4566 124.208 95.2854 124.328C95.1653 124.316 95.0091 124.292 95.1893 124.328C95.2133 124.328 95.5496 124.508 96.6066 124.484H97.5675C98.4803 124.484 98.9968 124.28 99.0449 124.268L99.2491 124.232L99.9457 124.064C100.318 123.968 100.726 123.835 101.243 123.559C101.351 123.499 102.18 123.175 102.912 122.154C102.936 122.118 103.537 121.529 103.789 120.196C104.029 118.887 103.309 116.713 102.132 115.812C101.327 115.199 100.39 114.887 99.4292 114.827H98.7446L98.7085 114.803C98.5764 114.743 98.4203 114.707 98.2761 114.671C98.168 114.635 98.0599 114.599 97.9398 114.575C97.7957 114.551 97.6516 114.539 97.5074 114.527C97.3873 114.527 97.2672 114.491 97.1471 114.491H97.015L96.2823 114.455H95.91C95.7058 114.479 96.1141 114.455 95.7418 114.455C95.2734 114.479 94.2284 114.635 93.2915 115.356C92.5829 115.908 92.0664 116.749 91.9223 117.001C91.9343 116.977 91.9463 116.965 91.9223 117.001L91.8982 116.989Z" fill="#3ED2FA" fill-opacity="0.5"/>
</g>
<path d="M82.6614 120.4V120.352L82.6254 120.112L82.5893 119.884V119.824L82.5533 119.728C82.5173 119.56 82.4572 119.403 82.3852 119.259L82.3251 119.151C82.241 119.007 82.1449 118.887 82.0248 118.779L81.8807 118.659C81.2921 118.19 80.4634 118.202 79.8748 118.659L79.7307 118.779C79.6106 118.887 79.5145 119.019 79.4304 119.151L79.3704 119.259C79.2863 119.403 79.2383 119.56 79.2022 119.728V119.788L79.1422 120.016L79.1181 120.256V120.28L79.0701 120.556L79.0461 120.725V120.917L78.95 122.094C78.926 122.574 78.7458 123.235 78.5176 124.016L78.3014 124.664L78.0611 125.073L78.0131 125.181L77.7849 125.397L77.4005 125.685L77.1723 125.829L76.4637 125.709L76.0433 125.565L75.8631 125.445C75.8631 125.445 75.8511 125.445 75.8631 125.457L75.6229 125.193L75.4788 125.013L75.2025 124.616L74.8662 124.112L74.65 123.799L74.5539 123.643L74.4578 123.307L74.3257 122.863L74.0494 121.469L73.9413 121.013L73.8212 120.388L73.605 119.475L73.4849 118.923C73.3648 118.43 73.0285 118.034 72.5601 117.842C71.7553 117.506 70.8305 117.89 70.4941 118.683C70.314 119.103 70.302 119.355 70.2539 119.812L70.29 120.977L70.314 121.529L70.386 122.094L70.5902 123.727L70.8425 124.664L70.9385 124.88L71.2629 125.673L71.7433 126.442L71.9355 126.706L72.4519 127.403L72.9204 127.907L73.3888 128.28L74.4458 128.88C75.0343 129.12 75.5989 129.18 76.0913 129.216C76.5357 129.216 77.1843 129.252 77.8089 129.048C78.5896 128.868 78.998 128.484 79.3103 128.256L79.9949 127.679L80.1991 127.451L80.6556 126.958L81.1961 126.25L81.8447 125.061C82.1329 124.352 82.5053 123.463 82.6614 122.238V120.64L82.6134 120.352L82.6614 120.4ZM75.9232 125.493C75.9232 125.493 75.9592 125.529 75.9472 125.517L75.9232 125.493Z" fill="black"/>
<path d="M103.236 117.145C103.176 116.977 103.08 116.821 102.972 116.677L102.756 116.448L102.504 116.244L102.239 116.088L102.107 116.028L101.975 115.968L101.855 115.92L101.579 115.812L101.291 115.656L100.918 115.452L100.75 115.331C100.39 115.043 100.005 114.707 99.3208 114.419L98.7563 114.214L98.4079 114.106L97.9275 113.83L97.5912 113.686L97.9755 113.338L98.456 112.809L98.6842 112.581L99.1766 112.04L99.3568 111.788L100.186 110.911L100.882 110.047L101.086 109.806C101.231 109.662 101.351 109.494 101.447 109.314C101.531 109.134 101.663 108.845 101.675 108.461C101.675 108.197 101.639 107.945 101.531 107.704C101.146 106.852 100.15 106.479 99.2968 106.864C99.1646 106.924 99.3688 106.828 99.2487 106.876C99.0566 106.948 98.8764 107.056 98.7202 107.188L98.2758 107.632L97.2549 108.833L96.7384 109.578L96.4021 110.059L96.1619 110.383L96.0658 110.503L95.3811 111.308L95.0328 111.776L94.8286 112.016L94.4683 112.425H94.4923L94.192 112.725L93.9278 113.025L94.0959 112.845C93.4834 113.422 93.3032 114.491 93.8437 115.476C94.2761 116.064 94.8647 116.316 95.237 116.436L95.5853 116.521L96.366 116.965L96.6904 117.133L97.7233 117.602L98.1077 117.734L98.6482 118.082L99.1526 118.418L100.198 118.839L100.354 118.863L100.702 118.971L100.774 118.995L100.846 119.019L101.062 119.103L101.291 119.163L101.507 119.211H101.579C101.759 119.247 101.951 119.247 102.131 119.211L102.239 119.187H102.276C103.08 118.959 103.549 118.142 103.333 117.337L103.272 117.145H103.236Z" fill="black"/>
<path d="M58.2433 110.371L57.847 109.722C57.3425 109.002 56.6699 108.629 55.769 108.293C55.3126 108.161 54.8922 108.113 54.2436 108.101L53.7031 108.173C53.3668 108.245 52.8623 108.377 52.4299 108.75C51.8654 109.182 51.433 109.638 51.0607 110.131C50.9165 110.359 50.6163 110.827 50.5082 111.596C50.5082 111.644 50.5082 111.692 50.5082 111.74C50.4961 111.824 50.4721 111.908 50.4601 111.992L50.4241 113.17C50.4241 113.266 50.4 113.566 50.5322 114.022C50.7844 114.947 51.4691 115.44 51.5051 115.476L52.0576 115.98L52.7422 116.353C53.3068 116.569 53.7992 116.557 53.7391 116.545C54.7 116.701 55.709 116.713 56.6819 116.136L57.5947 115.356L57.883 114.971L58.2313 114.383C58.5796 113.722 58.6277 113.11 58.6517 112.665C58.6877 112.437 58.8079 111.944 58.6517 111.236C58.5076 110.539 58.1713 110.287 58.2313 110.371H58.2433Z" fill="black"/>
<path d="M136.159 70.8784C136.051 68.9206 135.486 67.0348 134.97 65.2091L133.673 60.0803L133.096 57.4139L132.82 56.2008L132.664 55.4441C132.664 55.4441 132.664 55.4801 132.664 55.4681L132.628 55.2759L132.484 54.6753L132.195 53.7024L130.442 48.4896L129.301 44.5019C129.049 43.493 128.796 42.436 128.412 41.4511L127.523 39.7695L126.718 37.9799L126.178 36.7667L125.685 35.6978L125.349 34.9531L124.004 31.9142L123.295 30.557L122.346 28.8754L121.65 27.7704L121.253 27.1819L120.941 26.7134L119.788 25.4282L119.031 24.5394L117.974 23.1701L117.422 22.5576L117.242 22.2933L116.401 21.2123L115.788 20.5037L115.02 19.5308L114.347 18.6299L113.602 17.6931L113.014 16.9844C112.401 16.1796 111.873 15.459 111.176 14.7263L110.696 14.2218C110.263 13.7894 109.831 13.4171 109.278 13.0688L107.693 12.1079L107.128 11.6755L105.675 10.6185L105.134 10.2101L104.69 9.87381L104.185 9.48944L103.681 9.009L103.189 8.52857C102.612 8.03611 101.867 7.6157 101.147 7.26737C99.8014 6.61877 98.1799 5.9702 96.4503 5.45372L95.2492 5.08138C94.5165 4.87719 94.1201 4.67298 93.4715 4.38471L92.4386 3.98836L92.0302 3.76014C90.2405 2.69115 87.9464 2.07859 85.5442 1.88641C83.3462 1.71825 81.1842 1.83834 79.0702 1.82633C78.1694 1.82633 77.1484 1.85036 76.1395 1.94645L74.0616 2.23471H74.0135C73.8333 2.05454 73.5451 1.97047 73.2928 2.09058C73.1847 2.13862 72.8004 2.05454 71.9836 1.8984C70.8786 1.83834 70.0738 2.09058 69.4012 2.2107C68.3082 2.43891 67.1311 2.47494 65.8579 2.6551L63.8761 3.13554L62.7711 3.51991C61.7741 3.89225 60.9214 4.39671 60.0325 4.90118L58.5552 5.754L56.3451 7.12325L54.6035 8.38444L53.9309 8.90091L52.7418 9.74166L50.6158 11.3031L49.751 12.0118L49.1985 12.4802L48.4898 13.0808L47.4809 14.0056L46.9644 14.4861L45.475 15.6752C44.1298 16.7682 42.8926 18.0053 41.8237 19.2064C40.8027 20.3595 39.4094 21.7168 38.3885 22.7137L36.7309 24.2511L35.3496 25.6204L34.8332 26.2209L34.1606 27.0857L33.3078 28.5271C32.6592 29.6201 31.6262 31.0134 30.4972 32.6589L28.7796 35.1813C27.7586 36.8148 26.8818 38.5204 26.065 40.0578C25.5606 40.9706 24.5997 42.424 23.5547 43.9254C22.9782 44.7662 22.5098 45.5589 22.1494 46.3516C21.2966 48.1533 20.7922 49.3904 19.9634 50.6756L18.7142 52.7175C17.9816 54.0628 17.4531 55.5521 17.0927 57.2697C16.6723 59.2035 16.4441 60.8371 15.7955 62.1703C15.183 63.4555 14.7025 64.6085 14.4623 65.8217C14.138 67.4912 13.4413 69.2208 12.9969 71.1906C12.7207 72.4398 12.3003 74.0853 12.2162 75.7429L12 79.2982V82.0487L12.0841 83.5141C12.2162 85.4839 11.964 87.4778 12.2763 89.7239C12.4684 91.0451 12.5765 92.5224 12.8528 94.0599L13.105 95.5973L13.2372 96.33C13.4173 97.387 13.6575 99.0084 14.0179 100.438C14.4743 102.287 14.9668 104.113 15.5433 105.987C15.8676 106.996 16.276 107.933 16.7324 108.761L17.2489 109.674C17.4651 110.071 17.6572 110.587 17.8374 111.212C18.51 113.59 19.7592 115.836 20.5159 117.89C21.1525 119.62 22.0533 121.049 22.9421 122.382L24.3234 124.232L25.1522 125.325L25.6446 125.949L26.1491 126.526L26.3653 126.838L27.6986 128.352L28.5033 129.204C29.1639 129.889 30.1368 131.126 30.9055 132.147L32.455 134.117L33.1756 134.922L33.4879 135.282L34.2566 136.123L35.2776 137.012L36.6829 137.985L37.5837 138.681L38.5446 139.534L39.5175 140.471L40.01 140.915L41.0309 141.804L41.9798 142.669C42.8086 143.486 43.5893 144.122 44.2739 144.603L45.2709 145.251L46.5801 146.032C47.4449 146.452 48.0815 146.549 48.3217 146.645L50.1233 147.774L50.9521 148.362L52.0211 149.011L53.6186 149.864L54.4834 150.308L55.5284 150.813L56.7775 151.557C58.1948 152.386 59.9365 153.083 61.8222 153.119L63.9362 153.275L67.7317 153.575C68.4283 153.635 69.6294 153.995 71.0588 154.128L72.7163 154.236L73.6532 154.308L74.4219 154.38L75.0945 154.428L75.7671 154.452H77.9772L78.2054 154.428C78.3015 154.428 78.3976 154.416 78.4816 154.392L78.8179 154.308C78.8179 154.308 78.914 154.26 78.9741 154.248C79.3344 154.212 79.6347 154.152 79.899 154.128H81.6165C83.3221 154.14 84.8355 153.947 86.3009 153.935C87.2738 153.935 88.1626 153.755 88.9553 153.539C90.4327 153.107 91.838 152.65 93.2313 152.038L97.3751 150.488L99.3089 149.756L100.678 149.203L101.423 148.843C102.612 148.218 103.381 147.618 103.777 147.425L106.78 145.72L107.921 145.035C108.654 144.615 109.062 144.387 109.518 144.026L110.72 142.981L111.38 142.429L111.909 141.984L112.629 141.42H112.641L113.11 141.035L114.539 139.702L115.428 138.765L115.956 138.249L116.881 137.312L117.854 136.279L118.647 135.414L119.295 134.73L119.86 134.021L121.818 131.439L122.839 129.961C123.247 129.361 123.752 128.604 124.268 127.571L125.721 124.58L126.778 122.274L127.931 119.68C128.592 118.166 129.037 116.701 129.457 115.308L130.334 112.317L130.742 110.887L131.271 109.302L132.171 106.612C132.544 105.543 132.904 104.834 133.084 103.753C133.445 101.447 133.541 99.5249 133.805 97.5551L134.466 94.276L134.862 91.9099L135.078 90.7568C135.318 89.4356 135.33 88.0903 135.39 86.8171C135.414 86.7571 135.462 86.697 135.474 86.649C135.655 86.1925 135.715 85.7722 135.787 85.1836C135.835 82.6012 135.787 80.2831 135.979 77.8809L136.123 73.9532L136.159 71.9954V70.8423V70.8784ZM132.688 83.382L132.616 84.1386L132.58 84.7032L132.448 85.6521C132.28 87.3096 132.292 88.9791 132.039 90.1923L131.799 91.3213L131.295 93.7476L130.706 97.0747C130.358 99.2247 130.202 101.086 129.805 103.236C129.709 103.813 129.445 104.341 129.024 105.555L128.112 108.257L127.523 109.975L127.151 111.416L126.214 114.407C125.805 115.776 125.421 117.109 124.869 118.406L123.824 120.929L122.671 123.223L121.301 126.13C120.869 126.982 120.485 127.559 120.076 128.171L119.163 129.493L117.278 131.931L116.701 132.58L116.149 133.168L115.428 133.961L114.395 135.138L113.614 135.979L113.002 136.603L112.149 137.492L110.984 138.573L110.707 138.801C110.635 138.849 110.828 138.729 110.659 138.837C110.647 138.837 110.635 138.861 110.623 138.873C110.611 138.873 110.587 138.885 110.575 138.897L109.819 139.498L109.23 139.978L108.594 140.531L107.404 141.504L106.251 142.2L104.978 142.957L102.228 144.603C101.411 145.059 100.834 145.588 99.9335 146.092L99.2849 146.404L98.0718 146.981L96.3182 147.786L92.2104 149.539C90.8892 150.068 89.604 150.452 88.1386 150.849C87.502 151.029 86.8774 151.161 86.3009 151.161C84.6193 151.149 83.1059 151.329 81.5805 151.293C80.8358 151.305 80.0551 151.305 79.1903 151.545C79.0101 151.617 78.854 151.677 78.7219 151.737C78.7098 151.737 78.6858 151.725 78.6738 151.725L78.3615 151.677C78.2654 151.665 78.1693 151.653 78.0853 151.665H77.8571L77.5448 151.689H76.3557L75.8392 151.665L75.2146 151.629L74.59 151.605L73.9174 151.569L73.0166 151.485L71.335 151.269C70.3141 151.161 69.2091 150.776 68.02 150.644L64.2845 150.296L61.9303 150.056C60.8013 150.008 59.5161 149.491 58.4591 148.831L57.1138 148.014L55.9488 147.401L55.192 147.005L53.6546 146.152L52.8259 145.672L51.9851 145.095C51.2044 144.567 50.4837 144.002 49.5588 143.618L48.0334 143.125L47.0005 142.513L46.2197 142.02C45.6552 141.6 45.0426 141.083 44.358 140.375L43.1329 139.258L42.2801 138.537L41.7876 138.069L40.7667 137.144L39.7217 136.255L38.6167 135.462L37.2114 134.441L36.5628 133.865L35.8902 133.192L35.5178 132.796L34.8812 132.111L33.4399 130.309C32.6231 129.228 31.6382 127.955 30.7614 127.066L30.0768 126.358L28.8756 125.001L28.5033 124.508L28.0949 124.064L27.6145 123.451L26.8218 122.406L25.5366 120.665C24.6838 119.415 23.9271 118.214 23.4106 116.857C22.5338 114.551 21.3206 112.341 20.7681 110.431C20.5519 109.674 20.2997 108.954 19.9274 108.269L19.4109 107.344C19.0506 106.672 18.7142 105.915 18.45 105.086C17.8735 103.32 17.393 101.555 16.9366 99.7531C16.6363 98.54 16.4201 96.9666 16.2279 95.8375L16.0958 95.1409L15.8316 93.5554C15.5793 92.2101 15.4592 90.7688 15.243 89.3275C14.9668 87.5498 15.1589 85.616 14.9788 83.3459L14.8827 82.0247V79.4183L14.9908 75.923C15.0388 74.6138 15.3872 73.0764 15.6394 71.8152C15.9997 70.0976 16.6723 68.332 17.0207 66.3622C17.1768 65.4734 17.5371 64.5245 18.1017 63.3113C18.9184 61.5097 19.0986 59.672 19.4589 57.8463C19.7832 56.3089 20.2156 55.0717 20.8162 53.9306L21.9572 52.0689C22.9301 50.5796 23.4947 49.2103 24.3114 47.4686C24.6357 46.808 25.0321 46.1474 25.5606 45.3907C26.6176 43.8653 27.6025 42.4 28.191 41.319C29.0678 39.7695 29.9446 38.112 30.9175 36.5986L32.5991 34.1723C33.7041 32.5629 34.7491 31.1575 35.4938 29.9084L36.3105 28.6352L36.839 27.9746L37.2955 27.4581L38.5086 26.293L40.2382 24.6955C41.2832 23.6866 42.6885 22.3053 43.8175 21.0322C44.7904 19.9151 45.9315 18.762 47.1326 17.7771L48.706 16.4799L49.2706 15.9274L50.1834 15.1227L50.856 14.5461L51.4085 14.0897L52.2373 13.4291L54.2432 12.0118L55.5404 11.147L56.1649 10.6785L57.8705 9.51349L59.9605 8.19226L61.4018 7.35146C62.2906 6.83498 63.0233 6.40257 63.72 6.13832L64.7049 5.80201L66.3624 5.34562C66.6987 5.27356 67.0711 5.20147 67.4434 5.14142C67.1311 5.42968 66.8308 5.74197 66.5426 6.04225C65.93 6.70286 65.3414 7.20732 64.6448 7.79587C63.9722 8.3724 63.0954 9.14112 62.2906 9.9819C61.5219 10.7866 60.9934 11.5434 60.501 12.1679C60.0325 12.7685 59.0837 13.6213 58.0627 14.438C57.2099 15.1347 56.5974 15.6512 56.1529 16.1316C55.9007 16.3958 55.6365 16.6961 55.3962 17.1766C55.2761 17.4408 55.0239 18.0173 55.2641 18.678C55.4563 19.3025 55.7926 19.4947 55.8887 19.5788L56.6574 20.3355C57.1138 20.7679 57.9426 21.5126 58.9275 22.2213C59.9124 22.9299 60.9094 23.4944 61.8582 23.9629L63.1074 24.5394C64.0322 25.0078 64.7049 25.6444 65.5577 26.1489C66.0741 26.4732 66.4465 26.7134 66.8789 27.1338L67.9479 28.1067C69.0048 28.8994 70.1339 29.1036 70.9386 29.3078L71.8155 29.5841C72.4761 29.8003 73.2568 30.0885 73.9534 30.4729C74.9023 31.0134 75.683 31.5779 76.74 31.9863L78.9621 32.6469C79.4425 32.767 79.6948 32.8992 80.0311 33.1033L80.9439 33.5477L81.4244 33.7279L82.097 33.9081L82.9738 34.4486C82.3853 35.1813 81.4364 36.022 80.5596 37.031L78.842 38.9888L78.0372 39.9377L77.4006 40.5262L76.4638 41.331L75.3828 42.412L74.4099 43.6731L73.2328 45.2346L71.8755 46.8921L70.4702 48.5377L69.9537 49.0421L69.2811 49.6427L68.6685 50.3393L67.8878 51.3242L67.3954 51.9728L66.9509 52.6695C66.8068 52.9337 66.5546 53.258 66.6387 54.0027C66.7347 54.8315 67.5035 55.36 67.7557 55.4441C69.125 56.0686 70.4702 55.9365 71.6593 56.3329C72.2238 56.513 72.8124 56.8133 73.3048 57.1136L74.2057 57.7982L74.8663 58.3147L75.2026 58.5429L75.7311 58.8912L76.5839 59.4678L77.0403 59.7681C77.8811 60.2245 78.5537 60.2485 78.4816 60.2125L78.8179 60.4407L79.0221 60.5848C79.0101 60.9211 78.902 61.2574 78.7579 61.894L78.6498 62.4706L78.4936 63.3113L77.785 65.4373L76.7881 67.7314L75.3467 70.4219L74.6621 72.1756L74.2297 73.1245L73.3769 74.5177L72.2479 76.4515L71.9476 77.1362L71.7794 77.5325L71.6233 78.3613C71.6233 79.2141 72.2599 80.139 72.6803 80.4513L72.8004 80.5593L73.2448 80.8957C74.3258 81.5443 75.575 82.0607 76.6319 82.6373C77.0283 82.8414 77.4487 83.2138 77.6048 83.466V83.5501L77.4367 83.8744L77.1484 84.5831C76.8962 85.3638 76.7881 86.1445 76.6439 86.7451L76.4638 87.3456L75.9233 89.1233C75.7191 89.7359 75.5029 90.4565 75.3587 91.2733L75.2867 92.5705V93.3752L75.1786 93.8196C75.0585 94.264 74.8182 94.8286 74.6621 95.5612L74.4819 96.9185L74.506 97.5191L74.4819 97.7473L74.4099 97.9995L74.3258 98.7322L74.2777 98.9844L74.2417 99.2246C74.2297 99.3327 74.2297 99.4528 74.2417 99.5609L74.2897 99.8973C74.2897 99.9814 74.3138 100.065 74.3498 100.137L74.4699 100.474L74.4939 100.678V100.846C74.4699 100.966 74.4939 101.086 74.518 101.206V101.231C74.554 101.399 74.6261 101.567 74.7342 101.711C75.1065 102.179 75.7791 102.251 76.2356 101.891L76.3917 101.759C76.4758 101.675 76.5599 101.579 76.6079 101.459L76.74 101.146V101.122L76.8361 100.846L76.8721 100.678L77.0403 100.077C77.0643 99.9934 77.0763 99.9093 77.0883 99.8372L77.1124 99.5609C77.1244 99.4528 77.1124 99.3327 77.1124 99.2246V99.0685L77.0763 99.1646L77.1364 98.7082L77.2925 98.0355V97.6272L77.3526 97.0506L77.4727 96.1738L78.0012 94.6004L78.1573 94.0118L78.2895 93.087V92.6545L78.3976 91.6937L78.7939 90.0361L79.4545 88.1384L79.6707 87.4417L80.1272 85.4719L80.1872 85.2557L80.3794 84.8713C80.6436 84.4389 80.6917 84.0065 80.7157 83.8864C80.7998 83.2258 80.7397 82.6012 80.3914 81.9046C79.8749 80.9197 79.0582 80.235 78.1573 79.7306L74.8062 78.1331H74.7702L74.9264 77.8568L76.0073 76.0191L76.8962 74.5057L77.4607 73.1605L78.0372 71.635L79.3224 68.9566L80.4995 66.4583C80.8238 65.6055 81.1121 64.7286 81.2802 63.9479L81.4724 62.8909L81.5325 62.4225C81.6526 61.7499 81.8808 60.9211 81.7006 59.9122C81.5805 59.0234 80.8839 58.567 80.8358 58.5309L80.4034 58.1466L79.8629 57.7982C79.2624 57.4139 78.9621 57.3658 78.7219 57.1856L78.5537 57.0295L77.6649 56.3089L77.1965 55.9125L76.9322 55.6602L76.3316 55.1077L75.0705 54.291C74.3858 53.8826 73.5931 53.4862 72.6923 53.21C72.0557 53.0178 71.4311 52.8857 70.8786 52.8016L71.1909 52.4172L71.6593 51.8888L72.2839 51.2882L72.8965 50.5675L74.3378 48.6938L75.5629 46.9882L76.7641 45.2826L77.5448 44.1896L78.3615 43.2768L79.1783 42.5801L80.0911 41.7033L80.9439 40.5863L82.4813 38.6885C83.4182 37.5955 84.7635 36.5745 85.5082 35.1933C85.7123 34.881 85.9045 34.4726 85.8445 33.9681C85.7964 33.4397 85.5442 33.1394 85.376 32.9112C85.0397 32.5268 84.7394 32.3706 84.5833 32.2625C84.307 32.0463 83.8867 31.65 83.2741 31.3737L82.4453 31.0134L82.1931 30.8813L81.6766 30.593C81.2322 30.2927 80.6316 29.9444 79.8029 29.6922L77.773 29.1397C77.1724 28.9475 76.4397 28.5031 75.3587 27.9506C74.4099 27.4701 73.461 27.1458 72.6562 26.9296L71.6233 26.6774C70.7345 26.4852 70.0498 26.3651 69.5093 25.9927L68.6805 25.3081C68.056 24.7316 67.4794 24.3472 66.9149 24.0229C66.3624 23.6746 65.5697 22.9299 64.3325 22.2813L62.9993 21.6567C62.1345 21.2604 61.2457 20.7919 60.4049 20.2154C59.5401 19.6148 58.7714 18.9422 58.339 18.5699L57.8465 18.1014L58.0026 17.9213L59.7563 16.492C60.8373 15.6272 61.8943 14.7263 62.6389 13.7774C63.1554 13.1048 63.6119 12.4442 64.2364 11.7716L66.3744 9.70563C67.0711 9.06904 67.7197 8.44449 68.3923 7.66376C68.8847 7.08723 69.4733 6.48665 69.9537 6.10229L70.6264 5.48975C71.287 5.42969 71.8395 5.42969 72.3319 5.48975L73.3289 5.52578H73.7973L74.2537 5.47773L74.7702 5.39364L76.4758 5.08138L79.1062 4.96126C81.3163 4.96126 83.4062 4.82913 85.364 4.96126C87.3819 5.09338 89.2917 5.62187 90.5528 6.35455L91.2975 6.76293L92.2824 7.14729C92.895 7.43556 93.5196 7.73584 94.4685 8.01209L95.6215 8.36039C97.207 8.84084 98.6964 9.4294 99.8615 9.99393L101.279 10.8948L101.639 11.219L102.204 11.7355L102.948 12.3601L103.345 12.6604L103.897 13.0808L105.278 14.0897L105.963 14.6422C106.66 15.1467 107.284 15.459 107.729 15.7352L108.594 16.4199L109.002 16.8162C109.566 17.4288 109.987 18.0174 110.599 18.8461L111.248 19.6268L111.933 20.5157L112.533 21.3444L113.398 22.5816L113.927 23.2182L114.719 24.1911L115.007 24.5995L115.56 25.2841L116.545 26.5453L117.386 27.5902L118.299 28.6952L118.539 29.0556L118.983 29.7162L119.512 30.545L120.328 32.1184L120.989 33.4517L122.25 36.3583L122.563 37.043L123.103 38.3162L123.547 39.3491L124.484 41.343L125.229 42.8564C125.481 43.4209 125.757 44.3938 126.034 45.3787C126.442 46.8561 126.863 48.3575 127.295 49.5706L128.916 54.7714L129.145 55.5642L129.277 56.2608L129.409 56.9214L129.709 58.2547L130.298 60.789C130.646 62.6027 131.066 64.2722 131.523 66.1219C131.955 67.9837 132.352 69.6893 132.364 71.0825V72.0915L132.4 74.0493L132.544 77.8568C132.568 79.4063 132.688 80.8956 132.82 82.409L132.784 82.9255L132.748 83.406L132.688 83.382Z" fill="black"/>
<mask id="path-8-outside-1_14_358" maskUnits="userSpaceOnUse" x="0" y="166.715" width="150" height="34" fill="black">
<rect fill="white" y="166.715" width="150" height="34"/>
<path d="M5.36 198.715C3.97333 198.715 2.94667 198.302 2.28 197.475C1.61333 196.648 1.28 195.542 1.28 194.155V175.515C1.28 173.488 1.82667 171.995 2.92 171.035C4.04 170.075 5.37333 169.595 6.92 169.595C8.38667 169.595 9.62667 170.075 10.64 171.035C11.68 171.995 12.44 173.515 12.92 175.595L16.04 189.155H17.08L20.2 175.595C20.68 173.515 21.44 171.995 22.48 171.035C23.5467 170.075 24.8133 169.595 26.28 169.595C27.8267 169.595 29.1467 170.075 30.24 171.035C31.36 171.995 31.92 173.488 31.92 175.515V194.155C31.92 195.542 31.5733 196.648 30.88 197.475C30.2133 198.302 29.1867 198.715 27.8 198.715C26.4667 198.715 25.44 198.302 24.72 197.475C24 196.648 23.64 195.542 23.64 194.155V183.395C23.64 183.128 23.6 182.888 23.52 182.675C23.4667 182.435 23.2933 182.315 23 182.315C22.76 182.315 22.5867 182.435 22.48 182.675C22.3733 182.888 22.2933 183.128 22.24 183.395L20.72 193.475C20.5333 194.568 20.3067 195.515 20.04 196.315C19.8 197.088 19.4133 197.688 18.88 198.115C18.3467 198.515 17.5733 198.715 16.56 198.715C15.5733 198.715 14.8 198.515 14.24 198.115C13.7067 197.688 13.3067 197.088 13.04 196.315C12.8 195.515 12.6 194.568 12.44 193.475L10.88 183.395C10.8533 183.128 10.7867 182.888 10.68 182.675C10.5733 182.435 10.3867 182.315 10.12 182.315C9.85333 182.315 9.68 182.435 9.6 182.675C9.52 182.888 9.48 183.128 9.48 183.395V194.155C9.48 195.542 9.12 196.648 8.4 197.475C7.70667 198.302 6.69333 198.715 5.36 198.715ZM35.7231 188.315C35.7231 186.208 36.1365 184.355 36.9631 182.755C37.8165 181.155 39.0165 179.902 40.5631 178.995C42.1365 178.088 44.0031 177.635 46.1631 177.635C47.8431 177.635 49.3498 177.942 50.6831 178.555C52.0431 179.168 53.1098 179.995 53.8831 181.035C54.6565 182.048 55.0431 183.168 55.0431 184.395C55.0431 185.675 54.6698 186.582 53.9231 187.115C53.1765 187.648 52.0698 187.915 50.6031 187.915H42.2031C42.2031 188.608 42.4698 189.182 43.0031 189.635C43.5631 190.088 44.4965 190.315 45.8031 190.315C46.4698 190.315 47.0831 190.248 47.6431 190.115C48.2298 189.982 48.8165 189.862 49.4031 189.755C50.0165 189.622 50.6965 189.555 51.4431 189.555C52.5098 189.555 53.3898 189.942 54.0831 190.715C54.7765 191.462 55.1231 192.502 55.1231 193.835C55.1231 195.408 54.3098 196.635 52.6831 197.515C51.0831 198.395 48.9765 198.835 46.3631 198.835C44.5231 198.835 42.7898 198.475 41.1631 197.755C39.5631 197.035 38.2565 195.902 37.2431 194.355C36.2298 192.782 35.7231 190.768 35.7231 188.315ZM48.6831 186.595C49.0831 186.595 49.2165 186.408 49.0831 186.035C48.9765 185.662 48.6565 185.275 48.1231 184.875C47.5898 184.475 46.8165 184.275 45.8031 184.275C44.6298 184.275 43.7498 184.528 43.1631 185.035C42.6031 185.542 42.3231 186.062 42.3231 186.595H48.6831ZM65.6578 198.715C60.8045 198.715 58.3778 195.142 58.3778 187.995C58.3778 184.902 58.9778 182.435 60.1778 180.595C61.3778 178.728 63.1778 177.795 65.5778 177.795C66.8845 177.795 67.9378 178.062 68.7378 178.595C69.5645 179.128 70.2045 179.862 70.6578 180.795C71.1378 181.702 71.4845 182.755 71.6978 183.955L71.8178 183.915V171.795C71.8178 170.702 72.1378 169.782 72.7778 169.035C73.4445 168.262 74.4045 167.875 75.6578 167.875C76.8845 167.875 77.7911 168.262 78.3778 169.035C78.9911 169.782 79.2978 170.728 79.2978 171.875V189.875C79.2978 190.782 79.3645 191.622 79.4978 192.395C79.6578 193.142 79.7778 193.888 79.8578 194.635C79.9378 195.648 79.7245 196.528 79.2178 197.275C78.7378 197.995 77.8711 198.462 76.6178 198.675C74.9911 198.942 73.7778 198.662 72.9778 197.835C72.2045 197.008 71.8178 195.782 71.8178 194.155V192.675H71.0578C71.0578 194.622 70.5645 196.115 69.5778 197.155C68.6178 198.195 67.3111 198.715 65.6578 198.715ZM65.0578 187.635C65.0578 188.462 65.3111 189.075 65.8178 189.475C66.3245 189.875 67.2311 190.075 68.5378 190.075C69.8711 190.075 70.7911 189.875 71.2978 189.475C71.8045 189.075 72.0578 188.462 72.0578 187.635C72.0578 186.782 71.8045 186.168 71.2978 185.795C70.8178 185.395 69.9111 185.195 68.5778 185.195C67.2445 185.195 66.3245 185.395 65.8178 185.795C65.3111 186.168 65.0578 186.782 65.0578 187.635ZM83.22 173.155C83.22 172.008 83.5667 171.088 84.26 170.395C84.98 169.675 85.9667 169.315 87.22 169.315C88.5533 169.315 89.54 169.662 90.18 170.355C90.8467 171.048 91.18 171.968 91.18 173.115C91.18 174.235 90.8467 175.142 90.18 175.835C89.54 176.502 88.5533 176.835 87.22 176.835C85.9133 176.835 84.9133 176.502 84.22 175.835C83.5533 175.142 83.22 174.248 83.22 173.155ZM87.22 198.715C85.9667 198.715 85.0333 198.368 84.42 197.675C83.8067 196.982 83.5 196.115 83.5 195.075V181.395C83.5 180.248 83.8067 179.342 84.42 178.675C85.0333 178.008 85.9667 177.675 87.22 177.675C88.4733 177.675 89.4067 178.008 90.02 178.675C90.66 179.342 90.98 180.222 90.98 181.315V195.075C90.98 196.115 90.6467 196.982 89.98 197.675C89.34 198.368 88.42 198.715 87.22 198.715ZM101.185 198.715C99.318 198.715 97.798 198.008 96.6247 196.595C95.4514 195.182 94.8514 193.195 94.8247 190.635L94.7847 181.395C94.7847 180.248 95.1314 179.355 95.8247 178.715C96.5447 178.048 97.518 177.715 98.7447 177.715C99.918 177.715 100.865 178.048 101.585 178.715C102.305 179.355 102.665 180.248 102.665 181.395V189.755C102.665 191.755 103.451 192.755 105.025 192.755C105.798 192.755 106.318 192.475 106.585 191.915C106.851 191.328 106.985 190.582 106.985 189.675V181.395C106.985 180.355 107.345 179.488 108.065 178.795C108.785 178.075 109.718 177.715 110.865 177.715C112.065 177.715 112.985 178.075 113.625 178.795C114.291 179.488 114.625 180.355 114.625 181.395V194.515C114.625 195.795 114.331 196.822 113.745 197.595C113.185 198.342 112.265 198.715 110.985 198.715C109.731 198.715 108.745 198.342 108.025 197.595C107.331 196.822 106.985 195.795 106.985 194.515V193.835H106.265C106.265 195.382 105.798 196.582 104.865 197.435C103.958 198.288 102.731 198.715 101.185 198.715ZM122.059 198.715C120.859 198.715 119.899 198.368 119.179 197.675C118.485 196.955 118.139 196.075 118.139 195.035V181.795C118.139 180.675 118.472 179.728 119.139 178.955C119.832 178.182 120.805 177.795 122.059 177.795C123.285 177.795 124.205 178.182 124.819 178.955C125.432 179.728 125.739 180.702 125.739 181.875V183.875H126.459C126.459 181.608 126.939 180.035 127.899 179.155C128.859 178.248 130.045 177.795 131.459 177.795C133.272 177.795 134.605 178.355 135.459 179.475C136.312 180.595 136.739 182.062 136.739 183.875H137.459C137.459 182.355 137.712 181.155 138.219 180.275C138.725 179.395 139.365 178.768 140.139 178.395C140.939 177.995 141.765 177.795 142.619 177.795C144.352 177.795 145.619 178.208 146.419 179.035C147.245 179.862 147.779 180.968 148.019 182.355C148.259 183.742 148.379 185.302 148.379 187.035V195.035C148.379 196.075 148.019 196.955 147.299 197.675C146.605 198.368 145.672 198.715 144.499 198.715C143.325 198.715 142.379 198.368 141.659 197.675C140.939 196.955 140.579 196.075 140.579 195.035V187.955C140.579 186.995 140.459 186.248 140.219 185.715C139.979 185.182 139.499 184.915 138.779 184.915C138.005 184.915 137.499 185.208 137.259 185.795C137.045 186.382 136.939 187.128 136.939 188.035V195.035C136.939 196.075 136.605 196.955 135.939 197.675C135.272 198.368 134.352 198.715 133.179 198.715C131.979 198.715 131.019 198.368 130.299 197.675C129.605 196.955 129.259 196.075 129.259 195.035V187.955C129.259 186.995 129.139 186.248 128.899 185.715C128.659 185.182 128.192 184.915 127.499 184.915C126.725 184.915 126.232 185.208 126.019 185.795C125.832 186.382 125.739 187.128 125.739 188.035V195.035C125.739 196.075 125.419 196.955 124.779 197.675C124.139 198.368 123.232 198.715 122.059 198.715Z"/>
</mask>
<path d="M5.36 198.715C3.97333 198.715 2.94667 198.302 2.28 197.475C1.61333 196.648 1.28 195.542 1.28 194.155V175.515C1.28 173.488 1.82667 171.995 2.92 171.035C4.04 170.075 5.37333 169.595 6.92 169.595C8.38667 169.595 9.62667 170.075 10.64 171.035C11.68 171.995 12.44 173.515 12.92 175.595L16.04 189.155H17.08L20.2 175.595C20.68 173.515 21.44 171.995 22.48 171.035C23.5467 170.075 24.8133 169.595 26.28 169.595C27.8267 169.595 29.1467 170.075 30.24 171.035C31.36 171.995 31.92 173.488 31.92 175.515V194.155C31.92 195.542 31.5733 196.648 30.88 197.475C30.2133 198.302 29.1867 198.715 27.8 198.715C26.4667 198.715 25.44 198.302 24.72 197.475C24 196.648 23.64 195.542 23.64 194.155V183.395C23.64 183.128 23.6 182.888 23.52 182.675C23.4667 182.435 23.2933 182.315 23 182.315C22.76 182.315 22.5867 182.435 22.48 182.675C22.3733 182.888 22.2933 183.128 22.24 183.395L20.72 193.475C20.5333 194.568 20.3067 195.515 20.04 196.315C19.8 197.088 19.4133 197.688 18.88 198.115C18.3467 198.515 17.5733 198.715 16.56 198.715C15.5733 198.715 14.8 198.515 14.24 198.115C13.7067 197.688 13.3067 197.088 13.04 196.315C12.8 195.515 12.6 194.568 12.44 193.475L10.88 183.395C10.8533 183.128 10.7867 182.888 10.68 182.675C10.5733 182.435 10.3867 182.315 10.12 182.315C9.85333 182.315 9.68 182.435 9.6 182.675C9.52 182.888 9.48 183.128 9.48 183.395V194.155C9.48 195.542 9.12 196.648 8.4 197.475C7.70667 198.302 6.69333 198.715 5.36 198.715ZM35.7231 188.315C35.7231 186.208 36.1365 184.355 36.9631 182.755C37.8165 181.155 39.0165 179.902 40.5631 178.995C42.1365 178.088 44.0031 177.635 46.1631 177.635C47.8431 177.635 49.3498 177.942 50.6831 178.555C52.0431 179.168 53.1098 179.995 53.8831 181.035C54.6565 182.048 55.0431 183.168 55.0431 184.395C55.0431 185.675 54.6698 186.582 53.9231 187.115C53.1765 187.648 52.0698 187.915 50.6031 187.915H42.2031C42.2031 188.608 42.4698 189.182 43.0031 189.635C43.5631 190.088 44.4965 190.315 45.8031 190.315C46.4698 190.315 47.0831 190.248 47.6431 190.115C48.2298 189.982 48.8165 189.862 49.4031 189.755C50.0165 189.622 50.6965 189.555 51.4431 189.555C52.5098 189.555 53.3898 189.942 54.0831 190.715C54.7765 191.462 55.1231 192.502 55.1231 193.835C55.1231 195.408 54.3098 196.635 52.6831 197.515C51.0831 198.395 48.9765 198.835 46.3631 198.835C44.5231 198.835 42.7898 198.475 41.1631 197.755C39.5631 197.035 38.2565 195.902 37.2431 194.355C36.2298 192.782 35.7231 190.768 35.7231 188.315ZM48.6831 186.595C49.0831 186.595 49.2165 186.408 49.0831 186.035C48.9765 185.662 48.6565 185.275 48.1231 184.875C47.5898 184.475 46.8165 184.275 45.8031 184.275C44.6298 184.275 43.7498 184.528 43.1631 185.035C42.6031 185.542 42.3231 186.062 42.3231 186.595H48.6831ZM65.6578 198.715C60.8045 198.715 58.3778 195.142 58.3778 187.995C58.3778 184.902 58.9778 182.435 60.1778 180.595C61.3778 178.728 63.1778 177.795 65.5778 177.795C66.8845 177.795 67.9378 178.062 68.7378 178.595C69.5645 179.128 70.2045 179.862 70.6578 180.795C71.1378 181.702 71.4845 182.755 71.6978 183.955L71.8178 183.915V171.795C71.8178 170.702 72.1378 169.782 72.7778 169.035C73.4445 168.262 74.4045 167.875 75.6578 167.875C76.8845 167.875 77.7911 168.262 78.3778 169.035C78.9911 169.782 79.2978 170.728 79.2978 171.875V189.875C79.2978 190.782 79.3645 191.622 79.4978 192.395C79.6578 193.142 79.7778 193.888 79.8578 194.635C79.9378 195.648 79.7245 196.528 79.2178 197.275C78.7378 197.995 77.8711 198.462 76.6178 198.675C74.9911 198.942 73.7778 198.662 72.9778 197.835C72.2045 197.008 71.8178 195.782 71.8178 194.155V192.675H71.0578C71.0578 194.622 70.5645 196.115 69.5778 197.155C68.6178 198.195 67.3111 198.715 65.6578 198.715ZM65.0578 187.635C65.0578 188.462 65.3111 189.075 65.8178 189.475C66.3245 189.875 67.2311 190.075 68.5378 190.075C69.8711 190.075 70.7911 189.875 71.2978 189.475C71.8045 189.075 72.0578 188.462 72.0578 187.635C72.0578 186.782 71.8045 186.168 71.2978 185.795C70.8178 185.395 69.9111 185.195 68.5778 185.195C67.2445 185.195 66.3245 185.395 65.8178 185.795C65.3111 186.168 65.0578 186.782 65.0578 187.635ZM83.22 173.155C83.22 172.008 83.5667 171.088 84.26 170.395C84.98 169.675 85.9667 169.315 87.22 169.315C88.5533 169.315 89.54 169.662 90.18 170.355C90.8467 171.048 91.18 171.968 91.18 173.115C91.18 174.235 90.8467 175.142 90.18 175.835C89.54 176.502 88.5533 176.835 87.22 176.835C85.9133 176.835 84.9133 176.502 84.22 175.835C83.5533 175.142 83.22 174.248 83.22 173.155ZM87.22 198.715C85.9667 198.715 85.0333 198.368 84.42 197.675C83.8067 196.982 83.5 196.115 83.5 195.075V181.395C83.5 180.248 83.8067 179.342 84.42 178.675C85.0333 178.008 85.9667 177.675 87.22 177.675C88.4733 177.675 89.4067 178.008 90.02 178.675C90.66 179.342 90.98 180.222 90.98 181.315V195.075C90.98 196.115 90.6467 196.982 89.98 197.675C89.34 198.368 88.42 198.715 87.22 198.715ZM101.185 198.715C99.318 198.715 97.798 198.008 96.6247 196.595C95.4514 195.182 94.8514 193.195 94.8247 190.635L94.7847 181.395C94.7847 180.248 95.1314 179.355 95.8247 178.715C96.5447 178.048 97.518 177.715 98.7447 177.715C99.918 177.715 100.865 178.048 101.585 178.715C102.305 179.355 102.665 180.248 102.665 181.395V189.755C102.665 191.755 103.451 192.755 105.025 192.755C105.798 192.755 106.318 192.475 106.585 191.915C106.851 191.328 106.985 190.582 106.985 189.675V181.395C106.985 180.355 107.345 179.488 108.065 178.795C108.785 178.075 109.718 177.715 110.865 177.715C112.065 177.715 112.985 178.075 113.625 178.795C114.291 179.488 114.625 180.355 114.625 181.395V194.515C114.625 195.795 114.331 196.822 113.745 197.595C113.185 198.342 112.265 198.715 110.985 198.715C109.731 198.715 108.745 198.342 108.025 197.595C107.331 196.822 106.985 195.795 106.985 194.515V193.835H106.265C106.265 195.382 105.798 196.582 104.865 197.435C103.958 198.288 102.731 198.715 101.185 198.715ZM122.059 198.715C120.859 198.715 119.899 198.368 119.179 197.675C118.485 196.955 118.139 196.075 118.139 195.035V181.795C118.139 180.675 118.472 179.728 119.139 178.955C119.832 178.182 120.805 177.795 122.059 177.795C123.285 177.795 124.205 178.182 124.819 178.955C125.432 179.728 125.739 180.702 125.739 181.875V183.875H126.459C126.459 181.608 126.939 180.035 127.899 179.155C128.859 178.248 130.045 177.795 131.459 177.795C133.272 177.795 134.605 178.355 135.459 179.475C136.312 180.595 136.739 182.062 136.739 183.875H137.459C137.459 182.355 137.712 181.155 138.219 180.275C138.725 179.395 139.365 178.768 140.139 178.395C140.939 177.995 141.765 177.795 142.619 177.795C144.352 177.795 145.619 178.208 146.419 179.035C147.245 179.862 147.779 180.968 148.019 182.355C148.259 183.742 148.379 185.302 148.379 187.035V195.035C148.379 196.075 148.019 196.955 147.299 197.675C146.605 198.368 145.672 198.715 144.499 198.715C143.325 198.715 142.379 198.368 141.659 197.675C140.939 196.955 140.579 196.075 140.579 195.035V187.955C140.579 186.995 140.459 186.248 140.219 185.715C139.979 185.182 139.499 184.915 138.779 184.915C138.005 184.915 137.499 185.208 137.259 185.795C137.045 186.382 136.939 187.128 136.939 188.035V195.035C136.939 196.075 136.605 196.955 135.939 197.675C135.272 198.368 134.352 198.715 133.179 198.715C131.979 198.715 131.019 198.368 130.299 197.675C129.605 196.955 129.259 196.075 129.259 195.035V187.955C129.259 186.995 129.139 186.248 128.899 185.715C128.659 185.182 128.192 184.915 127.499 184.915C126.725 184.915 126.232 185.208 126.019 185.795C125.832 186.382 125.739 187.128 125.739 188.035V195.035C125.739 196.075 125.419 196.955 124.779 197.675C124.139 198.368 123.232 198.715 122.059 198.715Z" fill="white"/>
<path d="M2.28 197.475L3.05841 196.847L2.28 197.475ZM2.92 171.035L2.26916 170.276L2.2602 170.284L2.92 171.035ZM10.64 171.035L9.9522 171.761L9.96172 171.77L10.64 171.035ZM12.92 175.595L13.8945 175.371L13.8944 175.37L12.92 175.595ZM16.04 189.155L15.0655 189.379L15.244 190.155H16.04V189.155ZM17.08 189.155V190.155H17.876L18.0545 189.379L17.08 189.155ZM20.2 175.595L19.2256 175.37L19.2255 175.371L20.2 175.595ZM22.48 171.035L21.811 170.292L21.8017 170.3L22.48 171.035ZM30.24 171.035L29.5802 171.786L29.5892 171.794L30.24 171.035ZM30.88 197.475L30.1138 196.832L30.1076 196.84L30.1016 196.847L30.88 197.475ZM23.52 182.675L22.5438 182.892L22.559 182.96L22.5837 183.026L23.52 182.675ZM22.48 182.675L23.3744 183.122L23.3846 183.102L23.3938 183.081L22.48 182.675ZM22.24 183.395L21.2594 183.199L21.2547 183.222L21.2512 183.246L22.24 183.395ZM20.72 193.475L21.7057 193.643L21.7074 193.634L21.7088 193.624L20.72 193.475ZM20.04 196.315L19.0913 195.999L19.088 196.009L19.0849 196.019L20.04 196.315ZM18.88 198.115L19.48 198.915L19.4925 198.906L19.5047 198.896L18.88 198.115ZM14.24 198.115L13.6153 198.896L13.6366 198.913L13.6588 198.929L14.24 198.115ZM13.04 196.315L12.0822 196.602L12.088 196.622L12.0946 196.641L13.04 196.315ZM12.44 193.475L13.4295 193.33L13.4282 193.322L12.44 193.475ZM10.88 183.395L9.88496 183.494L9.88764 183.521L9.89177 183.548L10.88 183.395ZM10.68 182.675L9.76619 183.081L9.77542 183.102L9.78557 183.122L10.68 182.675ZM9.6 182.675L10.5363 183.026L10.5428 183.009L10.5487 182.991L9.6 182.675ZM8.4 197.475L7.64592 196.818L7.6398 196.825L7.63381 196.832L8.4 197.475ZM5.36 197.715C4.17602 197.715 3.48042 197.371 3.05841 196.847L1.50159 198.103C2.41291 199.233 3.77064 199.715 5.36 199.715V197.715ZM3.05841 196.847C2.57388 196.246 2.28 195.384 2.28 194.155H0.28C0.28 195.7 0.652783 197.05 1.50159 198.103L3.05841 196.847ZM2.28 194.155V175.515H0.28V194.155H2.28ZM2.28 175.515C2.28 173.659 2.77755 172.491 3.5798 171.786L2.2602 170.284C0.875782 171.499 0.28 173.318 0.28 175.515H2.28ZM3.57079 171.794C4.50021 170.998 5.59945 170.595 6.92 170.595V168.595C5.14722 168.595 3.57979 169.152 2.26921 170.276L3.57079 171.794ZM6.92 170.595C8.14512 170.595 9.13481 170.986 9.95226 171.761L11.3277 170.309C10.1185 169.163 8.62821 168.595 6.92 168.595V170.595ZM9.96172 171.77C10.7965 172.54 11.4893 173.842 11.9456 175.82L13.8944 175.37C13.3907 173.188 12.5635 171.45 11.3183 170.3L9.96172 171.77ZM11.9455 175.819L15.0655 189.379L17.0145 188.931L13.8945 175.371L11.9455 175.819ZM16.04 190.155H17.08V188.155H16.04V190.155ZM18.0545 189.379L21.1745 175.819L19.2255 175.371L16.1055 188.931L18.0545 189.379ZM21.1744 175.82C21.6307 173.842 22.3235 172.54 23.1583 171.77L21.8017 170.3C20.5565 171.45 19.7293 173.188 19.2256 175.37L21.1744 175.82ZM23.149 171.778C24.0276 170.987 25.0544 170.595 26.28 170.595V168.595C24.5723 168.595 23.0657 169.162 21.811 170.292L23.149 171.778ZM26.28 170.595C27.6005 170.595 28.6815 170.997 29.5802 171.786L30.8998 170.284C29.6119 169.153 28.0528 168.595 26.28 168.595V170.595ZM29.5892 171.794C30.4134 172.501 30.92 173.666 30.92 175.515H32.92C32.92 173.311 32.3066 171.489 30.8908 170.276L29.5892 171.794ZM30.92 175.515V194.155H32.92V175.515H30.92ZM30.92 194.155C30.92 195.375 30.6173 196.232 30.1138 196.832L31.6462 198.118C32.5293 197.065 32.92 195.708 32.92 194.155H30.92ZM30.1016 196.847C29.6796 197.371 28.984 197.715 27.8 197.715V199.715C29.3894 199.715 30.7471 199.233 31.6584 198.103L30.1016 196.847ZM27.8 197.715C26.6877 197.715 25.9636 197.38 25.4741 196.818L23.9659 198.132C24.9164 199.223 26.2457 199.715 27.8 199.715V197.715ZM25.4741 196.818C24.9512 196.218 24.64 195.366 24.64 194.155H22.64C22.64 195.717 23.0488 197.079 23.9659 198.132L25.4741 196.818ZM24.64 194.155V183.395H22.64V194.155H24.64ZM24.64 183.395C24.64 183.028 24.5849 182.667 24.4563 182.324L22.5837 183.026C22.6151 183.11 22.64 183.228 22.64 183.395H24.64ZM24.4962 182.458C24.4246 182.136 24.2469 181.81 23.9192 181.583C23.6115 181.37 23.2729 181.315 23 181.315V183.315C23.0204 183.315 22.9152 183.32 22.7808 183.227C22.6264 183.12 22.5621 182.974 22.5438 182.892L24.4962 182.458ZM23 181.315C22.7057 181.315 22.3972 181.391 22.1208 181.583C21.8502 181.77 21.6758 182.022 21.5662 182.269L23.3938 183.081C23.3908 183.088 23.3564 183.16 23.2592 183.227C23.1562 183.298 23.0543 183.315 23 183.315V181.315ZM21.5856 182.228C21.4341 182.531 21.3278 182.857 21.2594 183.199L23.2206 183.591C23.2589 183.4 23.3126 183.246 23.3744 183.122L21.5856 182.228ZM21.2512 183.246L19.7312 193.326L21.7088 193.624L23.2288 183.544L21.2512 183.246ZM19.7343 193.307C19.5537 194.364 19.3378 195.259 19.0913 195.999L20.9887 196.631C21.2756 195.771 21.513 194.772 21.7057 193.643L19.7343 193.307ZM19.0849 196.019C18.893 196.637 18.6054 197.054 18.2553 197.334L19.5047 198.896C20.2212 198.323 20.707 197.539 20.9951 196.611L19.0849 196.019ZM18.28 197.315C17.989 197.533 17.4633 197.715 16.56 197.715V199.715C17.6833 199.715 18.7044 199.497 19.48 198.915L18.28 197.315ZM16.56 197.715C15.6948 197.715 15.1525 197.538 14.8212 197.301L13.6588 198.929C14.4475 199.492 15.4519 199.715 16.56 199.715V197.715ZM14.8647 197.334C14.5061 197.047 14.2027 196.619 13.9854 195.989L12.0946 196.641C12.4107 197.557 12.9072 198.329 13.6153 198.896L14.8647 197.334ZM13.9978 196.028C13.7755 195.286 13.5845 194.39 13.4295 193.33L11.4505 193.62C11.6155 194.747 11.8245 195.744 12.0822 196.602L13.9978 196.028ZM13.4282 193.322L11.8682 183.242L9.89177 183.548L11.4518 193.628L13.4282 193.322ZM11.875 183.295C11.8378 182.923 11.7418 182.563 11.5744 182.228L9.78557 183.122C9.83153 183.214 9.86892 183.334 9.88496 183.494L11.875 183.295ZM11.5938 182.269C11.476 182.004 11.2864 181.747 11.0008 181.564C10.7161 181.381 10.406 181.315 10.12 181.315V183.315C10.1007 183.315 10.0172 183.309 9.91924 183.246C9.82026 183.183 9.7773 183.106 9.76619 183.081L11.5938 182.269ZM10.12 181.315C9.83725 181.315 9.51418 181.38 9.22079 181.583C8.92282 181.789 8.74567 182.076 8.65132 182.359L10.5487 182.991C10.5343 183.034 10.4839 183.141 10.3592 183.227C10.2392 183.31 10.1361 183.315 10.12 183.315V181.315ZM8.66367 182.324C8.53506 182.667 8.48 183.028 8.48 183.395H10.48C10.48 183.228 10.5049 183.11 10.5363 183.026L8.66367 182.324ZM8.48 183.395V194.155H10.48V183.395H8.48ZM8.48 194.155C8.48 195.366 8.16883 196.218 7.64592 196.818L9.15408 198.132C10.0712 197.079 10.48 195.717 10.48 194.155H8.48ZM7.63381 196.832C7.17448 197.38 6.47376 197.715 5.36 197.715V199.715C6.91291 199.715 8.23885 199.223 9.16619 198.118L7.63381 196.832ZM36.9631 182.755L36.0807 182.284L36.0747 182.296L36.9631 182.755ZM40.5631 178.995L40.0638 178.129L40.0574 178.132L40.5631 178.995ZM50.6831 178.555L50.2652 179.463L50.272 179.467L50.6831 178.555ZM53.8831 181.035L53.0806 181.632L53.0882 181.642L53.8831 181.035ZM53.9231 187.115L53.3419 186.301H53.3419L53.9231 187.115ZM42.2031 187.915V186.915H41.2031V187.915H42.2031ZM43.0031 189.635L42.3555 190.397L42.3646 190.405L42.3739 190.412L43.0031 189.635ZM47.6431 190.115L47.4215 189.14L47.4115 189.142L47.6431 190.115ZM49.4031 189.755L49.582 190.739L49.5988 190.736L49.6156 190.732L49.4031 189.755ZM54.0831 190.715L53.3386 191.383L53.3444 191.389L53.3503 191.395L54.0831 190.715ZM52.6831 197.515L52.2073 196.635L52.2012 196.639L52.6831 197.515ZM41.1631 197.755L40.7528 198.667L40.7584 198.669L41.1631 197.755ZM37.2431 194.355L36.4024 194.896L36.4067 194.903L37.2431 194.355ZM49.0831 186.035L48.1216 186.31L48.1305 186.341L48.1414 186.371L49.0831 186.035ZM48.1231 184.875L47.5231 185.675L48.1231 184.875ZM43.1631 185.035L42.5095 184.278L42.5008 184.286L42.4922 184.293L43.1631 185.035ZM42.3231 186.595H41.3231V187.595H42.3231V186.595ZM36.7231 188.315C36.7231 186.341 37.1097 184.65 37.8516 183.214L36.0747 182.296C35.1632 184.06 34.7231 186.076 34.7231 188.315H36.7231ZM37.8455 183.226C38.6129 181.787 39.6834 180.67 41.0688 179.858L40.0574 178.132C38.3495 179.133 37.02 180.523 36.0808 182.284L37.8455 183.226ZM41.0624 179.861C42.4574 179.057 44.1451 178.635 46.1631 178.635V176.635C43.8612 176.635 41.8155 177.119 40.0638 178.129L41.0624 179.861ZM46.1631 178.635C47.7197 178.635 49.0807 178.919 50.2652 179.463L51.101 177.646C49.6189 176.965 47.9666 176.635 46.1631 176.635V178.635ZM50.272 179.467C51.5006 180.021 52.4233 180.748 53.0807 181.632L54.6856 180.438C53.7963 179.242 52.5857 178.316 51.0942 177.643L50.272 179.467ZM53.0882 181.642C53.7341 182.488 54.0431 183.397 54.0431 184.395H56.0431C56.0431 182.94 55.5788 181.609 54.6781 180.428L53.0882 181.642ZM54.0431 184.395C54.0431 185.489 53.7311 186.023 53.3419 186.301L54.5044 187.929C55.6085 187.14 56.0431 185.861 56.0431 184.395H54.0431ZM53.3419 186.301C52.839 186.66 51.9763 186.915 50.6031 186.915V188.915C52.1633 188.915 53.5139 188.636 54.5044 187.929L53.3419 186.301ZM50.6031 186.915H42.2031V188.915H50.6031V186.915ZM41.2031 187.915C41.2031 188.905 41.6011 189.756 42.3555 190.397L43.6508 188.873C43.3385 188.608 43.2031 188.312 43.2031 187.915H41.2031ZM42.3739 190.412C43.2078 191.087 44.4322 191.315 45.8031 191.315V189.315C44.5607 189.315 43.9185 189.089 43.6323 188.858L42.3739 190.412ZM45.8031 191.315C46.5358 191.315 47.228 191.242 47.8747 191.088L47.4115 189.142C46.9382 189.255 46.4038 189.315 45.8031 189.315V191.315ZM47.8647 191.09C48.4374 190.96 49.0098 190.843 49.582 190.739L49.2242 188.771C48.6231 188.88 48.0222 189.003 47.4215 189.14L47.8647 191.09ZM49.6156 190.732C50.1474 190.617 50.7549 190.555 51.4431 190.555V188.555C50.6381 188.555 49.8855 188.627 49.1907 188.778L49.6156 190.732ZM51.4431 190.555C52.2344 190.555 52.8407 190.827 53.3386 191.383L54.8277 190.047C53.9389 189.056 52.7852 188.555 51.4431 188.555V190.555ZM53.3503 191.395C53.8242 191.906 54.1231 192.674 54.1231 193.835H56.1231C56.1231 192.329 55.7287 191.017 54.8159 190.035L53.3503 191.395ZM54.1231 193.835C54.1231 194.97 53.5792 195.893 52.2073 196.635L53.1589 198.395C55.0404 197.377 56.1231 195.847 56.1231 193.835H54.1231ZM52.2012 196.639C50.7989 197.41 48.8761 197.835 46.3631 197.835V199.835C49.0768 199.835 51.3674 199.38 53.165 198.391L52.2012 196.639ZM46.3631 197.835C44.6576 197.835 43.0626 197.502 41.5679 196.841L40.7584 198.669C42.5169 199.448 44.3886 199.835 46.3631 199.835V197.835ZM41.5735 196.843C40.1569 196.206 38.9944 195.203 38.0796 193.807L36.4067 194.903C37.5185 196.6 38.9694 197.864 40.7528 198.667L41.5735 196.843ZM38.0838 193.813C37.2023 192.445 36.7231 190.635 36.7231 188.315H34.7231C34.7231 190.902 35.2573 193.119 36.4024 194.896L38.0838 193.813ZM48.6831 187.595C48.971 187.595 49.5383 187.538 49.8969 187.036C50.2586 186.53 50.1225 185.972 50.0249 185.699L48.1414 186.371C48.1509 186.398 48.1331 186.361 48.1331 186.28C48.1331 186.188 48.157 186.031 48.2694 185.874C48.3813 185.717 48.5204 185.645 48.6028 185.616C48.6764 185.59 48.7136 185.595 48.6831 185.595V187.595ZM50.0446 185.76C49.8484 185.073 49.3184 184.521 48.7231 184.075L47.5231 185.675C47.9945 186.028 48.1046 186.25 48.1216 186.31L50.0446 185.76ZM48.7231 184.075C47.9475 183.493 46.9264 183.275 45.8031 183.275V185.275C46.7065 185.275 47.2321 185.457 47.5231 185.675L48.7231 184.075ZM45.8031 183.275C44.5086 183.275 43.3511 183.551 42.5095 184.278L43.8167 185.792C44.1485 185.505 44.7509 185.275 45.8031 185.275V183.275ZM42.4922 184.293C41.8122 184.909 41.3231 185.677 41.3231 186.595H43.3231C43.3231 186.446 43.3941 186.175 43.834 185.777L42.4922 184.293ZM42.3231 187.595H48.6831V185.595H42.3231V187.595ZM60.1778 180.595L61.0154 181.141L61.019 181.136L60.1778 180.595ZM68.7378 178.595L68.1831 179.427L68.1894 179.431L68.1957 179.435L68.7378 178.595ZM70.6578 180.795L69.7583 181.232L69.7659 181.247L69.774 181.263L70.6578 180.795ZM71.6978 183.955L70.7132 184.13L70.9159 185.27L72.014 184.904L71.6978 183.955ZM71.8178 183.915L72.134 184.864L72.8178 184.636V183.915H71.8178ZM72.7778 169.035L72.0204 168.382L72.0186 168.384L72.7778 169.035ZM78.3778 169.035L77.5811 169.639L77.5928 169.655L77.6051 169.67L78.3778 169.035ZM79.4978 192.395L78.5124 192.565L78.5158 192.585L78.52 192.604L79.4978 192.395ZM79.8578 194.635L80.8547 194.556L80.8536 194.542L80.8521 194.528L79.8578 194.635ZM79.2178 197.275L78.3903 196.713L78.3858 196.72L79.2178 197.275ZM76.6178 198.675L76.7796 199.662L76.7856 199.661L76.6178 198.675ZM72.9778 197.835L72.2475 198.518L72.2533 198.524L72.2592 198.53L72.9778 197.835ZM71.8178 192.675H72.8178V191.675H71.8178V192.675ZM71.0578 192.675V191.675H70.0578V192.675H71.0578ZM69.5778 197.155L68.8523 196.467L68.843 196.477L69.5778 197.155ZM65.8178 189.475L65.1982 190.26L65.8178 189.475ZM71.2978 185.795L70.6576 186.563L70.6806 186.582L70.7046 186.6L71.2978 185.795ZM65.8178 185.795L66.411 186.6L66.4244 186.59L66.4375 186.58L65.8178 185.795ZM65.6578 197.715C63.5146 197.715 62.0269 196.948 61.0251 195.473C59.9762 193.929 59.3778 191.486 59.3778 187.995H57.3778C57.3778 191.65 57.9927 194.568 59.3705 196.597C60.7954 198.695 62.9477 199.715 65.6578 199.715V197.715ZM59.3778 187.995C59.3778 185.02 59.9564 182.765 61.0154 181.141L59.3402 180.049C57.9992 182.105 57.3778 184.784 57.3778 187.995H59.3778ZM61.019 181.136C62.0178 179.582 63.485 178.795 65.5778 178.795V176.795C62.8707 176.795 60.7379 177.875 59.3366 180.054L61.019 181.136ZM65.5778 178.795C66.7561 178.795 67.5967 179.036 68.1831 179.427L69.2925 177.763C68.2789 177.087 67.0129 176.795 65.5778 176.795V178.795ZM68.1957 179.435C68.86 179.864 69.3804 180.454 69.7583 181.232L71.5573 180.358C71.0286 179.269 70.269 178.393 69.2799 177.755L68.1957 179.435ZM69.774 181.263C70.1973 182.062 70.5148 183.014 70.7132 184.13L72.6824 183.78C72.4542 182.496 72.0783 181.341 71.5416 180.327L69.774 181.263ZM72.014 184.904L72.134 184.864L71.5016 182.966L71.3816 183.006L72.014 184.904ZM72.8178 183.915V171.795H70.8178V183.915H72.8178ZM72.8178 171.795C72.8178 170.912 73.0701 170.231 73.5371 169.686L72.0186 168.384C71.2056 169.333 70.8178 170.491 70.8178 171.795H72.8178ZM73.5352 169.688C73.9694 169.184 74.6233 168.875 75.6578 168.875V166.875C74.1856 166.875 72.9195 167.339 72.0204 168.382L73.5352 169.688ZM75.6578 168.875C76.6626 168.875 77.2325 169.18 77.5811 169.639L79.1745 168.431C78.3498 167.344 77.1063 166.875 75.6578 166.875V168.875ZM77.6051 169.67C78.0452 170.205 78.2978 170.915 78.2978 171.875H80.2978C80.2978 170.542 79.9371 169.358 79.1505 168.4L77.6051 169.67ZM78.2978 171.875V189.875H80.2978V171.875H78.2978ZM78.2978 189.875C78.2978 190.83 78.368 191.728 78.5124 192.565L80.4833 192.225C80.361 191.516 80.2978 190.733 80.2978 189.875H78.2978ZM78.52 192.604C78.6728 193.318 78.7873 194.03 78.8635 194.741L80.8521 194.528C80.7684 193.747 80.6428 192.966 80.4756 192.185L78.52 192.604ZM78.8609 194.714C78.9254 195.531 78.7534 196.178 78.3903 196.713L80.0453 197.836C80.6956 196.878 80.9502 195.766 80.8547 194.556L78.8609 194.714ZM78.3858 196.72C78.118 197.122 77.56 197.5 76.45 197.689L76.7856 199.661C78.1823 199.423 79.3577 198.868 80.0499 197.83L78.3858 196.72ZM76.456 197.688C75.0029 197.926 74.18 197.639 73.6964 197.14L72.2592 198.53C73.3756 199.684 74.9794 199.957 76.7796 199.662L76.456 197.688ZM73.7081 197.152C73.171 196.578 72.8178 195.638 72.8178 194.155H70.8178C70.8178 195.925 71.2379 197.439 72.2475 198.518L73.7081 197.152ZM72.8178 194.155V192.675H70.8178V194.155H72.8178ZM71.8178 191.675H71.0578V193.675H71.8178V191.675ZM70.0578 192.675C70.0578 194.459 69.6076 195.671 68.8523 196.467L70.3033 197.843C71.5214 196.559 72.0578 194.784 72.0578 192.675H70.0578ZM68.843 196.477C68.1045 197.277 67.0834 197.715 65.6578 197.715V199.715C67.5389 199.715 69.1311 199.113 70.3126 197.833L68.843 196.477ZM64.0578 187.635C64.0578 188.674 64.3863 189.619 65.1982 190.26L66.4375 188.69C66.236 188.531 66.0578 188.249 66.0578 187.635H64.0578ZM65.1982 190.26C65.9888 190.884 67.1989 191.075 68.5378 191.075V189.075C67.2634 189.075 66.6601 188.866 66.4375 188.69L65.1982 190.26ZM68.5378 191.075C69.8977 191.075 71.1246 190.886 71.9175 190.26L70.6782 188.69C70.4577 188.864 69.8446 189.075 68.5378 189.075V191.075ZM71.9175 190.26C72.7293 189.619 73.0578 188.674 73.0578 187.635H71.0578C71.0578 188.249 70.8797 188.531 70.6782 188.69L71.9175 190.26ZM73.0578 187.635C73.0578 186.586 72.7381 185.614 71.891 184.99L70.7046 186.6C70.8708 186.723 71.0578 186.977 71.0578 187.635H73.0578ZM71.938 185.027C71.5299 184.687 71.0128 184.487 70.4732 184.368C69.9259 184.248 69.2884 184.195 68.5778 184.195V186.195C69.2005 186.195 69.6831 186.242 70.0424 186.321C70.4095 186.402 70.5857 186.503 70.6576 186.563L71.938 185.027ZM68.5778 184.195C67.218 184.195 65.9911 184.384 65.1982 185.01L66.4375 186.58C66.6579 186.406 67.271 186.195 68.5778 186.195V184.195ZM65.2246 184.99C64.3775 185.614 64.0578 186.586 64.0578 187.635H66.0578C66.0578 186.977 66.2448 186.723 66.411 186.6L65.2246 184.99ZM84.26 170.395L84.9671 171.102V171.102L84.26 170.395ZM90.18 170.355L89.4452 171.033L89.4521 171.041L89.4592 171.048L90.18 170.355ZM90.18 175.835L89.4592 175.142L89.4586 175.142L90.18 175.835ZM84.22 175.835L83.4992 176.528L83.5128 176.542L83.5269 176.556L84.22 175.835ZM84.42 197.675L83.671 198.338L84.42 197.675ZM84.42 178.675L83.6841 177.998L84.42 178.675ZM90.02 178.675L89.2841 179.352L89.2913 179.36L89.2986 179.367L90.02 178.675ZM89.98 197.675L89.2592 196.982L89.2521 196.989L89.2452 196.997L89.98 197.675ZM84.22 173.155C84.22 172.225 84.493 171.576 84.9671 171.102L83.5529 169.688C82.6403 170.6 82.22 171.792 82.22 173.155H84.22ZM84.9671 171.102C85.4581 170.611 86.1669 170.315 87.22 170.315V168.315C85.7665 168.315 84.5019 168.739 83.5529 169.688L84.9671 171.102ZM87.22 170.315C88.3923 170.315 89.062 170.618 89.4452 171.033L90.9148 169.677C90.018 168.705 88.7143 168.315 87.22 168.315V170.315ZM89.4592 171.048C89.9131 171.52 90.18 172.174 90.18 173.115H92.18C92.18 171.763 91.7802 170.576 90.9008 169.662L89.4592 171.048ZM90.18 173.115C90.18 174.022 89.9174 174.665 89.4592 175.142L90.9008 176.528C91.7759 175.618 92.18 174.448 92.18 173.115H90.18ZM89.4586 175.142C89.0775 175.539 88.4028 175.835 87.22 175.835V177.835C88.7039 177.835 90.0025 177.464 90.9014 176.527L89.4586 175.142ZM87.22 175.835C86.0773 175.835 85.3616 175.545 84.9131 175.114L83.5269 176.556C84.465 177.458 85.7494 177.835 87.22 177.835V175.835ZM84.9408 175.142C84.4781 174.661 84.22 174.028 84.22 173.155H82.22C82.22 174.469 82.6285 175.623 83.4992 176.528L84.9408 175.142ZM87.22 197.715C86.1469 197.715 85.532 197.423 85.169 197.012L83.671 198.338C84.5347 199.314 85.7865 199.715 87.22 199.715V197.715ZM85.169 197.012C84.7376 196.525 84.5 195.903 84.5 195.075H82.5C82.5 196.327 82.8757 197.439 83.671 198.338L85.169 197.012ZM84.5 195.075V181.395H82.5V195.075H84.5ZM84.5 181.395C84.5 180.43 84.7541 179.789 85.1559 179.352L83.6841 177.998C82.8592 178.894 82.5 180.067 82.5 181.395H84.5ZM85.1559 179.352C85.5161 178.961 86.1355 178.675 87.22 178.675V176.675C85.7978 176.675 84.5506 177.056 83.6841 177.998L85.1559 179.352ZM87.22 178.675C88.3045 178.675 88.924 178.961 89.2841 179.352L90.7559 177.998C89.8894 177.056 88.6422 176.675 87.22 176.675V178.675ZM89.2986 179.367C89.7277 179.814 89.98 180.429 89.98 181.315H91.98C91.98 180.014 91.5923 178.869 90.7414 177.982L89.2986 179.367ZM89.98 181.315V195.075H91.98V181.315H89.98ZM89.98 195.075C89.98 195.88 89.7314 196.491 89.2592 196.982L90.7008 198.368C91.562 197.472 91.98 196.35 91.98 195.075H89.98ZM89.2452 196.997C88.8431 197.432 88.2216 197.715 87.22 197.715V199.715C88.6184 199.715 89.8369 199.304 90.7148 198.353L89.2452 196.997ZM96.6247 196.595L97.3941 195.956L96.6247 196.595ZM94.8247 190.635L93.8247 190.639L93.8247 190.645L94.8247 190.635ZM94.7847 181.395H93.7847L93.7847 181.399L94.7847 181.395ZM95.8247 178.715L96.503 179.45L96.5041 179.449L95.8247 178.715ZM101.585 178.715L100.905 179.449L100.913 179.456L100.92 179.462L101.585 178.715ZM106.585 191.915L107.488 192.345L107.491 192.337L107.495 192.329L106.585 191.915ZM108.065 178.795L108.758 179.515L108.765 179.509L108.772 179.502L108.065 178.795ZM113.625 178.795L112.877 179.459L112.89 179.474L112.904 179.488L113.625 178.795ZM113.745 197.595L112.948 196.991L112.945 196.995L113.745 197.595ZM108.025 197.595L107.28 198.263L107.292 198.276L107.305 198.289L108.025 197.595ZM106.985 193.835H107.985V192.835H106.985V193.835ZM106.265 193.835V192.835H105.265V193.835H106.265ZM104.865 197.435L104.19 196.697L104.185 196.702L104.179 196.707L104.865 197.435ZM101.185 197.715C99.6099 197.715 98.3739 197.136 97.3941 195.956L95.8553 197.234C97.2221 198.88 99.0262 199.715 101.185 199.715V197.715ZM97.3941 195.956C96.4159 194.778 95.8498 193.044 95.8246 190.625L93.8247 190.645C93.8529 193.346 94.4868 195.585 95.8553 197.234L97.3941 195.956ZM95.8247 190.631L95.7847 181.391L93.7847 181.399L93.8247 190.639L95.8247 190.631ZM95.7847 181.395C95.7847 180.463 96.058 179.861 96.503 179.45L95.1464 177.98C94.2047 178.849 93.7847 180.034 93.7847 181.395H95.7847ZM96.5041 179.449C96.9961 178.993 97.7042 178.715 98.7447 178.715V176.715C97.3319 176.715 96.0933 177.103 95.1453 177.981L96.5041 179.449ZM98.7447 178.715C99.7183 178.715 100.405 178.986 100.905 179.449L102.264 177.981C101.324 177.111 100.118 176.715 98.7447 176.715V178.715ZM100.92 179.462C101.386 179.876 101.665 180.474 101.665 181.395H103.665C103.665 180.022 103.223 178.834 102.249 177.968L100.92 179.462ZM101.665 181.395V189.755H103.665V181.395H101.665ZM101.665 189.755C101.665 190.859 101.877 191.871 102.469 192.623C103.096 193.421 104.011 193.755 105.025 193.755V191.755C104.465 191.755 104.2 191.589 104.041 191.387C103.845 191.139 103.665 190.651 103.665 189.755H101.665ZM105.025 193.755C105.527 193.755 106.025 193.664 106.469 193.425C106.926 193.179 107.268 192.807 107.488 192.345L105.682 191.485C105.635 191.583 105.584 191.631 105.521 191.664C105.444 191.706 105.295 191.755 105.025 191.755V193.755ZM107.495 192.329C107.84 191.571 107.985 190.67 107.985 189.675H105.985C105.985 190.493 105.863 191.086 105.674 191.501L107.495 192.329ZM107.985 189.675V181.395H105.985V189.675H107.985ZM107.985 181.395C107.985 180.614 108.243 180.012 108.758 179.515L107.371 178.075C106.447 178.965 105.985 180.096 105.985 181.395H107.985ZM108.772 179.502C109.28 178.994 109.947 178.715 110.865 178.715V176.715C109.489 176.715 108.289 177.156 107.358 178.088L108.772 179.502ZM110.865 178.715C111.855 178.715 112.472 179.003 112.877 179.459L114.372 178.131C113.497 177.146 112.275 176.715 110.865 176.715V178.715ZM112.904 179.488C113.376 179.979 113.625 180.59 113.625 181.395H115.625C115.625 180.12 115.207 178.997 114.346 178.102L112.904 179.488ZM113.625 181.395V194.515H115.625V181.395H113.625ZM113.625 194.515C113.625 195.646 113.366 196.439 112.948 196.991L114.541 198.199C115.297 197.204 115.625 195.944 115.625 194.515H113.625ZM112.945 196.995C112.638 197.404 112.075 197.715 110.985 197.715V199.715C112.454 199.715 113.731 199.279 114.545 198.195L112.945 196.995ZM110.985 197.715C109.942 197.715 109.238 197.412 108.745 196.901L107.305 198.289C108.252 199.271 109.521 199.715 110.985 199.715V197.715ZM108.769 196.927C108.276 196.378 107.985 195.608 107.985 194.515H105.985C105.985 195.982 106.386 197.266 107.28 198.263L108.769 196.927ZM107.985 194.515V193.835H105.985V194.515H107.985ZM106.985 192.835H106.265V194.835H106.985V192.835ZM105.265 193.835C105.265 195.168 104.871 196.074 104.19 196.697L105.539 198.173C106.725 197.089 107.265 195.595 107.265 193.835H105.265ZM104.179 196.707C103.5 197.346 102.541 197.715 101.185 197.715V199.715C102.921 199.715 104.416 199.231 105.55 198.163L104.179 196.707ZM119.179 197.675L118.458 198.369L118.472 198.382L118.485 198.395L119.179 197.675ZM119.139 178.955L118.394 178.287L118.388 178.295L118.381 178.302L119.139 178.955ZM124.819 178.955L124.035 179.576L124.819 178.955ZM125.739 183.875H124.739V184.875H125.739V183.875ZM126.459 183.875V184.875H127.459V183.875H126.459ZM127.899 179.155L128.574 179.892L128.58 179.887L128.585 179.882L127.899 179.155ZM135.459 179.475L136.254 178.869L135.459 179.475ZM136.739 183.875H135.739V184.875H136.739V183.875ZM137.459 183.875V184.875H138.459V183.875H137.459ZM140.139 178.395L140.574 179.296L140.586 179.289L140.139 178.395ZM146.419 179.035L145.7 179.73L145.706 179.736L145.712 179.742L146.419 179.035ZM148.019 182.355L147.033 182.526V182.526L148.019 182.355ZM147.299 197.675L148.006 198.382L147.299 197.675ZM141.659 197.675L140.952 198.382L140.958 198.389L140.965 198.395L141.659 197.675ZM137.259 185.795L136.333 185.416L136.326 185.435L136.319 185.453L137.259 185.795ZM135.939 197.675L136.66 198.368L136.666 198.361L136.673 198.354L135.939 197.675ZM130.299 197.675L129.578 198.369L129.592 198.382L129.605 198.395L130.299 197.675ZM126.019 185.795L125.079 185.453L125.072 185.472L125.066 185.492L126.019 185.795ZM124.779 197.675L125.514 198.353L125.52 198.346L125.526 198.339L124.779 197.675ZM122.059 197.715C121.062 197.715 120.37 197.434 119.872 196.955L118.485 198.395C119.428 199.303 120.655 199.715 122.059 199.715V197.715ZM119.899 196.981C119.393 196.456 119.139 195.828 119.139 195.035H117.139C117.139 196.322 117.578 197.454 118.458 198.369L119.899 196.981ZM119.139 195.035V181.795H117.139V195.035H119.139ZM119.139 181.795C119.139 180.89 119.402 180.182 119.896 179.608L118.381 178.302C117.543 179.275 117.139 180.46 117.139 181.795H119.139ZM119.883 179.623C120.348 179.104 121.026 178.795 122.059 178.795V176.795C120.585 176.795 119.316 177.259 118.394 178.287L119.883 179.623ZM122.059 178.795C123.062 178.795 123.657 179.1 124.035 179.576L125.602 178.334C124.754 177.264 123.509 176.795 122.059 176.795V178.795ZM124.035 179.576C124.483 180.141 124.739 180.883 124.739 181.875H126.739C126.739 180.52 126.381 179.315 125.602 178.334L124.035 179.576ZM124.739 181.875V183.875H126.739V181.875H124.739ZM125.739 184.875H126.459V182.875H125.739V184.875ZM127.459 183.875C127.459 181.694 127.931 180.482 128.574 179.892L127.223 178.418C125.947 179.588 125.459 181.523 125.459 183.875H127.459ZM128.585 179.882C129.346 179.164 130.281 178.795 131.459 178.795V176.795C129.81 176.795 128.372 177.333 127.212 178.428L128.585 179.882ZM131.459 178.795C133.058 178.795 134.052 179.278 134.663 180.081L136.254 178.869C135.159 177.432 133.486 176.795 131.459 176.795V178.795ZM134.663 180.081C135.35 180.982 135.739 182.217 135.739 183.875H137.739C137.739 181.906 137.274 180.208 136.254 178.869L134.663 180.081ZM136.739 184.875H137.459V182.875H136.739V184.875ZM138.459 183.875C138.459 182.449 138.699 181.445 139.085 180.774L137.352 179.776C136.725 180.865 136.459 182.26 136.459 183.875H138.459ZM139.085 180.774C139.51 180.036 140.012 179.566 140.574 179.296L139.704 177.494C138.719 177.97 137.94 178.754 137.352 179.776L139.085 180.774ZM140.586 179.289C141.254 178.955 141.928 178.795 142.619 178.795V176.795C141.603 176.795 140.624 177.035 139.692 177.501L140.586 179.289ZM142.619 178.795C144.217 178.795 145.166 179.178 145.7 179.73L147.137 178.34C146.072 177.238 144.487 176.795 142.619 176.795V178.795ZM145.712 179.742C146.365 180.395 146.821 181.3 147.033 182.526L149.004 182.184C148.736 180.637 148.126 179.328 147.126 178.328L145.712 179.742ZM147.033 182.526C147.262 183.845 147.379 185.346 147.379 187.035H149.379C149.379 185.257 149.256 183.639 149.004 182.184L147.033 182.526ZM147.379 187.035V195.035H149.379V187.035H147.379ZM147.379 195.035C147.379 195.816 147.12 196.44 146.592 196.968L148.006 198.382C148.918 197.47 149.379 196.334 149.379 195.035H147.379ZM146.592 196.968C146.122 197.438 145.463 197.715 144.499 197.715V199.715C145.881 199.715 147.089 199.299 148.006 198.382L146.592 196.968ZM144.499 197.715C143.536 197.715 142.854 197.438 142.352 196.955L140.965 198.395C141.903 199.299 143.115 199.715 144.499 199.715V197.715ZM142.366 196.968C141.838 196.44 141.579 195.816 141.579 195.035H139.579C139.579 196.334 140.04 197.47 140.952 198.382L142.366 196.968ZM141.579 195.035V187.955H139.579V195.035H141.579ZM141.579 187.955C141.579 186.933 141.454 186.024 141.131 185.305L139.307 186.125C139.463 186.473 139.579 187.057 139.579 187.955H141.579ZM141.131 185.305C140.928 184.855 140.605 184.486 140.164 184.241C139.737 184.003 139.257 183.915 138.779 183.915V185.915C139.02 185.915 139.141 185.96 139.193 185.989C139.232 186.011 139.269 186.042 139.307 186.125L141.131 185.305ZM138.779 183.915C138.271 183.915 137.765 184.011 137.318 184.27C136.857 184.536 136.53 184.936 136.333 185.416L138.184 186.174C138.228 186.067 138.274 186.027 138.32 186C138.38 185.966 138.513 185.915 138.779 185.915V183.915ZM136.319 185.453C136.052 186.187 135.939 187.06 135.939 188.035H137.939C137.939 187.197 138.039 186.576 138.199 186.137L136.319 185.453ZM135.939 188.035V195.035H137.939V188.035H135.939ZM135.939 195.035C135.939 195.84 135.69 196.472 135.205 196.996L136.673 198.354C137.521 197.438 137.939 196.31 137.939 195.035H135.939ZM135.218 196.982C134.78 197.437 134.144 197.715 133.179 197.715V199.715C134.56 199.715 135.764 199.299 136.66 198.368L135.218 196.982ZM133.179 197.715C132.182 197.715 131.49 197.434 130.992 196.955L129.605 198.395C130.548 199.303 131.775 199.715 133.179 199.715V197.715ZM131.019 196.981C130.513 196.456 130.259 195.828 130.259 195.035H128.259C128.259 196.322 128.698 197.454 129.578 198.369L131.019 196.981ZM130.259 195.035V187.955H128.259V195.035H130.259ZM130.259 187.955C130.259 186.933 130.134 186.024 129.811 185.305L127.987 186.125C128.143 186.473 128.259 187.057 128.259 187.955H130.259ZM129.811 185.305C129.612 184.863 129.298 184.494 128.865 184.247C128.443 184.006 127.97 183.915 127.499 183.915V185.915C127.721 185.915 127.828 185.958 127.873 185.983C127.906 186.002 127.945 186.033 127.987 186.125L129.811 185.305ZM127.499 183.915C126.993 183.915 126.484 184.01 126.038 184.275C125.575 184.551 125.257 184.963 125.079 185.453L126.959 186.137C126.994 186.04 127.029 186.013 127.06 185.994C127.107 185.966 127.232 185.915 127.499 185.915V183.915ZM125.066 185.492C124.837 186.211 124.739 187.069 124.739 188.035H126.739C126.739 187.187 126.827 186.552 126.972 186.098L125.066 185.492ZM124.739 188.035V195.035H126.739V188.035H124.739ZM124.739 195.035C124.739 195.851 124.495 196.489 124.031 197.011L125.526 198.339C126.342 197.421 126.739 196.299 126.739 195.035H124.739ZM124.044 196.997C123.638 197.437 123.026 197.715 122.059 197.715V199.715C123.438 199.715 124.64 199.3 125.514 198.353L124.044 196.997Z" fill="black" mask="url(#path-8-outside-1_14_358)"/>
</svg>
