<svg width="203" height="210" viewBox="0 0 203 210" fill="none" xmlns="http://www.w3.org/2000/svg">
<path d="M67.8771 88.8072C66.9258 90.1025 65.9605 90.8098 65.4761 90.454C64.9917 90.0982 65.3701 88.7598 66.3215 87.4645C67.2728 86.1693 68.4367 85.4077 68.9211 85.7635C69.4055 86.1193 68.8284 87.512 67.8771 88.8072Z" fill="#FFFBD2" fill-opacity="0.87"/>
<circle cx="102.375" cy="80.0898" r="79.3748" fill="#01CCA6"/>
<circle cx="102.177" cy="80.2882" r="70.4452" fill="#C5EFE7"/>
<circle cx="102.375" cy="80.0899" r="64.2936" fill="#BEECE3"/>
<path fill-rule="evenodd" clip-rule="evenodd" d="M73.1249 40.6518C80.8698 42.6862 87.1579 40.5041 92.2144 44.0976C97.4921 47.8484 98.5595 54.6633 100.114 60.8391C101.738 67.2897 104.093 79.4479 99.0987 84.8098C94.1048 90.1717 92.8367 92.4264 86.0038 94.0179C79.3101 95.577 74.9363 90.7603 68.1826 89.3795C62.3104 88.1788 54.4276 91.7604 49.5285 84.4888C44.6294 77.2173 44.0902 75.2044 44.7931 69.5545C45.496 63.9045 47.4347 61.4657 49.6381 56.5994C51.8854 51.6362 53.1713 43.6098 58.011 40.9389C62.8767 38.2537 64.7553 37.3156 73.1249 40.6518Z" fill="url(#paint0_radial_14_357)"/>
<ellipse cx="73.213" cy="66.6475" rx="10.1203" ry="10.3187" transform="rotate(-2.80088 73.213 66.6475)" fill="url(#paint1_radial_14_357)" fill-opacity="0.87"/>
<path d="M74.1671 60.0166C74.1344 60.9859 72.679 59.6658 71.0255 60.0395C69.3719 60.4131 68.386 62.2848 68.1792 61.3697C68.0976 61.0087 69.1652 59.4979 70.8187 59.1243C72.4722 58.7507 74.1812 59.6012 74.1671 60.0166Z" fill="#FFF5C1" fill-opacity="0.58"/>
<path fill-rule="evenodd" clip-rule="evenodd" d="M160.146 72.3745C157.122 79.7894 158.469 86.3077 154.249 90.8545C149.844 95.6002 142.949 95.7731 136.623 96.5122C130.016 97.2842 117.655 98.0392 112.988 92.3911C108.32 86.743 106.249 85.1927 105.559 78.2109C104.882 71.3714 110.227 67.6604 112.473 61.1434C114.427 55.4769 111.9 47.1957 119.746 43.2828C127.592 39.3699 129.658 39.0967 135.169 40.5277C140.68 41.9587 142.846 44.1978 147.385 47.0148C152.014 49.8879 159.805 52.2057 161.825 57.3514C163.855 62.5247 164.541 64.5092 160.146 72.3745Z" fill="url(#paint2_radial_14_357)"/>
<ellipse cx="134.325" cy="69.0907" rx="10.2718" ry="10.462" transform="rotate(94.6641 134.325 69.0907)" fill="url(#paint3_radial_14_357)" fill-opacity="0.87"/>
<path d="M135.583 62.6771C135.55 63.6883 134.03 62.3134 132.305 62.7058C130.581 63.0981 129.555 65.0522 129.338 64.0979C129.252 63.7214 130.364 62.1437 132.088 61.7514C133.812 61.3591 135.597 62.2437 135.583 62.6771Z" fill="#FFF5C1" fill-opacity="0.58"/>
<path d="M62.0237 99.778L50.1507 107.671C50.8775 110.928 53.4817 117.465 58.0845 117.56C63.8379 117.679 69.4728 123.551 71.5406 129.151C73.6084 134.751 79.9325 136.072 93.4643 134.366C106.996 132.66 101.21 134.129 112.684 135.953C121.863 137.413 130.975 131.236 132.708 127.434C133.162 124.665 135.855 119.163 142.998 119.31C150.14 119.458 154.307 113.06 155.498 109.843C153.002 108.997 147.306 106.736 144.495 104.455C143.991 109.605 140.162 112.841 135.829 110.826C130.914 108.542 124.52 110.593 122.385 117.893C120.317 124.963 113.637 128.232 108.953 124.364C104.27 120.497 97.5201 120.556 90.3165 123.385C83.1129 126.214 78.2635 120.755 78.9159 117.989C79.4474 115.737 77.926 108.243 70.5854 108.092C64.7129 107.971 62.4307 102.499 62.0237 99.778Z" fill="#CD625B" stroke="#BF364F" stroke-opacity="0.53" stroke-width="0.396874" stroke-linecap="round" stroke-linejoin="round"/>
<g filter="url(#filter0_f_14_357)">
<path d="M56.458 105.723C57.7645 107.633 57.8071 108.612 59.0356 108.949C59.6474 109.117 60.2874 109.351 60.8656 109.635C61.6116 110.002 62.8258 110.346 62.8258 110.346C63.8011 110.449 64.5287 110.471 65.4873 110.728C66.957 111.122 68.7359 111.15 70.0481 111.987C72.6886 113.671 74.2566 116.184 75.395 119.024C76.1715 120.961 76.4458 123.285 77.7095 124.988C78.5677 126.144 79.0274 127.532 80.4674 128.346C82.2502 128.24 83.1415 128.49 83.8529 128.448C85.0863 128.375 86.3845 128.297 87.6165 128.224C88.5312 128.169 89.3298 128.033 90.1737 127.768C91.2789 127.421 91.7464 127.473 93.0978 126.799C93.8147 126.756 95.6729 126.646 95.6729 126.646C97.8518 126.516 99.231 126.782 99.4601 126.818C100.648 127.001 101.039 127.268 102.245 127.353C103.699 127.455 105.472 128.472 106.919 128.56C109.751 129.385 109.961 129.571 113.946 129.732C116.935 129.852 117.654 128.87 119.62 128.201C121.078 127.705 123.191 126.679 124.035 125.553C125.921 123.85 125.835 123.259 127.154 121.192C127.605 120.487 127.779 119.679 128.213 118.943C128.625 118.244 129.38 117.62 129.68 116.867C130.788 115.454 131.345 114.688 131.727 114.527C132.83 114.063 132.29 114.106 133.488 114.056C134.692 114.006 135.66 114.165 136.705 114.66C138.435 115.018 139.761 115.052 141.39 114.822C143.112 114.579 143.425 114.701 145.791 113.689C146.73 113.531 146.549 113.256 147.679 112.018C147.843 111.674 148.414 111.002 149.309 109.337" stroke="#DAABAB" stroke-opacity="0.49" stroke-width="3.17499" stroke-linecap="square" stroke-linejoin="round"/>
</g>
<mask id="path-13-outside-1_14_357" maskUnits="userSpaceOnUse" x="0" y="168.715" width="200" height="42" fill="black">
<rect fill="white" y="168.715" width="200" height="42"/>
<path d="M15.92 200.835C14.1333 200.835 12.6533 200.488 11.48 199.795C10.3333 199.102 9.38667 198.102 8.64 196.795C7.92 195.488 7.26667 193.902 6.68 192.035L2.2 177.675C1.77333 176.342 1.8 175.182 2.28 174.195C2.78667 173.182 3.68 172.488 4.96 172.115C6.13333 171.768 7.2 171.848 8.16 172.355C9.12 172.835 9.77333 173.662 10.12 174.835L14.48 188.675C14.9333 190.168 15.5067 191.168 16.2 191.675C16.92 192.155 17.6933 192.262 18.52 191.995C19.3733 191.755 19.92 191.275 20.16 190.555C20.4 189.808 20.3333 188.688 19.96 187.195C19.3467 184.528 18.9333 182.435 18.72 180.915C18.5067 179.395 18.4 178.195 18.4 177.315C18.4 175.822 18.8 174.542 19.6 173.475C20.4267 172.382 21.6933 171.835 23.4 171.835C25.08 171.835 26.2933 172.382 27.04 173.475C27.8133 174.542 28.2 175.822 28.2 177.315C28.2 178.195 28.08 179.102 27.84 180.035C27.6 180.968 27.32 181.928 27 182.915L23.44 193.675C22.96 195.115 22.4267 196.382 21.84 197.475C21.28 198.542 20.5333 199.368 19.6 199.955C18.6933 200.542 17.4667 200.835 15.92 200.835ZM28.6372 190.315C28.6372 188.208 29.0505 186.355 29.8772 184.755C30.7305 183.155 31.9305 181.902 33.4772 180.995C35.0505 180.088 36.9172 179.635 39.0772 179.635C40.7572 179.635 42.2639 179.942 43.5972 180.555C44.9572 181.168 46.0239 181.995 46.7972 183.035C47.5705 184.048 47.9572 185.168 47.9572 186.395C47.9572 187.675 47.5839 188.582 46.8372 189.115C46.0905 189.648 44.9839 189.915 43.5172 189.915H35.1172C35.1172 190.608 35.3839 191.182 35.9172 191.635C36.4772 192.088 37.4105 192.315 38.7172 192.315C39.3839 192.315 39.9972 192.248 40.5572 192.115C41.1439 191.982 41.7305 191.862 42.3172 191.755C42.9305 191.622 43.6105 191.555 44.3572 191.555C45.4239 191.555 46.3039 191.942 46.9972 192.715C47.6905 193.462 48.0372 194.502 48.0372 195.835C48.0372 197.408 47.2239 198.635 45.5972 199.515C43.9972 200.395 41.8905 200.835 39.2772 200.835C37.4372 200.835 35.7039 200.475 34.0772 199.755C32.4772 199.035 31.1705 197.902 30.1572 196.355C29.1439 194.782 28.6372 192.768 28.6372 190.315ZM41.5972 188.595C41.9972 188.595 42.1305 188.408 41.9972 188.035C41.8905 187.662 41.5705 187.275 41.0372 186.875C40.5039 186.475 39.7305 186.275 38.7172 186.275C37.5439 186.275 36.6639 186.528 36.0772 187.035C35.5172 187.542 35.2372 188.062 35.2372 188.595H41.5972ZM55.7634 200.715C54.5101 200.715 53.5368 200.355 52.8434 199.635C52.1501 198.915 51.8034 198.008 51.8034 196.915V183.795C51.8034 182.648 52.1501 181.702 52.8434 180.955C53.5368 180.182 54.5101 179.795 55.7634 179.795C57.0168 179.795 57.9768 180.182 58.6434 180.955C59.3101 181.702 59.6434 182.622 59.6434 183.715V184.555H60.4034C60.5101 183.142 61.0434 181.982 62.0034 181.075C62.9634 180.168 64.0968 179.715 65.4034 179.715C66.7101 179.715 67.7368 180.115 68.4834 180.915C69.2568 181.715 69.6434 182.782 69.6434 184.115C69.6434 185.368 69.2834 186.408 68.5634 187.235C67.8434 188.062 66.9234 188.475 65.8034 188.475C64.8701 188.475 64.0834 188.262 63.4434 187.835C62.8301 187.382 62.3768 186.862 62.0834 186.275C61.2301 186.168 60.6034 186.262 60.2034 186.555C59.8301 186.822 59.6434 187.368 59.6434 188.195V196.915C59.6434 198.008 59.3101 198.915 58.6434 199.635C57.9768 200.355 57.0168 200.715 55.7634 200.715ZM80.4603 208.955C78.6736 208.955 77.207 208.662 76.0603 208.075C74.9403 207.488 74.0603 206.715 73.4203 205.755C72.887 204.928 72.5803 204.062 72.5003 203.155C72.447 202.248 72.6203 201.408 73.0203 200.635C73.4203 199.835 74.0203 199.222 74.8203 198.795C75.647 198.342 76.4736 198.168 77.3003 198.275C78.127 198.355 78.887 198.662 79.5803 199.195C80.2736 199.702 80.807 200.368 81.1803 201.195C81.5803 202.075 81.9803 202.715 82.3803 203.115C82.807 203.542 83.3536 203.635 84.0203 203.395C84.6603 203.182 84.887 202.595 84.7003 201.635C84.5403 200.675 84.1936 199.542 83.6603 198.235H82.1803C81.0336 198.235 79.887 197.822 78.7403 196.995C77.5936 196.168 76.6336 194.862 75.8603 193.075L72.5803 185.475C72.0736 184.275 72.0203 183.168 72.4203 182.155C72.847 181.142 73.607 180.408 74.7003 179.955C75.7136 179.502 76.7136 179.475 77.7003 179.875C78.687 180.275 79.4603 181.128 80.0203 182.435L83.0603 189.515C83.567 190.662 84.1136 191.488 84.7003 191.995C85.3136 192.502 85.9536 192.582 86.6203 192.235C87.207 191.915 87.527 191.475 87.5803 190.915C87.6336 190.328 87.3536 189.622 86.7403 188.795C86.4736 188.422 86.1536 188.008 85.7803 187.555C85.4336 187.102 85.1136 186.582 84.8203 185.995C84.5536 185.382 84.4203 184.702 84.4203 183.955C84.4203 182.702 84.847 181.675 85.7003 180.875C86.5536 180.048 87.6736 179.635 89.0603 179.635C90.3136 179.635 91.3136 180.035 92.0603 180.835C92.8336 181.635 93.2203 182.675 93.2203 183.955C93.2203 184.862 93.1136 185.862 92.9003 186.955C92.687 188.048 92.447 189.062 92.1803 189.995L89.3003 200.515C88.8737 202.088 88.3136 203.515 87.6203 204.795C86.927 206.075 86.007 207.088 84.8603 207.835C83.7136 208.582 82.247 208.955 80.4603 208.955ZM109.676 200.595C108.45 200.595 107.436 200.222 106.636 199.475C105.836 198.728 105.436 197.782 105.436 196.635V175.475C105.436 174.302 105.823 173.328 106.596 172.555C107.37 171.755 108.383 171.355 109.636 171.355C110.97 171.355 112.01 171.755 112.756 172.555C113.503 173.328 113.876 174.275 113.876 175.395V182.795H121.316V175.475C121.316 174.302 121.703 173.328 122.476 172.555C123.25 171.755 124.29 171.355 125.596 171.355C126.903 171.355 127.93 171.755 128.676 172.555C129.423 173.328 129.796 174.275 129.796 175.395V196.635C129.796 197.782 129.396 198.728 128.596 199.475C127.823 200.222 126.85 200.595 125.676 200.595C124.396 200.595 123.343 200.222 122.516 199.475C121.716 198.728 121.316 197.782 121.316 196.635V188.675H113.876V196.635C113.876 197.782 113.476 198.728 112.676 199.475C111.903 200.222 110.903 200.595 109.676 200.595ZM139.631 200.715C137.658 200.715 136.111 200.182 134.991 199.115C133.898 198.048 133.351 196.555 133.351 194.635C133.351 192.715 133.991 191.328 135.271 190.475C136.551 189.595 138.191 189.155 140.191 189.155C141.365 189.155 142.431 189.235 143.391 189.395C144.351 189.555 145.218 189.782 145.991 190.075H146.111V189.475C146.111 188.862 145.885 188.382 145.431 188.035C144.978 187.662 144.405 187.488 143.711 187.515C143.045 187.515 142.471 187.555 141.991 187.635C141.538 187.715 140.965 187.848 140.271 188.035C138.991 188.355 137.885 188.328 136.951 187.955C136.018 187.582 135.378 186.848 135.031 185.755C134.711 184.608 134.778 183.648 135.231 182.875C135.711 182.102 136.431 181.502 137.391 181.075C138.218 180.675 139.138 180.342 140.151 180.075C141.191 179.808 142.311 179.675 143.511 179.675C147.005 179.675 149.565 180.528 151.191 182.235C152.845 183.915 153.671 186.742 153.671 190.715V196.915C153.671 198.008 153.338 198.915 152.671 199.635C152.005 200.355 151.085 200.715 149.911 200.715C148.631 200.715 147.671 200.355 147.031 199.635C146.418 198.915 146.111 198.035 146.111 196.995V196.075H145.311C145.311 196.768 145.178 197.475 144.911 198.195C144.671 198.915 144.151 199.515 143.351 199.995C142.578 200.475 141.338 200.715 139.631 200.715ZM140.031 191.955C140.031 192.408 140.191 192.728 140.511 192.915C140.858 193.102 141.591 193.195 142.711 193.195C143.725 193.195 144.431 193.102 144.831 192.915C145.231 192.728 145.431 192.408 145.431 191.955C145.431 191.528 145.231 191.235 144.831 191.075C144.431 190.888 143.725 190.795 142.711 190.795C141.591 190.795 140.858 190.888 140.511 191.075C140.191 191.235 140.031 191.528 140.031 191.955ZM161.302 200.715C160.049 200.715 159.076 200.355 158.382 199.635C157.689 198.915 157.342 198.008 157.342 196.915V183.795C157.342 182.648 157.689 181.702 158.382 180.955C159.076 180.182 160.049 179.795 161.302 179.795C162.556 179.795 163.516 180.182 164.182 180.955C164.849 181.702 165.182 182.622 165.182 183.715V184.555H165.942C166.049 183.142 166.582 181.982 167.542 181.075C168.502 180.168 169.636 179.715 170.942 179.715C172.249 179.715 173.276 180.115 174.022 180.915C174.796 181.715 175.182 182.782 175.182 184.115C175.182 185.368 174.822 186.408 174.102 187.235C173.382 188.062 172.462 188.475 171.342 188.475C170.409 188.475 169.622 188.262 168.982 187.835C168.369 187.382 167.916 186.862 167.622 186.275C166.769 186.168 166.142 186.262 165.742 186.555C165.369 186.822 165.182 187.368 165.182 188.195V196.915C165.182 198.008 164.849 198.915 164.182 199.635C163.516 200.355 162.556 200.715 161.302 200.715ZM184.656 200.715C179.803 200.715 177.376 197.142 177.376 189.995C177.376 186.902 177.976 184.435 179.176 182.595C180.376 180.728 182.176 179.795 184.576 179.795C185.883 179.795 186.936 180.062 187.736 180.595C188.563 181.128 189.203 181.862 189.656 182.795C190.136 183.702 190.483 184.755 190.696 185.955L190.816 185.915V173.795C190.816 172.702 191.136 171.782 191.776 171.035C192.443 170.262 193.403 169.875 194.656 169.875C195.883 169.875 196.79 170.262 197.376 171.035C197.99 171.782 198.296 172.728 198.296 173.875V191.875C198.296 192.782 198.363 193.622 198.496 194.395C198.656 195.142 198.776 195.888 198.856 196.635C198.936 197.648 198.723 198.528 198.216 199.275C197.736 199.995 196.87 200.462 195.616 200.675C193.99 200.942 192.776 200.662 191.976 199.835C191.203 199.008 190.816 197.782 190.816 196.155V194.675H190.056C190.056 196.622 189.563 198.115 188.576 199.155C187.616 200.195 186.31 200.715 184.656 200.715ZM184.056 189.635C184.056 190.462 184.31 191.075 184.816 191.475C185.323 191.875 186.23 192.075 187.536 192.075C188.87 192.075 189.79 191.875 190.296 191.475C190.803 191.075 191.056 190.462 191.056 189.635C191.056 188.782 190.803 188.168 190.296 187.795C189.816 187.395 188.91 187.195 187.576 187.195C186.243 187.195 185.323 187.395 184.816 187.795C184.31 188.168 184.056 188.782 184.056 189.635Z"/>
</mask>
<path d="M15.92 200.835C14.1333 200.835 12.6533 200.488 11.48 199.795C10.3333 199.102 9.38667 198.102 8.64 196.795C7.92 195.488 7.26667 193.902 6.68 192.035L2.2 177.675C1.77333 176.342 1.8 175.182 2.28 174.195C2.78667 173.182 3.68 172.488 4.96 172.115C6.13333 171.768 7.2 171.848 8.16 172.355C9.12 172.835 9.77333 173.662 10.12 174.835L14.48 188.675C14.9333 190.168 15.5067 191.168 16.2 191.675C16.92 192.155 17.6933 192.262 18.52 191.995C19.3733 191.755 19.92 191.275 20.16 190.555C20.4 189.808 20.3333 188.688 19.96 187.195C19.3467 184.528 18.9333 182.435 18.72 180.915C18.5067 179.395 18.4 178.195 18.4 177.315C18.4 175.822 18.8 174.542 19.6 173.475C20.4267 172.382 21.6933 171.835 23.4 171.835C25.08 171.835 26.2933 172.382 27.04 173.475C27.8133 174.542 28.2 175.822 28.2 177.315C28.2 178.195 28.08 179.102 27.84 180.035C27.6 180.968 27.32 181.928 27 182.915L23.44 193.675C22.96 195.115 22.4267 196.382 21.84 197.475C21.28 198.542 20.5333 199.368 19.6 199.955C18.6933 200.542 17.4667 200.835 15.92 200.835ZM28.6372 190.315C28.6372 188.208 29.0505 186.355 29.8772 184.755C30.7305 183.155 31.9305 181.902 33.4772 180.995C35.0505 180.088 36.9172 179.635 39.0772 179.635C40.7572 179.635 42.2639 179.942 43.5972 180.555C44.9572 181.168 46.0239 181.995 46.7972 183.035C47.5705 184.048 47.9572 185.168 47.9572 186.395C47.9572 187.675 47.5839 188.582 46.8372 189.115C46.0905 189.648 44.9839 189.915 43.5172 189.915H35.1172C35.1172 190.608 35.3839 191.182 35.9172 191.635C36.4772 192.088 37.4105 192.315 38.7172 192.315C39.3839 192.315 39.9972 192.248 40.5572 192.115C41.1439 191.982 41.7305 191.862 42.3172 191.755C42.9305 191.622 43.6105 191.555 44.3572 191.555C45.4239 191.555 46.3039 191.942 46.9972 192.715C47.6905 193.462 48.0372 194.502 48.0372 195.835C48.0372 197.408 47.2239 198.635 45.5972 199.515C43.9972 200.395 41.8905 200.835 39.2772 200.835C37.4372 200.835 35.7039 200.475 34.0772 199.755C32.4772 199.035 31.1705 197.902 30.1572 196.355C29.1439 194.782 28.6372 192.768 28.6372 190.315ZM41.5972 188.595C41.9972 188.595 42.1305 188.408 41.9972 188.035C41.8905 187.662 41.5705 187.275 41.0372 186.875C40.5039 186.475 39.7305 186.275 38.7172 186.275C37.5439 186.275 36.6639 186.528 36.0772 187.035C35.5172 187.542 35.2372 188.062 35.2372 188.595H41.5972ZM55.7634 200.715C54.5101 200.715 53.5368 200.355 52.8434 199.635C52.1501 198.915 51.8034 198.008 51.8034 196.915V183.795C51.8034 182.648 52.1501 181.702 52.8434 180.955C53.5368 180.182 54.5101 179.795 55.7634 179.795C57.0168 179.795 57.9768 180.182 58.6434 180.955C59.3101 181.702 59.6434 182.622 59.6434 183.715V184.555H60.4034C60.5101 183.142 61.0434 181.982 62.0034 181.075C62.9634 180.168 64.0968 179.715 65.4034 179.715C66.7101 179.715 67.7368 180.115 68.4834 180.915C69.2568 181.715 69.6434 182.782 69.6434 184.115C69.6434 185.368 69.2834 186.408 68.5634 187.235C67.8434 188.062 66.9234 188.475 65.8034 188.475C64.8701 188.475 64.0834 188.262 63.4434 187.835C62.8301 187.382 62.3768 186.862 62.0834 186.275C61.2301 186.168 60.6034 186.262 60.2034 186.555C59.8301 186.822 59.6434 187.368 59.6434 188.195V196.915C59.6434 198.008 59.3101 198.915 58.6434 199.635C57.9768 200.355 57.0168 200.715 55.7634 200.715ZM80.4603 208.955C78.6736 208.955 77.207 208.662 76.0603 208.075C74.9403 207.488 74.0603 206.715 73.4203 205.755C72.887 204.928 72.5803 204.062 72.5003 203.155C72.447 202.248 72.6203 201.408 73.0203 200.635C73.4203 199.835 74.0203 199.222 74.8203 198.795C75.647 198.342 76.4736 198.168 77.3003 198.275C78.127 198.355 78.887 198.662 79.5803 199.195C80.2736 199.702 80.807 200.368 81.1803 201.195C81.5803 202.075 81.9803 202.715 82.3803 203.115C82.807 203.542 83.3536 203.635 84.0203 203.395C84.6603 203.182 84.887 202.595 84.7003 201.635C84.5403 200.675 84.1936 199.542 83.6603 198.235H82.1803C81.0336 198.235 79.887 197.822 78.7403 196.995C77.5936 196.168 76.6336 194.862 75.8603 193.075L72.5803 185.475C72.0736 184.275 72.0203 183.168 72.4203 182.155C72.847 181.142 73.607 180.408 74.7003 179.955C75.7136 179.502 76.7136 179.475 77.7003 179.875C78.687 180.275 79.4603 181.128 80.0203 182.435L83.0603 189.515C83.567 190.662 84.1136 191.488 84.7003 191.995C85.3136 192.502 85.9536 192.582 86.6203 192.235C87.207 191.915 87.527 191.475 87.5803 190.915C87.6336 190.328 87.3536 189.622 86.7403 188.795C86.4736 188.422 86.1536 188.008 85.7803 187.555C85.4336 187.102 85.1136 186.582 84.8203 185.995C84.5536 185.382 84.4203 184.702 84.4203 183.955C84.4203 182.702 84.847 181.675 85.7003 180.875C86.5536 180.048 87.6736 179.635 89.0603 179.635C90.3136 179.635 91.3136 180.035 92.0603 180.835C92.8336 181.635 93.2203 182.675 93.2203 183.955C93.2203 184.862 93.1136 185.862 92.9003 186.955C92.687 188.048 92.447 189.062 92.1803 189.995L89.3003 200.515C88.8737 202.088 88.3136 203.515 87.6203 204.795C86.927 206.075 86.007 207.088 84.8603 207.835C83.7136 208.582 82.247 208.955 80.4603 208.955ZM109.676 200.595C108.45 200.595 107.436 200.222 106.636 199.475C105.836 198.728 105.436 197.782 105.436 196.635V175.475C105.436 174.302 105.823 173.328 106.596 172.555C107.37 171.755 108.383 171.355 109.636 171.355C110.97 171.355 112.01 171.755 112.756 172.555C113.503 173.328 113.876 174.275 113.876 175.395V182.795H121.316V175.475C121.316 174.302 121.703 173.328 122.476 172.555C123.25 171.755 124.29 171.355 125.596 171.355C126.903 171.355 127.93 171.755 128.676 172.555C129.423 173.328 129.796 174.275 129.796 175.395V196.635C129.796 197.782 129.396 198.728 128.596 199.475C127.823 200.222 126.85 200.595 125.676 200.595C124.396 200.595 123.343 200.222 122.516 199.475C121.716 198.728 121.316 197.782 121.316 196.635V188.675H113.876V196.635C113.876 197.782 113.476 198.728 112.676 199.475C111.903 200.222 110.903 200.595 109.676 200.595ZM139.631 200.715C137.658 200.715 136.111 200.182 134.991 199.115C133.898 198.048 133.351 196.555 133.351 194.635C133.351 192.715 133.991 191.328 135.271 190.475C136.551 189.595 138.191 189.155 140.191 189.155C141.365 189.155 142.431 189.235 143.391 189.395C144.351 189.555 145.218 189.782 145.991 190.075H146.111V189.475C146.111 188.862 145.885 188.382 145.431 188.035C144.978 187.662 144.405 187.488 143.711 187.515C143.045 187.515 142.471 187.555 141.991 187.635C141.538 187.715 140.965 187.848 140.271 188.035C138.991 188.355 137.885 188.328 136.951 187.955C136.018 187.582 135.378 186.848 135.031 185.755C134.711 184.608 134.778 183.648 135.231 182.875C135.711 182.102 136.431 181.502 137.391 181.075C138.218 180.675 139.138 180.342 140.151 180.075C141.191 179.808 142.311 179.675 143.511 179.675C147.005 179.675 149.565 180.528 151.191 182.235C152.845 183.915 153.671 186.742 153.671 190.715V196.915C153.671 198.008 153.338 198.915 152.671 199.635C152.005 200.355 151.085 200.715 149.911 200.715C148.631 200.715 147.671 200.355 147.031 199.635C146.418 198.915 146.111 198.035 146.111 196.995V196.075H145.311C145.311 196.768 145.178 197.475 144.911 198.195C144.671 198.915 144.151 199.515 143.351 199.995C142.578 200.475 141.338 200.715 139.631 200.715ZM140.031 191.955C140.031 192.408 140.191 192.728 140.511 192.915C140.858 193.102 141.591 193.195 142.711 193.195C143.725 193.195 144.431 193.102 144.831 192.915C145.231 192.728 145.431 192.408 145.431 191.955C145.431 191.528 145.231 191.235 144.831 191.075C144.431 190.888 143.725 190.795 142.711 190.795C141.591 190.795 140.858 190.888 140.511 191.075C140.191 191.235 140.031 191.528 140.031 191.955ZM161.302 200.715C160.049 200.715 159.076 200.355 158.382 199.635C157.689 198.915 157.342 198.008 157.342 196.915V183.795C157.342 182.648 157.689 181.702 158.382 180.955C159.076 180.182 160.049 179.795 161.302 179.795C162.556 179.795 163.516 180.182 164.182 180.955C164.849 181.702 165.182 182.622 165.182 183.715V184.555H165.942C166.049 183.142 166.582 181.982 167.542 181.075C168.502 180.168 169.636 179.715 170.942 179.715C172.249 179.715 173.276 180.115 174.022 180.915C174.796 181.715 175.182 182.782 175.182 184.115C175.182 185.368 174.822 186.408 174.102 187.235C173.382 188.062 172.462 188.475 171.342 188.475C170.409 188.475 169.622 188.262 168.982 187.835C168.369 187.382 167.916 186.862 167.622 186.275C166.769 186.168 166.142 186.262 165.742 186.555C165.369 186.822 165.182 187.368 165.182 188.195V196.915C165.182 198.008 164.849 198.915 164.182 199.635C163.516 200.355 162.556 200.715 161.302 200.715ZM184.656 200.715C179.803 200.715 177.376 197.142 177.376 189.995C177.376 186.902 177.976 184.435 179.176 182.595C180.376 180.728 182.176 179.795 184.576 179.795C185.883 179.795 186.936 180.062 187.736 180.595C188.563 181.128 189.203 181.862 189.656 182.795C190.136 183.702 190.483 184.755 190.696 185.955L190.816 185.915V173.795C190.816 172.702 191.136 171.782 191.776 171.035C192.443 170.262 193.403 169.875 194.656 169.875C195.883 169.875 196.79 170.262 197.376 171.035C197.99 171.782 198.296 172.728 198.296 173.875V191.875C198.296 192.782 198.363 193.622 198.496 194.395C198.656 195.142 198.776 195.888 198.856 196.635C198.936 197.648 198.723 198.528 198.216 199.275C197.736 199.995 196.87 200.462 195.616 200.675C193.99 200.942 192.776 200.662 191.976 199.835C191.203 199.008 190.816 197.782 190.816 196.155V194.675H190.056C190.056 196.622 189.563 198.115 188.576 199.155C187.616 200.195 186.31 200.715 184.656 200.715ZM184.056 189.635C184.056 190.462 184.31 191.075 184.816 191.475C185.323 191.875 186.23 192.075 187.536 192.075C188.87 192.075 189.79 191.875 190.296 191.475C190.803 191.075 191.056 190.462 191.056 189.635C191.056 188.782 190.803 188.168 190.296 187.795C189.816 187.395 188.91 187.195 187.576 187.195C186.243 187.195 185.323 187.395 184.816 187.795C184.31 188.168 184.056 188.782 184.056 189.635Z" fill="white"/>
<path d="M11.48 199.795L10.9626 200.651L10.9713 200.656L11.48 199.795ZM8.64 196.795L7.76416 197.278L7.76791 197.284L7.77176 197.291L8.64 196.795ZM6.68 192.035L5.72538 192.333L5.72601 192.335L6.68 192.035ZM2.2 177.675L3.15465 177.377L3.15242 177.37L2.2 177.675ZM2.28 174.195L1.38552 173.748L1.38076 173.757L2.28 174.195ZM4.96 172.115L5.24 173.075L5.24335 173.074L4.96 172.115ZM8.16 172.355L7.69324 173.239L7.70296 173.244L7.71279 173.249L8.16 172.355ZM10.12 174.835L9.16098 175.118L9.16352 175.127L9.16621 175.135L10.12 174.835ZM14.48 188.675L15.4369 188.384L15.4338 188.374L14.48 188.675ZM16.2 191.675L15.61 192.482L15.6274 192.495L15.6453 192.507L16.2 191.675ZM18.52 191.995L18.2493 191.032L18.231 191.037L18.213 191.043L18.52 191.995ZM20.16 190.555L21.1087 190.871L21.112 190.861L20.16 190.555ZM19.96 187.195L18.9854 187.419L18.9876 187.428L18.9899 187.438L19.96 187.195ZM18.72 180.915L17.7297 181.054H17.7297L18.72 180.915ZM19.6 173.475L18.8023 172.872L18.8 172.875L19.6 173.475ZM27.04 173.475L26.2142 174.039L26.2221 174.051L26.2304 174.062L27.04 173.475ZM27.84 180.035L26.8715 179.786L27.84 180.035ZM27 182.915L27.9494 183.229L27.9512 183.223L27 182.915ZM23.44 193.675L24.3887 193.991L24.3894 193.989L23.44 193.675ZM21.84 197.475L20.9588 197.002L20.9546 197.01L21.84 197.475ZM19.6 199.955L19.0678 199.108L19.0567 199.115L19.6 199.955ZM15.92 199.835C14.2581 199.835 12.9672 199.512 11.9887 198.934L10.9713 200.656C12.3395 201.464 14.0086 201.835 15.92 201.835V199.835ZM11.9974 198.939C11.0136 198.344 10.1811 197.476 9.50824 196.299L7.77176 197.291C8.59228 198.727 9.65306 199.859 10.9626 200.651L11.9974 198.939ZM9.51584 196.312C8.83601 195.079 8.20652 193.557 7.63399 191.735L5.72601 192.335C6.32682 194.246 7.00399 195.898 7.76416 197.278L9.51584 196.312ZM7.63462 191.737L3.15462 177.377L1.24538 177.973L5.72538 192.333L7.63462 191.737ZM3.15242 177.37C2.78164 176.211 2.84044 175.329 3.17924 174.632L1.38076 173.757C0.75956 175.034 0.765031 176.472 1.24758 177.98L3.15242 177.37ZM3.17443 174.642C3.53446 173.922 4.17573 173.385 5.24 173.075L4.68 171.155C3.18427 171.591 2.03887 172.441 1.38557 173.748L3.17443 174.642ZM5.24335 173.074C6.20104 172.791 6.99399 172.87 7.69324 173.239L8.62676 171.471C7.40601 170.826 6.06563 170.746 4.67665 171.156L5.24335 173.074ZM7.71279 173.249C8.38915 173.588 8.88077 174.17 9.16098 175.118L11.079 174.552C10.6659 173.153 9.85085 172.082 8.60721 171.461L7.71279 173.249ZM9.16621 175.135L13.5262 188.975L15.4338 188.374L11.0738 174.534L9.16621 175.135ZM13.5231 188.965C13.9943 190.518 14.6479 191.779 15.61 192.482L16.79 190.868C16.3655 190.557 15.8723 189.819 15.4369 188.384L13.5231 188.965ZM15.6453 192.507C16.6204 193.157 17.7112 193.307 18.827 192.947L18.213 191.043C17.6755 191.217 17.2196 191.153 16.7547 190.843L15.6453 192.507ZM18.7907 192.958C19.9013 192.645 20.745 191.962 21.1087 190.871L19.2113 190.239C19.095 190.588 18.8454 190.865 18.2493 191.032L18.7907 192.958ZM21.112 190.861C21.4419 189.835 21.3126 188.482 20.9301 186.952L18.9899 187.438C19.354 188.894 19.3581 189.782 19.208 190.249L21.112 190.861ZM20.9346 186.971C20.3235 184.314 19.9177 182.254 19.7103 180.776L17.7297 181.054C17.949 182.616 18.3698 184.742 18.9854 187.419L20.9346 186.971ZM19.7103 180.776C19.4994 179.274 19.4 178.127 19.4 177.315H17.4C17.4 178.263 17.5139 179.516 17.7297 181.054L19.7103 180.776ZM19.4 177.315C19.4 176.011 19.7453 174.948 20.4 174.075L18.8 172.875C17.8547 174.135 17.4 175.633 17.4 177.315H19.4ZM20.3977 174.078C20.9893 173.296 21.9215 172.835 23.4 172.835V170.835C21.4651 170.835 19.8641 171.468 18.8023 172.872L20.3977 174.078ZM23.4 172.835C24.8494 172.835 25.7038 173.292 26.2142 174.039L27.8658 172.911C26.8828 171.472 25.3106 170.835 23.4 170.835V172.835ZM26.2304 174.062C26.8638 174.936 27.2 176.003 27.2 177.315H29.2C29.2 175.64 28.7629 174.148 27.8496 172.888L26.2304 174.062ZM27.2 177.315C27.2 178.103 27.0926 178.926 26.8715 179.786L28.8085 180.284C29.0674 179.277 29.2 178.287 29.2 177.315H27.2ZM26.8715 179.786C26.637 180.698 26.3629 181.638 26.0488 182.606L27.9512 183.223C28.2771 182.219 28.563 181.239 28.8085 180.284L26.8715 179.786ZM26.0506 182.601L22.4906 193.361L24.3894 193.989L27.9494 183.229L26.0506 182.601ZM22.4913 193.359C22.0255 194.756 21.5134 195.969 20.9588 197.002L22.7212 197.948C23.3399 196.795 23.8945 195.474 24.3887 193.991L22.4913 193.359ZM20.9546 197.01C20.4688 197.936 19.8381 198.624 19.0678 199.108L20.1322 200.802C21.2285 200.112 22.0912 199.148 22.7254 197.94L20.9546 197.01ZM19.0567 199.115C18.3677 199.561 17.3532 199.835 15.92 199.835V201.835C17.5801 201.835 19.019 201.522 20.1433 200.795L19.0567 199.115ZM29.8772 184.755L28.9948 184.284L28.9888 184.296L29.8772 184.755ZM33.4772 180.995L32.9779 180.129L32.9715 180.132L33.4772 180.995ZM43.5972 180.555L43.1793 181.463L43.1861 181.467L43.5972 180.555ZM46.7972 183.035L45.9947 183.632L46.0022 183.642L46.7972 183.035ZM46.8372 189.115L46.256 188.301L46.8372 189.115ZM35.1172 189.915V188.915H34.1172V189.915H35.1172ZM35.9172 191.635L35.2695 192.397L35.2787 192.405L35.288 192.412L35.9172 191.635ZM40.5572 192.115L40.3356 191.14L40.3256 191.142L40.5572 192.115ZM42.3172 191.755L42.4961 192.739L42.5129 192.736L42.5296 192.732L42.3172 191.755ZM46.9972 192.715L46.2526 193.383L46.2584 193.389L46.2644 193.395L46.9972 192.715ZM45.5972 199.515L45.1214 198.635L45.1153 198.639L45.5972 199.515ZM34.0772 199.755L33.6668 200.667L33.6724 200.669L34.0772 199.755ZM30.1572 196.355L29.3164 196.896L29.3207 196.903L30.1572 196.355ZM41.9972 188.035L41.0357 188.31L41.0446 188.341L41.0554 188.371L41.9972 188.035ZM41.0372 186.875L40.4372 187.675L41.0372 186.875ZM36.0772 187.035L35.4236 186.278L35.4148 186.286L35.4063 186.293L36.0772 187.035ZM35.2372 188.595H34.2372V189.595H35.2372V188.595ZM29.6372 190.315C29.6372 188.341 30.0238 186.65 30.7656 185.214L28.9888 184.296C28.0773 186.06 27.6372 188.076 27.6372 190.315H29.6372ZM30.7595 185.226C31.527 183.787 32.5975 182.67 33.9829 181.858L32.9715 180.132C31.2635 181.133 29.934 182.523 28.9948 184.284L30.7595 185.226ZM33.9765 181.861C35.3715 181.057 37.0591 180.635 39.0772 180.635V178.635C36.7753 178.635 34.7296 179.119 32.9779 180.129L33.9765 181.861ZM39.0772 180.635C40.6338 180.635 41.9947 180.919 43.1793 181.463L44.0151 179.646C42.533 178.965 40.8806 178.635 39.0772 178.635V180.635ZM43.1861 181.467C44.4147 182.021 45.3374 182.748 45.9947 183.632L47.5997 182.438C46.7103 181.242 45.4997 180.316 44.0083 179.643L43.1861 181.467ZM46.0022 183.642C46.6482 184.488 46.9572 185.397 46.9572 186.395H48.9572C48.9572 184.94 48.4929 183.609 47.5921 182.428L46.0022 183.642ZM46.9572 186.395C46.9572 187.489 46.6451 188.023 46.256 188.301L47.4184 189.929C48.5226 189.14 48.9572 187.861 48.9572 186.395H46.9572ZM46.256 188.301C45.7531 188.66 44.8903 188.915 43.5172 188.915V190.915C45.0774 190.915 46.4279 190.636 47.4184 189.929L46.256 188.301ZM43.5172 188.915H35.1172V190.915H43.5172V188.915ZM34.1172 189.915C34.1172 190.905 34.5151 191.756 35.2695 192.397L36.5648 190.873C36.2526 190.608 36.1172 190.312 36.1172 189.915H34.1172ZM35.288 192.412C36.1218 193.087 37.3463 193.315 38.7172 193.315V191.315C37.4748 191.315 36.8325 191.089 36.5464 190.858L35.288 192.412ZM38.7172 193.315C39.4499 193.315 40.1421 193.242 40.7888 193.088L40.3256 191.142C39.8523 191.255 39.3178 191.315 38.7172 191.315V193.315ZM40.7788 193.09C41.3514 192.96 41.9238 192.843 42.4961 192.739L42.1383 190.771C41.5372 190.88 40.9363 191.003 40.3356 191.14L40.7788 193.09ZM42.5296 192.732C43.0615 192.617 43.6689 192.555 44.3572 192.555V190.555C43.5521 190.555 42.7995 190.627 42.1048 190.778L42.5296 192.732ZM44.3572 192.555C45.1484 192.555 45.7547 192.827 46.2526 193.383L47.7418 192.047C46.853 191.056 45.6993 190.555 44.3572 190.555V192.555ZM46.2644 193.395C46.7383 193.906 47.0372 194.674 47.0372 195.835H49.0372C49.0372 194.329 48.6427 193.017 47.73 192.035L46.2644 193.395ZM47.0372 195.835C47.0372 196.97 46.4933 197.893 45.1214 198.635L46.073 200.395C47.9544 199.377 49.0372 197.847 49.0372 195.835H47.0372ZM45.1153 198.639C43.7129 199.41 41.7902 199.835 39.2772 199.835V201.835C41.9908 201.835 44.2814 201.38 46.0791 200.391L45.1153 198.639ZM39.2772 199.835C37.5717 199.835 35.9767 199.502 34.4819 198.841L33.6724 200.669C35.431 201.448 37.3027 201.835 39.2772 201.835V199.835ZM34.4876 198.843C33.0709 198.206 31.9084 197.203 30.9936 195.807L29.3207 196.903C30.4326 198.6 31.8834 199.864 33.6668 200.667L34.4876 198.843ZM30.9979 195.813C30.1163 194.445 29.6372 192.635 29.6372 190.315H27.6372C27.6372 192.902 28.1714 195.119 29.3165 196.896L30.9979 195.813ZM41.5972 189.595C41.885 189.595 42.4524 189.538 42.8109 189.036C43.1727 188.53 43.0365 187.972 42.9389 187.699L41.0554 188.371C41.065 188.398 41.0472 188.361 41.0472 188.28C41.0472 188.188 41.071 188.031 41.1835 187.874C41.2953 187.717 41.4345 187.645 41.5168 187.616C41.5905 187.59 41.6276 187.595 41.5972 187.595V189.595ZM42.9587 187.76C42.7624 187.073 42.2325 186.521 41.6372 186.075L40.4372 187.675C40.9085 188.028 41.0186 188.25 41.0357 188.31L42.9587 187.76ZM41.6372 186.075C40.8616 185.493 39.8405 185.275 38.7172 185.275V187.275C39.6205 187.275 40.1462 187.457 40.4372 187.675L41.6372 186.075ZM38.7172 185.275C37.4227 185.275 36.2652 185.551 35.4236 186.278L36.7308 187.792C37.0625 187.505 37.665 187.275 38.7172 187.275V185.275ZM35.4063 186.293C34.7262 186.909 34.2372 187.677 34.2372 188.595H36.2372C36.2372 188.446 36.3081 188.175 36.7481 187.777L35.4063 186.293ZM35.2372 189.595H41.5972V187.595H35.2372V189.595ZM52.8434 199.635L53.5638 198.941L52.8434 199.635ZM52.8434 180.955L53.5762 181.635L53.5822 181.629L53.588 181.623L52.8434 180.955ZM58.6434 180.955L57.886 181.608L57.8917 181.614L57.8975 181.621L58.6434 180.955ZM59.6434 184.555H58.6434V185.555H59.6434V184.555ZM60.4034 184.555V185.555H61.3308L61.4006 184.63L60.4034 184.555ZM62.0034 181.075L61.3168 180.348L62.0034 181.075ZM68.4834 180.915L67.7524 181.597L67.7584 181.604L67.7645 181.61L68.4834 180.915ZM68.5634 187.235L67.8094 186.578L68.5634 187.235ZM63.4434 187.835L62.849 188.639L62.8686 188.654L62.8887 188.667L63.4434 187.835ZM62.0834 186.275L62.9779 185.828L62.7385 185.349L62.2075 185.283L62.0834 186.275ZM60.2034 186.555L60.7847 187.369L60.7948 187.361L60.2034 186.555ZM58.6434 199.635L59.3772 200.314L58.6434 199.635ZM55.7634 199.715C54.7086 199.715 54.0232 199.418 53.5638 198.941L52.1231 200.329C53.0503 201.291 54.3116 201.715 55.7634 201.715V199.715ZM53.5638 198.941C53.0675 198.426 52.8034 197.776 52.8034 196.915H50.8034C50.8034 198.24 51.2327 199.404 52.1231 200.329L53.5638 198.941ZM52.8034 196.915V183.795H50.8034V196.915H52.8034ZM52.8034 183.795C52.8034 182.867 53.0766 182.174 53.5762 181.635L52.1106 180.275C51.2237 181.23 50.8034 182.43 50.8034 183.795H52.8034ZM53.588 181.623C54.0528 181.104 54.7304 180.795 55.7634 180.795V178.795C54.2898 178.795 53.0207 179.259 52.0989 180.287L53.588 181.623ZM55.7634 180.795C56.7979 180.795 57.4518 181.104 57.886 181.608L59.4008 180.302C58.5017 179.259 57.2356 178.795 55.7634 178.795V180.795ZM57.8975 181.621C58.3849 182.167 58.6434 182.843 58.6434 183.715H60.6434C60.6434 182.4 60.2353 181.236 59.3894 180.289L57.8975 181.621ZM58.6434 183.715V184.555H60.6434V183.715H58.6434ZM59.6434 185.555H60.4034V183.555H59.6434V185.555ZM61.4006 184.63C61.49 183.445 61.9251 182.524 62.6901 181.802L61.3168 180.348C60.1618 181.439 59.5302 182.838 59.4063 184.48L61.4006 184.63ZM62.6901 181.802C63.4666 181.069 64.3551 180.715 65.4034 180.715V178.715C63.8385 178.715 62.4603 179.268 61.3168 180.348L62.6901 181.802ZM65.4034 180.715C66.4912 180.715 67.2313 181.039 67.7524 181.597L69.2145 180.233C68.2423 179.191 66.929 178.715 65.4034 178.715V180.715ZM67.7645 181.61C68.3227 182.188 68.6434 182.986 68.6434 184.115H70.6434C70.6434 182.577 70.1908 181.242 69.2024 180.22L67.7645 181.61ZM68.6434 184.115C68.6434 185.164 68.3482 185.96 67.8094 186.578L69.3175 187.892C70.2187 186.857 70.6434 185.573 70.6434 184.115H68.6434ZM67.8094 186.578C67.2839 187.181 66.6415 187.475 65.8034 187.475V189.475C67.2054 189.475 68.4029 188.942 69.3175 187.892L67.8094 186.578ZM65.8034 187.475C65.0249 187.475 64.4417 187.299 63.9981 187.003L62.8887 188.667C63.7252 189.225 64.7153 189.475 65.8034 189.475V187.475ZM64.0378 187.031C63.5306 186.656 63.1901 186.252 62.9779 185.828L61.189 186.722C61.5635 187.471 62.1296 188.107 62.849 188.639L64.0378 187.031ZM62.2075 185.283C61.272 185.166 60.3244 185.226 59.6121 185.749L60.7948 187.361C60.8824 187.297 61.1882 187.171 61.9594 187.267L62.2075 185.283ZM59.6222 185.741C58.8336 186.305 58.6434 187.295 58.6434 188.195H60.6434C60.6434 187.848 60.6837 187.623 60.7298 187.488C60.7732 187.361 60.8075 187.352 60.7847 187.369L59.6222 185.741ZM58.6434 188.195V196.915H60.6434V188.195H58.6434ZM58.6434 196.915C58.6434 197.788 58.3852 198.442 57.9097 198.956L59.3772 200.314C60.2351 199.388 60.6434 198.229 60.6434 196.915H58.6434ZM57.9097 198.956C57.4816 199.418 56.8202 199.715 55.7634 199.715V201.715C57.2133 201.715 58.472 201.292 59.3772 200.314L57.9097 198.956ZM76.0603 208.075L75.5963 208.961L75.6048 208.965L76.0603 208.075ZM73.4203 205.755L72.58 206.297L72.5841 206.303L72.5883 206.31L73.4203 205.755ZM72.5003 203.155L71.502 203.214L71.5029 203.228L71.5042 203.243L72.5003 203.155ZM73.0203 200.635L73.9086 201.094L73.9147 201.082L73.0203 200.635ZM74.8203 198.795L75.2909 199.677L75.3011 199.672L74.8203 198.795ZM77.3003 198.275L77.1723 199.267L77.1881 199.269L77.204 199.27L77.3003 198.275ZM79.5803 199.195L78.9706 199.988L78.9804 199.995L78.9903 200.002L79.5803 199.195ZM81.1803 201.195L80.2689 201.607L80.27 201.609L81.1803 201.195ZM82.3803 203.115L83.0874 202.408L82.3803 203.115ZM84.0203 203.395L83.7041 202.446L83.6928 202.45L83.6816 202.454L84.0203 203.395ZM84.7003 201.635L83.7139 201.799L83.7161 201.813L83.7187 201.826L84.7003 201.635ZM83.6603 198.235L84.5862 197.857L84.3322 197.235H83.6603V198.235ZM78.7403 196.995L78.1555 197.806L78.7403 196.995ZM75.8603 193.075L74.9422 193.471L74.9426 193.472L75.8603 193.075ZM72.5803 185.475L71.659 185.864L71.6622 185.871L72.5803 185.475ZM72.4203 182.155L71.4987 181.767L71.4943 181.777L71.4902 181.788L72.4203 182.155ZM74.7003 179.955L75.0833 180.879L75.0961 180.873L75.1087 180.868L74.7003 179.955ZM77.7003 179.875L78.076 178.948L77.7003 179.875ZM80.0203 182.435L79.1012 182.829L79.1014 182.83L80.0203 182.435ZM83.0603 189.515L82.1414 189.91L82.1456 189.919L83.0603 189.515ZM84.7003 191.995L84.0467 192.752L84.055 192.759L84.0634 192.766L84.7003 191.995ZM86.6203 192.235L87.0817 193.122L87.0905 193.118L87.0992 193.113L86.6203 192.235ZM87.5803 190.915L88.5758 191.01L88.5762 191.006L87.5803 190.915ZM86.7403 188.795L85.9266 189.376L85.9318 189.384L85.9372 189.391L86.7403 188.795ZM85.7803 187.555L84.986 188.162L84.9969 188.177L85.0084 188.191L85.7803 187.555ZM84.8203 185.995L83.9032 186.394L83.9139 186.418L83.9259 186.442L84.8203 185.995ZM85.7003 180.875L86.3843 181.605L86.3902 181.599L86.3961 181.593L85.7003 180.875ZM92.0603 180.835L91.3293 181.517L91.3352 181.524L91.3413 181.53L92.0603 180.835ZM92.9003 186.955L91.9188 186.763L92.9003 186.955ZM92.1803 189.995L91.2187 189.72L91.2158 189.731L92.1803 189.995ZM89.3003 200.515L88.3358 200.251L88.3352 200.253L89.3003 200.515ZM87.6203 204.795L86.741 204.319L87.6203 204.795ZM84.8603 207.835L85.406 208.673L84.8603 207.835ZM80.4603 207.955C78.7741 207.955 77.4777 207.677 76.5158 207.185L75.6048 208.965C76.9363 209.646 78.5732 209.955 80.4603 209.955V207.955ZM76.5243 207.189C75.5383 206.673 74.7907 206.008 74.2524 205.2L72.5883 206.31C73.33 207.422 74.3424 208.304 75.5963 208.961L76.5243 207.189ZM74.2606 205.213C73.8081 204.511 73.561 203.799 73.4964 203.067L71.5042 203.243C71.5996 204.324 71.9659 205.345 72.58 206.297L74.2606 205.213ZM73.4986 203.096C73.4553 202.361 73.5948 201.701 73.9085 201.094L72.1321 200.176C71.6459 201.116 71.4386 202.136 71.502 203.214L73.4986 203.096ZM73.9147 201.082C74.2206 200.47 74.6712 200.008 75.2909 199.677L74.3497 197.913C73.3694 198.435 72.62 199.2 72.1259 200.188L73.9147 201.082ZM75.3011 199.672C75.9676 199.306 76.5827 199.191 77.1723 199.267L77.4283 197.283C76.3646 197.146 75.3264 197.377 74.3395 197.918L75.3011 199.672ZM77.204 199.27C77.8338 199.331 78.4177 199.562 78.9706 199.988L80.19 198.402C79.3563 197.761 78.4202 197.379 77.3966 197.28L77.204 199.27ZM78.9903 200.002C79.5362 200.401 79.9626 200.928 80.2689 201.607L82.0917 200.783C81.6514 199.808 81.0111 199.002 80.1703 198.388L78.9903 200.002ZM80.27 201.609C80.6895 202.532 81.1489 203.298 81.6732 203.822L83.0874 202.408C82.8117 202.132 82.4711 201.618 82.0907 200.781L80.27 201.609ZM81.6732 203.822C82.0194 204.168 82.4464 204.406 82.942 204.491C83.4263 204.573 83.9075 204.498 84.359 204.336L83.6816 202.454C83.4664 202.532 83.341 202.53 83.2786 202.519C83.2275 202.511 83.1679 202.488 83.0874 202.408L81.6732 203.822ZM84.3365 204.344C84.916 204.15 85.3737 203.749 85.6031 203.155C85.8121 202.614 85.7928 202.015 85.6819 201.444L83.7187 201.826C83.7944 202.215 83.7552 202.389 83.7375 202.435C83.7322 202.448 83.7331 202.441 83.7445 202.43C83.7543 202.421 83.7489 202.431 83.7041 202.446L84.3365 204.344ZM85.6867 201.471C85.5104 200.413 85.1362 199.205 84.5862 197.857L82.7345 198.613C83.2511 199.879 83.5702 200.937 83.7139 201.799L85.6867 201.471ZM83.6603 197.235H82.1803V199.235H83.6603V197.235ZM82.1803 197.235C81.2883 197.235 80.3417 196.917 79.3251 196.184L78.1555 197.806C79.4322 198.727 80.779 199.235 82.1803 199.235V197.235ZM79.3251 196.184C78.3698 195.495 77.5056 194.359 76.778 192.678L74.9426 193.472C75.7617 195.364 76.8175 196.842 78.1555 197.806L79.3251 196.184ZM76.7785 192.679L73.4985 185.079L71.6622 185.871L74.9422 193.471L76.7785 192.679ZM73.5016 185.086C73.0754 184.077 73.065 183.245 73.3505 182.522L71.4902 181.788C70.9757 183.091 71.0719 184.473 71.6591 185.864L73.5016 185.086ZM73.3419 182.543C73.6582 181.792 74.2125 181.24 75.0833 180.879L74.3173 179.031C73.0015 179.577 72.0357 180.491 71.4987 181.767L73.3419 182.543ZM75.1087 180.868C75.8854 180.52 76.6021 180.509 77.3246 180.802L78.076 178.948C76.8252 178.441 75.5419 178.483 74.292 179.042L75.1087 180.868ZM77.3246 180.802C77.9938 181.073 78.6091 181.681 79.1012 182.829L80.9395 182.041C80.3115 180.576 79.3801 179.477 78.076 178.948L77.3246 180.802ZM79.1014 182.83L82.1414 189.91L83.9792 189.12L80.9392 182.04L79.1014 182.83ZM82.1456 189.919C82.6794 191.127 83.2997 192.107 84.0467 192.752L85.3539 191.238C84.9276 190.87 84.4545 190.196 83.975 189.111L82.1456 189.919ZM84.0634 192.766C84.4823 193.112 84.9681 193.359 85.5163 193.427C86.0692 193.496 86.5989 193.373 87.0817 193.122L86.159 191.348C85.9751 191.443 85.8514 191.454 85.7644 191.443C85.6725 191.431 85.5316 191.385 85.3372 191.224L84.0634 192.766ZM87.0992 193.113C87.9144 192.668 88.4847 191.966 88.5758 191.01L86.5848 190.82C86.5692 190.984 86.4996 191.162 86.1415 191.357L87.0992 193.113ZM88.5762 191.006C88.6633 190.047 88.2035 189.089 87.5434 188.199L85.9372 189.391C86.5038 190.155 86.604 190.609 86.5844 190.824L88.5762 191.006ZM87.554 188.214C87.271 187.817 86.9363 187.386 86.5522 186.919L85.0084 188.191C85.371 188.631 85.6763 189.026 85.9266 189.376L87.554 188.214ZM86.5747 186.948C86.2715 186.551 85.9839 186.086 85.7147 185.548L83.9259 186.442C84.2434 187.077 84.5958 187.652 84.986 188.162L86.5747 186.948ZM85.7374 185.596C85.5315 185.123 85.4203 184.58 85.4203 183.955H83.4203C83.4203 184.823 83.5758 185.641 83.9032 186.394L85.7374 185.596ZM85.4203 183.955C85.4203 182.956 85.7482 182.201 86.3843 181.605L85.0164 180.145C83.9458 181.149 83.4203 182.447 83.4203 183.955H85.4203ZM86.3961 181.593C87.0319 180.977 87.8867 180.635 89.0603 180.635V178.635C87.4606 178.635 86.0754 179.119 85.0045 180.157L86.3961 181.593ZM89.0603 180.635C90.0807 180.635 90.7999 180.95 91.3293 181.517L92.7914 180.153C91.8274 179.12 90.5466 178.635 89.0603 178.635V180.635ZM91.3413 181.53C91.9071 182.115 92.2203 182.892 92.2203 183.955H94.2203C94.2203 182.458 93.7602 181.155 92.7793 180.14L91.3413 181.53ZM92.2203 183.955C92.2203 184.785 92.1225 185.72 91.9188 186.763L93.8818 187.146C94.1048 186.004 94.2203 184.939 94.2203 183.955H92.2203ZM91.9188 186.763C91.7102 187.833 91.4766 188.818 91.2188 189.72L93.1418 190.27C93.4174 189.305 93.6638 188.264 93.8818 187.146L91.9188 186.763ZM91.2158 189.731L88.3358 200.251L90.2648 200.779L93.1448 190.259L91.2158 189.731ZM88.3352 200.253C87.9264 201.761 87.3935 203.114 86.741 204.319L88.4996 205.271C89.2338 203.916 89.8209 202.416 90.2655 200.777L88.3352 200.253ZM86.741 204.319C86.1218 205.462 85.3128 206.347 84.3146 206.997L85.406 208.673C86.7012 207.83 87.7322 206.688 88.4996 205.271L86.741 204.319ZM84.3146 206.997C83.3731 207.61 82.1116 207.955 80.4603 207.955V209.955C82.3824 209.955 84.0542 209.553 85.406 208.673L84.3146 206.997ZM106.636 199.475L105.954 200.206L106.636 199.475ZM106.596 172.555L107.303 173.262L107.309 173.256L107.315 173.25L106.596 172.555ZM112.756 172.555L112.025 173.237L112.031 173.243L112.037 173.25L112.756 172.555ZM113.876 182.795H112.876V183.795H113.876V182.795ZM121.316 182.795V183.795H122.316V182.795H121.316ZM122.476 172.555L123.183 173.262L123.189 173.256L123.195 173.25L122.476 172.555ZM128.676 172.555L127.945 173.237L127.951 173.243L127.957 173.25L128.676 172.555ZM128.596 199.475L127.914 198.744L127.908 198.75L127.902 198.756L128.596 199.475ZM122.516 199.475L121.834 200.206L121.84 200.212L121.846 200.217L122.516 199.475ZM121.316 188.675H122.316V187.675H121.316V188.675ZM113.876 188.675V187.675H112.876V188.675H113.876ZM112.676 199.475L111.994 198.744L111.988 198.75L111.982 198.756L112.676 199.475ZM109.676 199.595C108.67 199.595 107.911 199.296 107.319 198.744L105.954 200.206C106.962 201.147 108.229 201.595 109.676 201.595V199.595ZM107.319 198.744C106.732 198.196 106.436 197.519 106.436 196.635H104.436C104.436 198.044 104.941 199.26 105.954 200.206L107.319 198.744ZM106.436 196.635V175.475H104.436V196.635H106.436ZM106.436 175.475C106.436 174.545 106.732 173.833 107.303 173.262L105.889 171.848C104.914 172.823 104.436 174.058 104.436 175.475H106.436ZM107.315 173.25C107.876 172.67 108.616 172.355 109.636 172.355V170.355C108.149 170.355 106.864 170.84 105.877 171.86L107.315 173.25ZM109.636 172.355C110.758 172.355 111.508 172.683 112.025 173.237L113.487 171.873C112.511 170.827 111.182 170.355 109.636 170.355V172.355ZM112.037 173.25C112.595 173.828 112.876 174.522 112.876 175.395H114.876C114.876 174.028 114.411 172.829 113.476 171.86L112.037 173.25ZM112.876 175.395V182.795H114.876V175.395H112.876ZM113.876 183.795H121.316V181.795H113.876V183.795ZM122.316 182.795V175.475H120.316V182.795H122.316ZM122.316 175.475C122.316 174.545 122.612 173.833 123.183 173.262L121.769 171.848C120.794 172.823 120.316 174.058 120.316 175.475H122.316ZM123.195 173.25C123.747 172.679 124.509 172.355 125.596 172.355V170.355C124.07 170.355 122.752 170.831 121.757 171.86L123.195 173.25ZM125.596 172.355C126.684 172.355 127.424 172.679 127.945 173.237L129.407 171.873C128.435 170.831 127.122 170.355 125.596 170.355V172.355ZM127.957 173.25C128.515 173.828 128.796 174.522 128.796 175.395H130.796C130.796 174.028 130.331 172.829 129.396 171.86L127.957 173.25ZM128.796 175.395V196.635H130.796V175.395H128.796ZM128.796 196.635C128.796 197.519 128.501 198.196 127.914 198.744L129.279 200.206C130.292 199.26 130.796 198.044 130.796 196.635H128.796ZM127.902 198.756C127.333 199.305 126.616 199.595 125.676 199.595V201.595C127.083 201.595 128.313 201.138 129.291 200.194L127.902 198.756ZM125.676 199.595C124.604 199.595 123.802 199.289 123.187 198.733L121.846 200.217C122.884 201.154 124.188 201.595 125.676 201.595V199.595ZM123.199 198.744C122.612 198.196 122.316 197.519 122.316 196.635H120.316C120.316 198.044 120.821 199.26 121.834 200.206L123.199 198.744ZM122.316 196.635V188.675H120.316V196.635H122.316ZM121.316 187.675H113.876V189.675H121.316V187.675ZM112.876 188.675V196.635H114.876V188.675H112.876ZM112.876 196.635C112.876 197.519 112.581 198.196 111.994 198.744L113.359 200.206C114.372 199.26 114.876 198.044 114.876 196.635H112.876ZM111.982 198.756C111.421 199.297 110.683 199.595 109.676 199.595V201.595C111.123 201.595 112.384 201.147 113.371 200.194L111.982 198.756ZM134.991 199.115L134.293 199.831L134.302 199.839L134.991 199.115ZM135.271 190.475L135.826 191.307L135.832 191.303L135.838 191.299L135.271 190.475ZM143.391 189.395L143.556 188.409L143.391 189.395ZM145.991 190.075L145.637 191.01L145.808 191.075H145.991V190.075ZM146.111 190.075V191.075H147.111V190.075H146.111ZM145.431 188.035L144.796 188.807L144.809 188.818L144.824 188.829L145.431 188.035ZM143.711 187.515V188.515H143.73L143.75 188.514L143.711 187.515ZM141.991 187.635L141.827 186.649L141.817 186.65L141.991 187.635ZM140.271 188.035L140.514 189.005L140.523 189.003L140.531 189.001L140.271 188.035ZM136.951 187.955L136.58 188.883L136.951 187.955ZM135.031 185.755L134.068 186.024L134.073 186.041L134.078 186.057L135.031 185.755ZM135.231 182.875L134.382 182.348L134.375 182.358L134.369 182.369L135.231 182.875ZM137.391 181.075L137.797 181.989L137.812 181.982L137.827 181.975L137.391 181.075ZM140.151 180.075L139.903 179.106L139.897 179.108L140.151 180.075ZM151.191 182.235L150.467 182.925L150.473 182.931L150.479 182.936L151.191 182.235ZM152.671 199.635L153.405 200.314L152.671 199.635ZM147.031 199.635L146.27 200.283L146.277 200.291L146.284 200.299L147.031 199.635ZM146.111 196.075H147.111V195.075H146.111V196.075ZM145.311 196.075V195.075H144.311V196.075H145.311ZM144.911 198.195L143.974 197.848L143.968 197.863L143.963 197.879L144.911 198.195ZM143.351 199.995L142.837 199.137L142.83 199.141L142.824 199.145L143.351 199.995ZM140.511 192.915L140.007 193.779L140.022 193.787L140.037 193.795L140.511 192.915ZM144.831 192.915L144.408 192.009L144.831 192.915ZM144.831 191.075L144.408 191.981L144.434 191.993L144.46 192.003L144.831 191.075ZM140.511 191.075L140.958 191.969L140.972 191.963L140.985 191.955L140.511 191.075ZM139.631 199.715C137.841 199.715 136.568 199.235 135.681 198.391L134.302 199.839C135.655 201.128 137.475 201.715 139.631 201.715V199.715ZM135.69 198.399C134.836 197.566 134.351 196.359 134.351 194.635H132.351C132.351 196.751 132.96 198.53 134.293 199.831L135.69 198.399ZM134.351 194.635C134.351 192.955 134.894 191.928 135.826 191.307L134.717 189.643C133.088 190.728 132.351 192.475 132.351 194.635H134.351ZM135.838 191.299C136.909 190.563 138.336 190.155 140.191 190.155V188.155C138.047 188.155 136.193 188.627 134.705 189.651L135.838 191.299ZM140.191 190.155C141.32 190.155 142.331 190.232 143.227 190.381L143.556 188.409C142.532 188.238 141.409 188.155 140.191 188.155V190.155ZM143.227 190.381C144.133 190.532 144.934 190.744 145.637 191.01L146.346 189.14C145.501 188.82 144.57 188.578 143.556 188.409L143.227 190.381ZM145.991 191.075H146.111V189.075H145.991V191.075ZM147.111 190.075V189.475H145.111V190.075H147.111ZM147.111 189.475C147.111 188.577 146.76 187.792 146.039 187.241L144.824 188.829C145.009 188.971 145.111 189.146 145.111 189.475H147.111ZM146.067 187.263C145.391 186.706 144.564 186.481 143.673 186.516L143.75 188.514C144.245 188.495 144.565 188.617 144.796 188.807L146.067 187.263ZM143.711 186.515C143.008 186.515 142.377 186.557 141.827 186.649L142.156 188.621C142.566 188.553 143.081 188.515 143.711 188.515V186.515ZM141.817 186.65C141.324 186.737 140.719 186.879 140.011 187.069L140.531 189.001C141.21 188.818 141.752 188.693 142.165 188.62L141.817 186.65ZM140.029 187.065C138.889 187.35 138.008 187.301 137.323 187.026L136.58 188.883C137.761 189.356 139.093 189.36 140.514 189.005L140.029 187.065ZM137.323 187.026C136.708 186.781 136.255 186.306 135.984 185.453L134.078 186.057C134.501 187.391 135.327 188.382 136.58 188.883L137.323 187.026ZM135.994 185.486C135.722 184.512 135.818 183.851 136.094 183.381L134.369 182.369C133.738 183.446 133.7 184.705 134.068 186.024L135.994 185.486ZM136.081 183.402C136.44 182.825 136.992 182.347 137.797 181.989L136.985 180.161C135.871 180.656 134.983 181.379 134.382 182.348L136.081 183.402ZM137.827 181.975C138.588 181.607 139.446 181.295 140.406 181.042L139.897 179.108C138.83 179.389 137.848 179.743 136.956 180.175L137.827 181.975ZM140.4 181.044C141.35 180.8 142.385 180.675 143.511 180.675V178.675C142.237 178.675 141.033 178.817 139.903 179.106L140.4 181.044ZM143.511 180.675C146.863 180.675 149.104 181.495 150.467 182.925L151.915 181.545C150.025 179.562 147.146 178.675 143.511 178.675V180.675ZM150.479 182.936C151.856 184.336 152.671 186.835 152.671 190.715H154.671C154.671 186.648 153.833 183.494 151.904 181.534L150.479 182.936ZM152.671 190.715V196.915H154.671V190.715H152.671ZM152.671 196.915C152.671 197.788 152.413 198.442 151.938 198.956L153.405 200.314C154.263 199.388 154.671 198.229 154.671 196.915H152.671ZM151.938 198.956C151.497 199.431 150.865 199.715 149.911 199.715V201.715C151.304 201.715 152.512 201.278 153.405 200.314L151.938 198.956ZM149.911 199.715C148.818 199.715 148.172 199.413 147.779 198.971L146.284 200.299C147.171 201.297 148.445 201.715 149.911 201.715V199.715ZM147.792 198.986C147.349 198.466 147.111 197.823 147.111 196.995H145.111C145.111 198.247 145.487 199.364 146.27 200.283L147.792 198.986ZM147.111 196.995V196.075H145.111V196.995H147.111ZM146.111 195.075H145.311V197.075H146.111V195.075ZM144.311 196.075C144.311 196.638 144.203 197.227 143.974 197.848L145.849 198.542C146.152 197.723 146.311 196.899 146.311 196.075H144.311ZM143.963 197.879C143.814 198.324 143.481 198.751 142.837 199.137L143.866 200.852C144.822 200.279 145.528 199.506 145.86 198.511L143.963 197.879ZM142.824 199.145C142.295 199.473 141.29 199.715 139.631 199.715V201.715C141.386 201.715 142.861 201.476 143.879 200.845L142.824 199.145ZM139.031 191.955C139.031 192.671 139.307 193.37 140.007 193.779L141.015 192.051C141.012 192.049 141.018 192.053 141.027 192.062C141.037 192.072 141.043 192.082 141.046 192.088C141.051 192.099 141.031 192.067 141.031 191.955H139.031ZM140.037 193.795C140.376 193.978 140.794 194.066 141.195 194.117C141.619 194.171 142.128 194.195 142.711 194.195V192.195C142.174 192.195 141.757 192.172 141.448 192.133C141.294 192.113 141.178 192.091 141.095 192.069C141.008 192.047 140.979 192.031 140.985 192.034L140.037 193.795ZM142.711 194.195C143.729 194.195 144.635 194.11 145.254 193.821L144.408 192.009C144.227 192.093 143.72 192.195 142.711 192.195V194.195ZM145.254 193.821C145.599 193.66 145.91 193.415 146.129 193.065C146.347 192.717 146.431 192.331 146.431 191.955H144.431C144.431 191.995 144.427 192.015 144.426 192.02C144.425 192.023 144.426 192.016 144.433 192.005C144.437 192 144.44 191.995 144.443 191.991C144.445 191.99 144.446 191.988 144.447 191.987C144.448 191.986 144.449 191.986 144.449 191.986C144.449 191.986 144.448 191.986 144.447 191.988C144.445 191.989 144.443 191.99 144.44 191.992C144.433 191.996 144.423 192.002 144.408 192.009L145.254 193.821ZM146.431 191.955C146.431 191.582 146.342 191.195 146.107 190.852C145.874 190.509 145.547 190.284 145.203 190.146L144.46 192.003C144.489 192.015 144.496 192.022 144.491 192.018C144.484 192.013 144.47 192 144.455 191.978C144.44 191.957 144.433 191.937 144.43 191.928C144.428 191.919 144.431 191.926 144.431 191.955H146.431ZM145.254 190.169C144.635 189.88 143.729 189.795 142.711 189.795V191.795C143.72 191.795 144.227 191.897 144.408 191.981L145.254 190.169ZM142.711 189.795C142.128 189.795 141.619 189.819 141.195 189.873C140.794 189.924 140.376 190.012 140.037 190.194L140.985 191.955C140.979 191.959 141.008 191.943 141.095 191.92C141.178 191.899 141.294 191.877 141.448 191.857C141.757 191.818 142.174 191.795 142.711 191.795V189.795ZM140.064 190.181C139.735 190.345 139.458 190.597 139.273 190.936C139.094 191.265 139.031 191.62 139.031 191.955H141.031C141.031 191.864 141.048 191.858 141.029 191.894C141.019 191.912 141.005 191.931 140.988 191.947C140.98 191.955 140.973 191.96 140.967 191.964C140.961 191.968 140.958 191.969 140.958 191.969L140.064 190.181ZM158.382 199.635L159.103 198.941L158.382 199.635ZM158.382 180.955L159.115 181.635L159.121 181.629L159.127 181.623L158.382 180.955ZM164.182 180.955L163.425 181.608L163.431 181.614L163.437 181.621L164.182 180.955ZM165.182 184.555H164.182V185.555H165.182V184.555ZM165.943 184.555V185.555H166.87L166.94 184.63L165.943 184.555ZM167.542 181.075L166.856 180.348L167.542 181.075ZM174.022 180.915L173.291 181.597L173.297 181.604L173.304 181.61L174.022 180.915ZM174.102 187.235L173.348 186.578L174.102 187.235ZM168.982 187.835L168.388 188.639L168.408 188.654L168.428 188.667L168.982 187.835ZM167.622 186.275L168.517 185.828L168.278 185.349L167.747 185.283L167.622 186.275ZM165.742 186.555L166.324 187.369L166.334 187.361L165.742 186.555ZM164.182 199.635L164.916 200.314L164.182 199.635ZM161.302 199.715C160.248 199.715 159.562 199.418 159.103 198.941L157.662 200.329C158.589 201.291 159.851 201.715 161.302 201.715V199.715ZM159.103 198.941C158.607 198.426 158.342 197.776 158.342 196.915H156.342C156.342 198.24 156.772 199.404 157.662 200.329L159.103 198.941ZM158.342 196.915V183.795H156.342V196.915H158.342ZM158.342 183.795C158.342 182.867 158.616 182.174 159.115 181.635L157.65 180.275C156.763 181.23 156.342 182.43 156.342 183.795H158.342ZM159.127 181.623C159.592 181.104 160.269 180.795 161.302 180.795V178.795C159.829 178.795 158.56 179.259 157.638 180.287L159.127 181.623ZM161.302 180.795C162.337 180.795 162.991 181.104 163.425 181.608L164.94 180.302C164.041 179.259 162.775 178.795 161.302 178.795V180.795ZM163.437 181.621C163.924 182.167 164.182 182.843 164.182 183.715H166.182C166.182 182.4 165.774 181.236 164.928 180.289L163.437 181.621ZM164.182 183.715V184.555H166.182V183.715H164.182ZM165.182 185.555H165.943V183.555H165.182V185.555ZM166.94 184.63C167.029 183.445 167.464 182.524 168.229 181.802L166.856 180.348C165.701 181.439 165.069 182.838 164.945 184.48L166.94 184.63ZM168.229 181.802C169.006 181.069 169.894 180.715 170.943 180.715V178.715C169.378 178.715 167.999 179.268 166.856 180.348L168.229 181.802ZM170.943 180.715C172.03 180.715 172.77 181.039 173.291 181.597L174.754 180.233C173.781 179.191 172.468 178.715 170.943 178.715V180.715ZM173.304 181.61C173.862 182.188 174.182 182.986 174.182 184.115H176.182C176.182 182.577 175.73 181.242 174.741 180.22L173.304 181.61ZM174.182 184.115C174.182 185.164 173.887 185.96 173.348 186.578L174.857 187.892C175.758 186.857 176.182 185.573 176.182 184.115H174.182ZM173.348 186.578C172.823 187.181 172.181 187.475 171.342 187.475V189.475C172.744 189.475 173.942 188.942 174.857 187.892L173.348 186.578ZM171.342 187.475C170.564 187.475 169.981 187.299 169.537 187.003L168.428 188.667C169.264 189.225 170.254 189.475 171.342 189.475V187.475ZM169.577 187.031C169.07 186.656 168.729 186.252 168.517 185.828L166.728 186.722C167.103 187.471 167.669 188.107 168.388 188.639L169.577 187.031ZM167.747 185.283C166.811 185.166 165.863 185.226 165.151 185.749L166.334 187.361C166.421 187.297 166.727 187.171 167.498 187.267L167.747 185.283ZM165.161 185.741C164.373 186.305 164.182 187.295 164.182 188.195H166.182C166.182 187.848 166.223 187.623 166.269 187.488C166.312 187.361 166.347 187.352 166.324 187.369L165.161 185.741ZM164.182 188.195V196.915H166.182V188.195H164.182ZM164.182 196.915C164.182 197.788 163.924 198.442 163.449 198.956L164.916 200.314C165.774 199.388 166.182 198.229 166.182 196.915H164.182ZM163.449 198.956C163.021 199.418 162.359 199.715 161.302 199.715V201.715C162.752 201.715 164.011 201.292 164.916 200.314L163.449 198.956ZM179.176 182.595L180.014 183.141L180.017 183.136L179.176 182.595ZM187.736 180.595L187.182 181.427L187.188 181.431L187.194 181.435L187.736 180.595ZM189.656 182.795L188.757 183.232L188.764 183.247L188.772 183.263L189.656 182.795ZM190.696 185.955L189.712 186.13L189.914 187.27L191.012 186.904L190.696 185.955ZM190.816 185.915L191.132 186.864L191.816 186.636V185.915H190.816ZM191.776 171.035L191.019 170.382L191.017 170.384L191.776 171.035ZM197.376 171.035L196.58 171.639L196.591 171.655L196.604 171.67L197.376 171.035ZM198.496 194.395L197.511 194.565L197.514 194.585L197.518 194.604L198.496 194.395ZM198.856 196.635L199.853 196.556L199.852 196.542L199.851 196.528L198.856 196.635ZM198.216 199.275L197.389 198.713L197.384 198.72L198.216 199.275ZM195.616 200.675L195.778 201.662L195.784 201.661L195.616 200.675ZM191.976 199.835L191.246 200.518L191.252 200.524L191.258 200.53L191.976 199.835ZM190.816 194.675H191.816V193.675H190.816V194.675ZM190.056 194.675V193.675H189.056V194.675H190.056ZM188.576 199.155L187.851 198.467L187.841 198.477L188.576 199.155ZM184.816 191.475L184.197 192.26L184.816 191.475ZM190.296 187.795L189.656 188.563L189.679 188.582L189.703 188.6L190.296 187.795ZM184.816 187.795L185.409 188.6L185.423 188.59L185.436 188.58L184.816 187.795ZM184.656 199.715C182.513 199.715 181.025 198.948 180.024 197.473C178.975 195.929 178.376 193.486 178.376 189.995H176.376C176.376 193.65 176.991 196.568 178.369 198.597C179.794 200.695 181.946 201.715 184.656 201.715V199.715ZM178.376 189.995C178.376 187.02 178.955 184.765 180.014 183.141L178.339 182.049C176.998 184.105 176.376 186.784 176.376 189.995H178.376ZM180.017 183.136C181.016 181.582 182.483 180.795 184.576 180.795V178.795C181.869 178.795 179.736 179.875 178.335 182.054L180.017 183.136ZM184.576 180.795C185.755 180.795 186.595 181.036 187.182 181.427L188.291 179.763C187.277 179.087 186.011 178.795 184.576 178.795V180.795ZM187.194 181.435C187.858 181.864 188.379 182.454 188.757 183.232L190.556 182.358C190.027 181.269 189.267 180.393 188.278 179.755L187.194 181.435ZM188.772 183.263C189.196 184.062 189.513 185.014 189.712 186.13L191.681 185.78C191.453 184.496 191.077 183.341 190.54 182.327L188.772 183.263ZM191.012 186.904L191.132 186.864L190.5 184.966L190.38 185.006L191.012 186.904ZM191.816 185.915V173.795H189.816V185.915H191.816ZM191.816 173.795C191.816 172.912 192.068 172.231 192.536 171.686L191.017 170.384C190.204 171.333 189.816 172.491 189.816 173.795H191.816ZM192.534 171.688C192.968 171.184 193.622 170.875 194.656 170.875V168.875C193.184 168.875 191.918 169.339 191.019 170.382L192.534 171.688ZM194.656 170.875C195.661 170.875 196.231 171.18 196.58 171.639L198.173 170.431C197.348 169.344 196.105 168.875 194.656 168.875V170.875ZM196.604 171.67C197.044 172.205 197.296 172.915 197.296 173.875H199.296C199.296 172.542 198.936 171.358 198.149 170.4L196.604 171.67ZM197.296 173.875V191.875H199.296V173.875H197.296ZM197.296 191.875C197.296 192.83 197.366 193.728 197.511 194.565L199.482 194.225C199.359 193.516 199.296 192.733 199.296 191.875H197.296ZM197.518 194.604C197.671 195.318 197.786 196.03 197.862 196.741L199.851 196.528C199.767 195.747 199.641 194.966 199.474 194.185L197.518 194.604ZM197.859 196.714C197.924 197.531 197.752 198.178 197.389 198.713L199.044 199.836C199.694 198.878 199.949 197.766 199.853 196.556L197.859 196.714ZM197.384 198.72C197.116 199.122 196.558 199.5 195.448 199.689L195.784 201.661C197.181 201.423 198.356 200.868 199.048 199.83L197.384 198.72ZM195.454 199.688C194.001 199.926 193.178 199.639 192.695 199.14L191.258 200.53C192.374 201.684 193.978 201.957 195.778 201.662L195.454 199.688ZM192.707 199.152C192.169 198.578 191.816 197.638 191.816 196.155H189.816C189.816 197.925 190.236 199.439 191.246 200.518L192.707 199.152ZM191.816 196.155V194.675H189.816V196.155H191.816ZM190.816 193.675H190.056V195.675H190.816V193.675ZM189.056 194.675C189.056 196.459 188.606 197.671 187.851 198.467L189.302 199.843C190.52 198.559 191.056 196.784 191.056 194.675H189.056ZM187.841 198.477C187.103 199.277 186.082 199.715 184.656 199.715V201.715C186.537 201.715 188.13 201.113 189.311 199.833L187.841 198.477ZM183.056 189.635C183.056 190.674 183.385 191.619 184.197 192.26L185.436 190.69C185.234 190.531 185.056 190.249 185.056 189.635H183.056ZM184.197 192.26C184.987 192.884 186.197 193.075 187.536 193.075V191.075C186.262 191.075 185.659 190.866 185.436 190.69L184.197 192.26ZM187.536 193.075C188.896 193.075 190.123 192.886 190.916 192.26L189.677 190.69C189.456 190.864 188.843 191.075 187.536 191.075V193.075ZM190.916 192.26C191.728 191.619 192.056 190.674 192.056 189.635H190.056C190.056 190.249 189.878 190.531 189.677 190.69L190.916 192.26ZM192.056 189.635C192.056 188.586 191.737 187.614 190.889 186.99L189.703 188.6C189.869 188.723 190.056 188.977 190.056 189.635H192.056ZM190.936 187.027C190.528 186.687 190.011 186.487 189.472 186.368C188.924 186.248 188.287 186.195 187.576 186.195V188.195C188.199 188.195 188.682 188.242 189.041 188.321C189.408 188.402 189.584 188.503 189.656 188.563L190.936 187.027ZM187.576 186.195C186.216 186.195 184.989 186.384 184.197 187.01L185.436 188.58C185.656 188.406 186.269 188.195 187.576 188.195V186.195ZM184.223 186.99C183.376 187.614 183.056 188.586 183.056 189.635H185.056C185.056 188.977 185.243 188.723 185.409 188.6L184.223 186.99Z" fill="black" mask="url(#path-13-outside-1_14_357)"/>
<defs>
<filter id="filter0_f_14_357" x="53.8546" y="103.12" width="98.0008" height="28.6052" filterUnits="userSpaceOnUse" color-interpolation-filters="sRGB">
<feFlood flood-opacity="0" result="BackgroundImageFix"/>
<feBlend mode="normal" in="SourceGraphic" in2="BackgroundImageFix" result="shape"/>
<feGaussianBlur stdDeviation="0.198437" result="effect1_foregroundBlur_14_357"/>
</filter>
<radialGradient id="paint0_radial_14_357" cx="0" cy="0" r="1" gradientUnits="userSpaceOnUse" gradientTransform="translate(74.2589 66.4389) rotate(97.0917) scale(26.6344 28.8558)">
<stop stop-color="#E9E3DD"/>
<stop offset="0.770833" stop-color="#F7F4F4"/>
</radialGradient>
<radialGradient id="paint1_radial_14_357" cx="0" cy="0" r="1" gradientUnits="userSpaceOnUse" gradientTransform="translate(70.6063 63.5206) rotate(47.3731) scale(13.8117 13.3299)">
<stop offset="2.18516e-09" stop-color="#FFDC60"/>
<stop offset="1" stop-color="#F8B60C"/>
</radialGradient>
<radialGradient id="paint2_radial_14_357" cx="0" cy="0" r="1" gradientUnits="userSpaceOnUse" gradientTransform="translate(134.43 70.1486) rotate(-165.443) scale(26.6344 28.8558)">
<stop stop-color="#E9E3DD"/>
<stop offset="0.770833" stop-color="#F7F4F4"/>
</radialGradient>
<radialGradient id="paint3_radial_14_357" cx="0" cy="0" r="1" gradientUnits="userSpaceOnUse" gradientTransform="translate(131.625 69.1144) rotate(-36.8728) scale(13.8708 13.3881)">
<stop offset="2.18516e-09" stop-color="#FFDC60"/>
<stop offset="1" stop-color="#F8B60C"/>
</radialGradient>
</defs>
</svg>
